<?xml version="1.0" encoding="utf-8"?>
<!-- Generator: Adobe Illustrator 22.1.0, SVG Export Plug-In . SVG Version: 6.00 Build 0)  -->
<svg version="1.1" id="Layer_1" xmlns="http://www.w3.org/2000/svg" xmlns:xlink="http://www.w3.org/1999/xlink" x="0px" y="0px"
	 viewBox="0 0 54.1 90" style="enable-background:new 0 0 54.1 90;" xml:space="preserve">
<path d="M50.8,77.5c-4-3.6-2.1-11-1.6-14.2c0.7-4.5,2.9-10.9,3.8-16.4c0.6-3.6,1.1-6.5,1.1-12.4c0-4.2-0.7-14.5-4.5-21.8
	C42.5-0.4,27,0,27,0S11.5-0.4,4.5,12.7C0.6,20,0,30.3,0,34.5c0,5.9,0.5,8.9,1.1,12.4c0.8,5.5,3,11.8,3.8,16.4
	c0.5,3.2,2.4,10.6-1.6,14.2C3.3,77.5-10,90,27,90C64.1,90,50.8,77.5,50.8,77.5z M6.6,35.6c-0.3-3.7,2.6-5.5,9.4-5.5
	c6,0,9.4,1.7,9.4,4.2c0,5.2-6.3,7.6-11.4,7.6C10,41.9,7,40.1,6.6,35.6z M27,61.1c-3.7,0-6.7-1-6.7-4.6s2-7.8,6.7-7.8
	s6.7,4.3,6.7,7.8C33.7,60.1,30.7,61.1,27,61.1z M47.4,35.6c-0.4,4.5-3.4,6.3-7.3,6.3c-5.2,0-11.4-2.5-11.4-7.6
	c0-2.5,3.4-4.2,9.4-4.2C44.8,30,47.8,31.8,47.4,35.6z"/>
</svg>
