<?xml version="1.0" encoding="UTF-8"?>
<svg viewBox="0 0 333 333" version="1.1" xmlns="http://www.w3.org/2000/svg" xmlns:xlink="http://www.w3.org/1999/xlink">
    <!-- Generator: Sketch 50.2 (55047) - http://www.bohemiancoding.com/sketch -->
    <title>heyyyy-you copy</title>
    <desc>Created with Sketch.</desc>
    <defs></defs>
    <g id="heyyyy-you-copy" stroke="none" stroke-width="1" fill="none" fill-rule="evenodd">
        <path d="M315.04,157.604878 L16.96,157.604878 L16.96,272.37561 C16.96,276.793888 20.541722,280.37561 24.96,280.37561 L307.04,280.37561 C311.458278,280.37561 315.04,276.793888 315.04,272.37561 L315.04,157.604878 Z M19,49 L313,49 C321.284271,49 328,55.7157288 328,64 L328,276 C328,284.284271 321.284271,291 313,291 L19,291 C10.7157288,291 4,284.284271 4,276 L4,64 C4,55.7157288 10.7157288,49 19,49 Z M49.4934659,116.287805 L59.8807955,116.287805 L59.8807955,93.7495951 L80.2343466,93.7495951 L80.2343466,116.287805 L90.6216761,116.287805 L90.6216761,64.7417588 L80.2343466,64.7417588 L80.2343466,85.0296637 L59.8807955,85.0296637 L59.8807955,64.7417588 L49.4934659,64.7417588 L49.4934659,116.287805 Z M101.359929,116.287805 L140.487876,116.287805 L140.487876,107.603034 L111.747259,107.603034 L111.747259,93.57379 L137.575213,93.57379 L137.575213,84.8890196 L111.747259,84.8890196 L111.747259,73.4616902 L139.505291,73.4616902 L139.505291,64.7417588 L101.359929,64.7417588 L101.359929,116.287805 Z M149.57679,116.287805 L185.792074,116.287805 L185.792074,107.603034 L159.964119,107.603034 L159.964119,65.1636909 L149.57679,65.1636909 L149.57679,116.287805 Z M193.477294,116.287805 L229.692578,116.287805 L229.692578,107.603034 L203.864624,107.603034 L203.864624,65.1636909 L193.477294,65.1636909 L193.477294,116.287805 Z M234.99152,90.8312309 C234.99152,99.0355085 237.249104,105.47577 241.764339,110.152208 C246.279575,114.828646 252.362185,117.16683 260.012351,117.16683 C267.568937,117.16683 273.604757,114.816926 278.119993,110.117047 C282.635229,105.417168 284.892813,98.9065854 284.892813,90.5851038 C284.892813,82.1932999 282.617683,75.6416966 278.067354,70.9300972 C273.517026,66.2184978 267.451963,63.8627334 259.871982,63.8627334 C255.684276,63.8627334 251.987921,64.5425062 248.782805,65.9020722 C246.37312,66.9100263 244.156477,68.4570955 242.132809,70.543326 C240.109141,72.6295566 238.512456,74.985321 237.342706,77.6106898 C235.775241,81.1736903 234.99152,85.5804933 234.99152,90.8312309 Z M81.1432955,129.927973 L83.6975568,144.619512 C82.9151665,146.464034 81.9164833,147.38628 80.7014773,147.38628 C80.2504523,147.38628 79.7856274,147.317112 79.3069886,147.178773 L78.9618182,150.139215 C80.0111416,150.434338 80.9545981,150.581898 81.7922159,150.581898 C82.6390383,150.581898 83.363889,150.429727 83.9667898,150.125381 C84.5696905,149.821035 85.0851399,149.401413 85.5131534,148.866502 C85.9411669,148.33159 86.5279508,147.39551 87.2735227,146.058232 L96.3307955,129.927973 L92.1335227,129.927973 L88.6265909,136.443712 C87.7245409,138.113004 87.015798,139.699268 86.5003409,141.202553 C86.4727271,140.4463 86.3346603,139.127487 86.0861364,137.246075 L85.0920455,129.927973 L81.1432955,129.927973 Z M96.2203409,138.518788 C96.2203409,139.680837 96.4826678,140.769088 97.0073295,141.783575 C97.5319913,142.798061 98.3281765,143.581971 99.3959091,144.135328 C100.463642,144.688684 101.687834,144.965358 103.068523,144.965358 C105.618195,144.965358 107.652379,144.098446 109.171136,142.364596 C110.689894,140.630746 111.449261,138.574135 111.449261,136.194703 C111.449261,134.174952 110.841767,132.567937 109.626761,131.373609 C108.411755,130.179281 106.722738,129.582127 104.559659,129.582127 C102.065215,129.582127 100.051741,130.391398 98.5191761,132.009966 C96.9866117,133.628533 96.2203409,135.798119 96.2203409,138.518788 Z M115.950284,129.927973 L114.238239,138.117607 C113.925283,139.630114 113.768807,140.639975 113.768807,141.147218 C113.768807,142.309266 114.113974,143.236125 114.804318,143.92782 C115.494663,144.619516 116.442721,144.965358 117.648523,144.965358 C119.553873,144.965358 121.316526,144.18606 122.936534,142.627439 L122.52233,144.619512 L126.222557,144.619512 L129.28767,129.927973 L125.325114,129.927973 L123.861591,136.927896 C123.65909,137.887047 123.470399,138.578733 123.295511,139.002973 C123.046987,139.574774 122.780058,140.035898 122.494716,140.386357 C122.209374,140.736816 121.887218,141.048074 121.528239,141.320141 C121.16926,141.592208 120.81949,141.795102 120.47892,141.92883 C120.138351,142.062558 119.793184,142.129421 119.443409,142.129421 C118.955566,142.129421 118.555172,141.97725 118.242216,141.672904 C117.92926,141.368558 117.772784,141.00427 117.772784,140.58003 C117.772784,140.321797 117.883238,139.671613 118.104148,138.629459 L119.912841,129.927973 L115.950284,129.927973 Z M133.029318,129.927973 L129.964205,144.619512 L133.926761,144.619512 L134.893239,140.012843 C135.279831,138.140654 135.671021,136.773423 136.066818,135.911109 C136.462616,135.048795 137.012582,134.359416 137.716733,133.84295 C138.420884,133.326484 139.113519,133.068255 139.794659,133.068255 C140.199661,133.068255 140.581646,133.132812 140.940625,133.261928 L142.459375,130.010976 C141.805849,129.725075 141.193753,129.582127 140.623068,129.582127 C139.012265,129.582127 137.516541,130.647322 136.135852,132.777744 L136.729545,129.927973 L133.029318,129.927973 Z M152.165568,129.927973 L149.100455,144.619512 L153.063011,144.619512 L154.319432,138.587957 C154.687615,136.826439 155.018976,135.659797 155.313523,135.087995 C155.718525,134.285629 156.275394,133.640056 156.984148,133.151258 C157.692901,132.662459 158.337213,132.418064 158.917102,132.418064 C159.450969,132.418064 159.86747,132.563318 160.166619,132.85383 C160.465769,133.144342 160.615341,133.543214 160.615341,134.050457 C160.615341,134.290245 160.486479,135.032654 160.22875,136.277706 L158.489091,144.619512 L162.451648,144.619512 L164.1775,136.305373 C164.481252,134.866647 164.633125,133.889065 164.633125,133.372599 C164.633125,132.228996 164.285657,131.31136 163.59071,130.619665 C162.895764,129.927969 161.945404,129.582127 160.739602,129.582127 C159.837552,129.582127 158.979237,129.755048 158.164631,130.100896 C157.350024,130.446743 156.4733,131.025453 155.534432,131.837043 L155.921023,129.927973 L152.165568,129.927973 Z M171.909318,134.091959 C172.056592,133.557048 172.335026,133.144342 172.744631,132.85383 C173.154235,132.563318 173.713406,132.418064 174.422159,132.418064 C175.094094,132.418064 175.600339,132.561012 175.940909,132.846913 C176.281479,133.132814 176.451761,133.487879 176.451761,133.912119 C176.451761,134.244133 176.368921,134.686811 176.203239,135.240168 C175.568122,135.46151 174.307112,135.650571 172.42017,135.807355 C170.183455,135.982585 168.630203,136.48982 167.760369,137.329078 C166.890535,138.168335 166.455625,139.288865 166.455625,140.690701 C166.455625,141.944976 166.851416,142.970975 167.643011,143.768731 C168.434606,144.566486 169.437892,144.965358 170.652898,144.965358 C171.416879,144.965358 172.176246,144.792437 172.931023,144.446589 C173.685799,144.100741 174.353122,143.605034 174.933011,142.959451 C174.96983,143.531253 175.066476,144.084601 175.222955,144.619512 L179.075057,144.619512 C178.854147,143.854036 178.743693,143.157739 178.743693,142.530602 C178.743693,141.829684 178.936987,140.603096 179.32358,138.8508 C179.793014,136.729601 180.066846,135.42001 180.145085,134.921989 C180.223324,134.423969 180.262443,133.953623 180.262443,133.510938 C180.262443,132.413447 179.811425,131.484284 178.909375,130.723418 C178.007325,129.962553 176.61285,129.582127 174.725909,129.582127 C172.912605,129.582127 171.456,129.951025 170.356051,130.688834 C169.256102,131.426642 168.485229,132.450336 168.043409,133.759947 L171.909318,134.091959 Z M184.984375,129.927973 L181.919261,144.619512 L185.881818,144.619512 L187.290114,137.868598 C187.538638,136.697326 187.718124,135.945695 187.82858,135.613681 C188.077104,134.903541 188.373947,134.322525 188.719119,133.870617 C189.064291,133.41871 189.466986,133.063645 189.927216,132.805412 C190.387445,132.547179 190.833861,132.418064 191.266477,132.418064 C191.726707,132.418064 192.087982,132.542567 192.350313,132.791578 C192.612643,133.040588 192.743807,133.358763 192.743807,133.746113 C192.743807,134.050459 192.637956,134.714477 192.42625,135.738186 L190.576136,144.619512 L194.538693,144.619512 L195.933182,137.951601 C196.328979,136.051744 196.807611,134.728319 197.369091,133.981288 C198.142277,132.939134 199.021302,132.418064 200.006193,132.418064 C200.494037,132.418064 200.859914,132.535651 201.103835,132.770827 C201.347757,133.006003 201.469716,133.326484 201.469716,133.732279 C201.469716,133.879841 201.35466,134.516191 201.124545,135.641349 L199.246818,144.619512 L203.209375,144.619512 L205.087102,135.641349 C205.344831,134.396297 205.473693,133.520163 205.473693,133.012919 C205.473693,131.979987 205.146935,131.149965 204.493409,130.522828 C203.839883,129.89569 202.928642,129.582127 201.759659,129.582127 C200.737949,129.582127 199.753073,129.831133 198.805,130.329154 C197.856927,130.827175 197.129775,131.44508 196.623523,132.182889 C196.45784,131.371299 196.075855,130.734949 195.477557,130.273819 C194.879258,129.812688 194.027846,129.582127 192.923295,129.582127 C191.321697,129.582127 189.793757,130.292257 188.339432,131.712538 L188.712216,129.927973 L184.984375,129.927973 Z M221.461989,138.504954 C221.64608,137.739478 221.738125,136.877177 221.738125,135.918026 C221.738125,133.91672 221.208869,132.360429 220.150341,131.249104 C219.091813,130.13778 217.665123,129.582127 215.870227,129.582127 C213.053622,129.582127 210.885974,130.64271 209.367216,132.76391 C208.25346,134.331753 207.696591,136.120912 207.696591,138.131441 C207.696591,140.188082 208.313289,141.841209 209.546705,143.090873 C210.78012,144.340536 212.381695,144.965358 214.351477,144.965358 C215.787394,144.965358 217.08292,144.607988 218.238097,143.893236 C219.393273,143.178483 220.316019,142.106371 221.006364,140.676867 L217.458011,140.082012 C216.721644,141.446958 215.695347,142.129421 214.379091,142.129421 C213.578291,142.129421 212.899463,141.82969 212.342585,141.230221 C211.785707,140.630752 211.507273,139.84223 211.507273,138.864634 C211.507273,138.781631 211.511875,138.661739 211.52108,138.504954 L221.461989,138.504954 Z M234.99267,124.339101 L234.247102,127.935899 L238.209659,127.935899 L238.955227,124.339101 L234.99267,124.339101 Z M233.832898,129.927973 L230.767784,144.619512 L234.730341,144.619512 L237.795455,129.927973 L233.832898,129.927973 Z M238.113011,140.510861 C238.527218,141.92192 239.311898,143.017088 240.467074,143.796399 C241.62225,144.575709 243.258342,144.965358 245.375398,144.965358 C247.501658,144.965358 249.149256,144.453511 250.318239,143.429802 C251.487222,142.406092 252.071705,141.197949 252.071705,139.805335 C252.071705,138.72629 251.611482,137.804043 250.691023,137.038567 C250.037497,136.494433 248.744271,135.941085 246.811307,135.378506 C245.559482,135.009602 244.818524,134.751373 244.588409,134.603811 C244.220225,134.364023 244.036136,134.059682 244.036136,133.690777 C244.036136,133.331096 244.217924,133.012921 244.581506,132.736242 C244.945087,132.459564 245.541075,132.321227 246.369489,132.321227 C247.197902,132.321227 247.906645,132.501065 248.495739,132.860747 C248.928354,133.128203 249.241306,133.52938 249.434602,134.064291 L253.093409,133.427934 C252.835681,132.247441 252.223584,131.31136 251.257102,130.619665 C250.29062,129.927969 248.86393,129.582127 246.976989,129.582127 C244.602204,129.582127 242.811938,130.167753 241.606136,131.339024 C240.740905,132.178282 240.308295,133.178919 240.308295,134.340968 C240.308295,135.503016 240.754711,136.443708 241.647557,137.163072 C242.218241,137.624202 243.700158,138.25133 246.093352,139.044474 C246.986198,139.339598 247.533863,139.588604 247.736364,139.791502 C247.92966,140.003621 248.026307,140.243406 248.026307,140.510861 C248.026307,140.907433 247.837616,141.244053 247.460227,141.520732 C246.917156,141.926526 246.194607,142.129421 245.292557,142.129421 C244.418121,142.129421 243.727787,141.961111 243.221534,141.624486 C242.715282,141.28786 242.291877,140.713762 241.951307,139.902172 L238.113011,140.510861 Z M246,90.9643564 C246,84.9524452 247.288931,80.4554605 249.866831,77.4732673 C252.444731,74.4910742 255.839683,73 260.051788,73 C264.263893,73 267.641582,74.4732526 270.184957,77.419802 C272.728332,80.3663514 274,84.8336334 274,90.8217822 C274,96.8812184 272.693807,101.425727 270.081381,104.455446 C267.468955,107.485164 264.125791,109 260.051788,109 C255.977785,109 252.617358,107.473283 249.970407,104.419802 C247.323456,101.366321 246,96.8812177 246,90.9643564 Z M107,136.004451 C107,137.829386 106.498118,139.378332 105.49434,140.651335 C104.789934,141.55045 103.918244,142 102.879245,142 C102.051568,142 101.364783,141.701783 100.818868,141.105341 C100.272953,140.508899 100,139.703269 100,138.688427 C100,137.869432 100.176099,136.972557 100.528302,135.997774 C100.880505,135.022992 101.373582,134.279676 102.007547,133.767804 C102.641513,133.255932 103.36792,133 104.186792,133 C105.01447,133 105.690249,133.273736 106.214151,133.821217 C106.738053,134.368697 107,135.096435 107,136.004451 Z M175,138 L174.899497,138.498361 C174.715242,139.416398 174.50377,140.091801 174.265075,140.52459 C174.026381,140.957379 173.66625,141.311474 173.184673,141.586885 C172.703096,141.862296 172.19012,142 171.645729,142 C171.151589,142 170.75377,141.849182 170.452261,141.547541 C170.150752,141.2459 170,140.876505 170,140.439344 C170,139.906008 170.196815,139.481969 170.590452,139.167213 C171.143219,138.730052 172.324112,138.397815 174.133166,138.170492 C174.493302,138.118033 174.782243,138.061202 175,138 Z M217.986667,136 L212,136 C212.222223,134.681754 212.646664,133.685538 213.273333,133.011321 C213.900003,132.337104 214.608885,132 215.4,132 C216.191115,132 216.82222,132.296852 217.293333,132.890566 C217.764447,133.48428 218,134.374837 218,135.562264 C218,135.662894 217.995556,135.808804 217.986667,136 Z M191.917288,201.084393 C192.382048,206.457511 190.888199,211.399379 187.435696,215.910145 C185.510261,218.430867 181.725844,221.979725 176.082329,226.556826 C170.770786,230.868587 167.218745,234.417446 165.426099,237.203507 C164.098214,239.32622 162.969528,240.28806 162.040008,240.089056 C159.782602,239.624712 156.496134,236.805526 152.180505,231.631412 C151.981323,231.366073 151.881733,231.034404 151.881733,230.636395 C151.881733,229.442369 152.412879,228.14886 153.475188,226.755829 C154.803073,225.031125 158.670483,221.449099 165.077531,216.009646 C171.48458,210.570193 175.849939,206.391164 178.173739,203.472433 C181.891819,198.828998 182.754932,195.180639 180.763103,192.527247 C179.6344,191.001547 177.775388,190.238708 175.186011,190.238708 C170.604805,190.238708 164.662606,192.328223 157.359234,196.507315 C157.226445,196.57365 157.027265,196.606816 156.761688,196.606816 C155.765774,196.606816 154.271925,195.512309 152.280096,193.323261 C150.686633,191.532221 149.358768,189.741209 148.296459,187.950169 C147.765305,187.087817 147.947886,186.09281 148.844209,184.965118 C149.740532,183.837427 152.346469,182.444417 156.662097,180.786047 C161.708063,178.928673 166.38879,178 170.704419,178 C174.422499,178 177.509787,178.729672 179.966376,180.189037 C187.070564,184.434464 191.054162,191.399513 191.917288,201.084393 Z M169.70851,255.01431 C169.841298,255.279649 169.907691,255.544984 169.907691,255.810323 C169.907691,256.341002 169.476135,257.05409 168.613009,257.94961 C167.749884,258.845129 167.218737,259.591385 167.019554,260.188398 C166.554794,261.515094 166.090041,262.874936 165.625281,264.267967 C164.894944,266.324346 163.965438,267.219852 162.836735,266.954513 C160.048175,266.3575 156.396544,263.737315 151.881733,259.093879 C151.549761,258.762205 151.450171,258.430536 151.58296,258.098862 L151.981324,257.302849 C152.446084,256.108822 152.944033,254.914814 153.475188,253.720788 C154.072736,252.128753 154.338309,250.702576 154.271915,249.442215 C154.205521,248.579863 154.620479,247.866774 155.516802,247.302929 C156.413125,246.739083 157.392426,246.457164 158.454734,246.457164 C159.981803,246.457164 162.106388,247.568255 164.828554,249.790471 C167.55072,252.012686 169.177355,253.753949 169.70851,255.01431 Z" id="Combined-Shape" fill="#B8B8B8"></path>
    </g>
</svg>