<?xml version="1.0" encoding="UTF-8"?>
<svg viewBox="0 0 333 333" version="1.1" xmlns="http://www.w3.org/2000/svg" xmlns:xlink="http://www.w3.org/1999/xlink">
    <!-- Generator: Sketch 50.2 (55047) - http://www.bohemiancoding.com/sketch -->
    <title>presenter</title>
    <desc>Created with Sketch.</desc>
    <defs></defs>
    <g id="presenter" stroke="none" stroke-width="1" fill="none" fill-rule="evenodd">
        <g transform="translate(6.000000, 22.000000)" fill="#000000" fill-rule="nonzero">
            <path d="M269.985421,3.79534456 L264.425873,17.7529108 C263.592202,19.8458876 264.405979,22.0985508 266.551769,23.6377305 C268.471846,25.0150065 271.584908,25.0150065 273.504985,23.6377305 C275.650775,22.0985508 276.464552,19.8458876 275.630882,17.7529108 L270.096432,3.85835517 C278.998621,8.93682709 285,18.517565 285,29.5 C285,45.7924001 271.7924,59 255.5,59 C239.2076,59 226,45.7924001 226,29.5 C226,13.2075999 239.2076,0 255.5,0 C260.764376,0 265.706682,1.37894699 269.985421,3.79534456 Z" id="Combined-Shape"></path>
            <path d="M321.754953,152.482443 C321.075462,149.091527 314.960049,118.912378 310.203616,107.383265 C309.524126,106.026898 309.18438,104.331441 308.50489,102.635983 C303.748457,89.7505033 294.915082,66.0140937 272.831645,66.0140937 L238.857125,66.0140937 C221.190375,66.0140937 212.017255,60.2495371 209.299293,55.1631636 C208.419664,52.8805289 213.384362,48.2146825 224.193386,41.1656244 L224.193372,41.1656035 C230.144824,37.2843899 232.011414,29.4204869 228.439044,23.2786816 L228.439044,23.2786816 C224.935896,17.255885 217.213591,15.2133069 211.190795,18.7164557 C210.981062,18.8384465 210.774892,18.9664624 210.572542,19.1003436 C185.688186,35.5646573 176.508374,49.5939637 183.033117,61.1882771 C186.430569,67.6310168 200.465918,87.3768623 226.626298,90.7677779 L227.985279,160.959732 L214.395471,277.60723 C213.376235,285.745428 219.151904,292.866351 227.305788,293.883625 C235.459673,294.9009 242.594322,289.136343 243.613558,280.998146 L255.844385,175.201578 L268.414957,280.998146 C269.434193,288.45816 275.549606,293.883625 283.024,293.883625 C283.703491,293.883625 284.043236,293.883625 284.722726,293.883625 C292.876611,292.866351 298.652279,285.745428 297.633044,277.60723 L284.043236,160.959732 L285.062472,111.791455 C285.741962,113.826004 286.421452,115.521462 287.100943,116.877828 C289.818904,123.65966 294.575337,145.36152 296.953553,157.229725 C297.972789,163.333373 303.408712,167.402472 309.18438,167.402472 C309.863871,167.402472 310.883106,167.402472 311.562597,167.06338 C318.697246,166.046105 323.113933,159.603366 321.754953,152.482443 Z" id="Shape"></path>
            <path d="M184.319961,104.703508 C172.14436,106.402643 158.277705,106.74247 152.866327,105.383162 C152.528116,104.703508 152.189905,104.023854 152.189905,103.004373 C147.454949,90.0909447 138.66146,66.3030511 116.339526,66.3030511 L99.4289705,66.3030511 L82.5184148,66.3030511 C63.2403812,66.3030511 52.4176255,78.876652 45.6534032,87.3723283 C43.2859254,79.8961331 40.2420253,68.6818404 38.2127586,57.4675477 L46.3298254,54.4091043 C48.3590921,56.4480666 51.4029921,57.4675477 54.4468922,57.4675477 C61.2111145,57.4675477 66.6224923,52.0303149 66.6224923,45.2337739 C66.6224923,38.4372328 61.2111145,33 54.4468922,33 C48.3590921,33 43.2859254,37.7575787 42.6095031,43.5346386 L33.8160141,46.9329091 C31.1103252,44.2142927 27.0517918,42.8549845 22.9932584,43.5346386 C17.2436695,44.5541198 13.5233472,49.3116985 12.846925,54.7489313 L3.71522484,58.1472018 C0.671324805,59.166683 -0.681519657,62.5649535 0.33311369,65.2835699 C1.00953592,67.6623593 3.37701373,69.0216675 5.40628042,69.0216675 C6.08270265,69.0216675 6.75912488,69.0216675 7.43554711,68.6818404 L14.1997694,66.3030511 C24.0078918,115.577974 34.1542252,116.937282 40.5802364,117.616936 C41.2566587,117.616936 42.271292,117.616936 42.9477142,117.616936 C53.4322588,117.616936 59.85827,109.461087 64.9314367,103.3442 C66.9607034,100.96541 68.651759,98.926448 70.3428146,97.2273128 L71.6956591,163.493588 C71.6956591,163.833415 71.6956591,164.173242 71.6956591,164.513069 C70.0046035,171.30961 62.5639589,197.136466 59.5200589,207.671105 C55.7997366,220.92436 57.1525811,266.121357 57.4907922,279.71444 C57.8290033,287.870289 64.5932256,294.327003 72.7102924,293.987176 C80.8273592,293.647349 87.2533704,286.850808 86.9151593,278.694958 C85.9005259,253.207929 86.238737,221.943841 87.9297926,215.826954 C90.2972704,207.671105 95.3704371,190.000098 98.0761261,179.465459 L97.0614927,211.409202 C97.0614927,214.467646 96.7232816,223.642976 123.103749,285.151672 C125.471226,290.588905 130.882604,293.987176 136.632193,293.987176 C138.66146,293.987176 140.690727,293.647349 142.381782,292.627867 C149.822427,289.229597 153.204538,280.733921 150.160638,273.257726 C139.676093,248.790178 127.500493,218.54557 126.48586,211.409202 L127.838704,166.891858 L127.838704,166.212204 C127.838704,165.53255 127.500493,164.852896 127.500493,163.833415 L128.515126,110.480568 C128.515126,110.820395 128.853338,111.160222 128.853338,111.160222 C129.52976,113.199184 130.206182,115.238147 130.882604,116.597455 C134.941138,126.112612 146.102104,130.870191 164.365505,130.870191 C171.467938,130.870191 179.246794,130.190537 188.378494,128.831229 C195.142716,127.811747 199.877672,121.355033 198.863038,114.558492 C197.510194,108.441605 191.084183,103.3442 184.319961,104.703508 Z" id="Shape"></path>
            <circle id="Oval" cx="99.5" cy="29.5" r="29.5"></circle>
        </g>
    </g>
</svg>