<?xml version="1.0" encoding="utf-8"?>
<!-- Generator: Adobe Illustrator 22.1.0, SVG Export Plug-In . SVG Version: 6.00 Build 0)  -->
<svg version="1.1" id="Layer_1" xmlns="http://www.w3.org/2000/svg" xmlns:xlink="http://www.w3.org/1999/xlink" x="0px" y="0px"
	 viewBox="0 0 385.9 385.9" style="enable-background:new 0 0 385.9 385.9;" xml:space="preserve">
<style type="text/css">
	.st0{fill:#FFFFFF;}
</style>
<path class="st0" d="M192.9,145.9c-8.2,0-14.9-6.7-14.9-14.9s6.7-14.9,14.9-14.9s14.9,6.7,14.9,14.9S201.2,145.9,192.9,145.9
	 M192.9,110.8c-11.1,0-20.1,9-20.1,20.1s9,20.1,20.1,20.1s20.1-9,20.1-20.1C213.1,119.8,204,110.8,192.9,110.8 M150.5,111.6
	c-1-1-2.7-1-3.7,0l-15.7,15.7l-15.7-15.7c-1-1-2.7-1-3.7,0s-1,2.7,0,3.7l15.7,15.7l-15.7,15.7c-1,1-1,2.7,0,3.7
	c0.5,0.5,1.2,0.8,1.8,0.8c0.7,0,1.3-0.3,1.8-0.8l15.7-15.7l15.7,15.7c0.5,0.5,1.2,0.8,1.8,0.8c0.7,0,1.3-0.3,1.8-0.8
	c1-1,1-2.7,0-3.7L134.6,131l15.7-15.7C151.5,114.3,151.5,112.6,150.5,111.6 M130.9,54.2c8.2,0,14.9,6.7,14.9,14.9S139.2,84,130.9,84
	S116,77.3,116,69.1S122.7,54.2,130.9,54.2 M130.9,89.3c11.1,0,20.1-9,20.1-20.1s-9-20.1-20.1-20.1s-20.1,9-20.1,20.1
	C110.8,80.2,119.9,89.3,130.9,89.3 M88.5,49.8c-1-1-2.7-1-3.7,0L69.1,65.4L53.5,49.8c-1-1-2.7-1-3.7,0s-1,2.7,0,3.7l15.7,15.7
	L49.8,84.8c-1,1-1,2.7,0,3.7c0.5,0.5,1.2,0.8,1.8,0.8c0.7,0,1.3-0.3,1.8-0.8l15.7-15.7l15.7,15.7c0.5,0.5,1.2,0.8,1.8,0.8
	c0.7,0,1.3-0.3,1.8-0.8c1-1,1-2.7,0-3.7L72.8,69.1l15.7-15.7C89.5,52.4,89.5,50.8,88.5,49.8"/>
<path class="st0" d="M254.9,83.9c-8.2,0-14.9-6.7-14.9-14.9s6.7-15,14.9-15c8.2,0,14.9,6.7,14.9,14.9S263.2,83.9,254.9,83.9
	 M254.9,48.8c-11.1,0-20.1,9-20.1,20.1s9,20.1,20.1,20.1S275,80,275,68.9C275.1,57.8,266,48.8,254.9,48.8 M212.5,49.6
	c-1-1-2.7-1-3.7,0l-15.7,15.7l-15.7-15.7c-1-1-2.7-1-3.7,0s-1,2.7,0,3.7L189.4,69l-15.7,15.7c-1,1-1,2.7,0,3.7
	c0.5,0.5,1.2,0.8,1.8,0.8c0.7,0,1.3-0.3,1.8-0.8L193,72.7l15.7,15.7c0.5,0.5,1.2,0.8,1.8,0.8c0.7,0,1.3-0.3,1.8-0.8c1-1,1-2.7,0-3.7
	L196.6,69l15.7-15.7C213.5,52.3,213.5,50.6,212.5,49.6 M68.9,116.2c8.2,0,14.9,6.7,14.9,14.9S77.2,146,68.9,146S54,139.3,54,131.1
	S60.7,116.2,68.9,116.2 M69.3,151.3c11.1-0.2,20-9.4,19.8-20.5s-9.4-20-20.5-19.8s-20,9.4-19.8,20.5S58.2,151.4,69.3,151.3"/>
<path class="st0" d="M316.8,116c8.2,0,14.9,6.7,14.9,14.9s-6.7,14.9-14.9,14.9c-8.2,0-14.9-6.7-14.9-14.9S308.6,116,316.8,116
	 M316.8,151.1c11.1,0,20.1-9,20.1-20.1s-9-20.1-20.1-20.1s-20.1,9-20.1,20.1C296.6,142,305.7,151.1,316.8,151.1 M274.3,111.6
	c-1-1-2.7-1-3.7,0l-15.7,15.7l-15.7-15.7c-1-1-2.7-1-3.7,0s-1,2.7,0,3.7l15.7,15.7l-15.7,15.7c-1,1-1,2.7,0,3.7
	c0.5,0.5,1.2,0.8,1.8,0.8c0.7,0,1.3-0.3,1.8-0.8l15.7-15.7l15.7,15.7c0.5,0.5,1.2,0.8,1.8,0.8c0.7,0,1.3-0.3,1.8-0.8
	c1-1,1-2.7,0-3.7L258.4,131l15.7-15.7C275.3,114.3,275.3,112.6,274.3,111.6"/>
<path class="st0" d="M336.3,49.6c-1-1-2.7-1-3.7,0l-15.7,15.7l-15.7-15.7c-1-1-2.7-1-3.7,0s-1,2.7,0,3.7L313.2,69l-15.7,15.7
	c-1,1-1,2.7,0,3.7c0.5,0.5,1.2,0.8,1.8,0.8c0.7,0,1.3-0.3,1.8-0.8l15.7-15.7l15.7,15.7c0.5,0.5,1.2,0.8,1.8,0.8
	c0.7,0,1.3-0.3,1.8-0.8c1-1,1-2.7,0-3.7L320.4,69l15.7-15.7C337.3,52.3,337.3,50.6,336.3,49.6"/>
<path class="st0" d="M192.9,269.9c-8.2,0-14.9-6.7-14.9-14.9c0-8.2,6.7-14.9,14.9-14.9s14.9,6.7,14.9,14.9
	C207.9,263.2,201.2,269.9,192.9,269.9 M192.9,234.8c-11.1,0-20.1,9-20.1,20.1c0,11.1,9,20.1,20.1,20.1s20.1-9,20.1-20.1
	C213.1,243.8,204,234.8,192.9,234.8 M150.5,235.6c-1-1-2.7-1-3.7,0l-15.7,15.7l-15.7-15.7c-1-1-2.7-1-3.7,0s-1,2.7,0,3.7l15.7,15.7
	l-15.7,15.7c-1,1-1,2.7,0,3.7c0.5,0.5,1.2,0.8,1.8,0.8c0.7,0,1.3-0.3,1.8-0.8l15.7-15.7l15.7,15.7c0.5,0.5,1.2,0.8,1.8,0.8
	c0.7,0,1.3-0.3,1.8-0.8c1-1,1-2.7,0-3.7L134.6,255l15.7-15.7C151.5,238.3,151.5,236.6,150.5,235.6 M130.9,178.2
	c8.2,0,14.9,6.7,14.9,14.9s-6.7,14.9-14.9,14.9s-14.9-6.7-14.9-14.9S122.7,178.2,130.9,178.2 M130.9,213.3c11.1,0,20.1-9,20.1-20.1
	s-9-20.1-20.1-20.1s-20.1,9-20.1,20.1C110.8,204.2,119.9,213.3,130.9,213.3 M88.5,173.8c-1-1-2.7-1-3.7,0l-15.7,15.7l-15.7-15.7
	c-1-1-2.7-1-3.7,0s-1,2.7,0,3.7l15.7,15.7l-15.7,15.7c-1,1-1,2.7,0,3.7c0.5,0.5,1.2,0.8,1.8,0.8c0.7,0,1.3-0.3,1.8-0.8L69,196.9
	l15.7,15.7c0.5,0.5,1.2,0.8,1.8,0.8c0.7,0,1.3-0.3,1.8-0.8c1-1,1-2.7,0-3.7l-15.7-15.7l15.7-15.7C89.5,176.4,89.5,174.8,88.5,173.8"
	/>
<path class="st0" d="M254.9,207.9c-8.2,0-14.9-6.7-14.9-14.9s6.7-14.9,14.9-14.9c8.2,0,14.9,6.7,14.9,14.9
	C269.9,201.2,263.2,207.9,254.9,207.9 M254.9,172.8c-11.1,0-20.1,9-20.1,20.1s9,20.1,20.1,20.1s20.1-9,20.1-20.1
	C275.1,181.8,266,172.8,254.9,172.8 M212.5,173.6c-1-1-2.7-1-3.7,0l-15.7,15.7l-15.7-15.7c-1-1-2.7-1-3.7,0s-1,2.7,0,3.7l15.7,15.7
	l-15.7,15.7c-1,1-1,2.7,0,3.7c0.5,0.5,1.2,0.8,1.8,0.8c0.7,0,1.3-0.3,1.8-0.8l15.7-15.7l15.7,15.7c0.5,0.5,1.2,0.8,1.8,0.8
	c0.7,0,1.3-0.3,1.8-0.8c1-1,1-2.7,0-3.7L196.6,193l15.7-15.7C213.5,176.3,213.5,174.6,212.5,173.6 M68.9,240.2
	c8.2,0,14.9,6.7,14.9,14.9S77.1,270,68.9,270S54,263.3,54,255.1C54,246.9,60.7,240.2,68.9,240.2 M69.3,275.3
	c11.1-0.2,20-9.4,19.8-20.5s-9.4-20-20.5-19.8s-20,9.4-19.8,20.5C49,266.6,58.2,275.4,69.3,275.3"/>
<path class="st0" d="M316.8,240c8.2,0,14.9,6.7,14.9,14.9c0,8.2-6.7,14.9-14.9,14.9c-8.2,0-14.9-6.7-14.9-14.9
	C301.9,246.7,308.6,240,316.8,240 M316.8,275.1c11.1,0,20.1-9,20.1-20.1s-9-20.1-20.1-20.1s-20.1,9-20.1,20.1
	C296.6,266,305.7,275.1,316.8,275.1 M274.3,235.6c-1-1-2.7-1-3.7,0l-15.7,15.7l-15.7-15.7c-1-1-2.7-1-3.7,0s-1,2.7,0,3.7l15.7,15.7
	l-15.7,15.7c-1,1-1,2.7,0,3.7c0.5,0.5,1.2,0.8,1.8,0.8c0.7,0,1.3-0.3,1.8-0.8l15.7-15.7l15.7,15.7c0.5,0.5,1.2,0.8,1.8,0.8
	c0.7,0,1.3-0.3,1.8-0.8c1-1,1-2.7,0-3.7L258.4,255l15.7-15.7C275.3,238.3,275.3,236.6,274.3,235.6"/>
<path class="st0" d="M336.3,173.6c-1-1-2.7-1-3.7,0l-15.7,15.7l-15.7-15.7c-1-1-2.7-1-3.7,0s-1,2.7,0,3.7l15.7,15.7l-15.7,15.7
	c-1,1-1,2.7,0,3.7c0.5,0.5,1.2,0.8,1.8,0.8c0.7,0,1.3-0.3,1.8-0.8l15.7-15.7l15.7,15.7c0.5,0.5,1.2,0.8,1.8,0.8
	c0.7,0,1.3-0.3,1.8-0.8c1-1,1-2.7,0-3.7L320.4,193l15.7-15.7C337.3,176.3,337.3,174.6,336.3,173.6"/>
<path class="st0" d="M130.9,302.2c8.2,0,14.9,6.7,14.9,14.9s-6.7,14.9-14.9,14.9s-14.9-6.7-14.9-14.9S122.7,302.2,130.9,302.2
	 M130.9,337.3c11.1,0,20.1-9,20.1-20.1s-9-20.1-20.1-20.1s-20.1,9-20.1,20.1S119.9,337.3,130.9,337.3 M88.5,297.8c-1-1-2.7-1-3.7,0
	l-15.7,15.7l-15.7-15.7c-1-1-2.7-1-3.7,0s-1,2.7,0,3.7l15.7,15.7l-15.7,15.7c-1,1-1,2.7,0,3.7c0.5,0.5,1.2,0.8,1.8,0.8
	c0.7,0,1.3-0.3,1.8-0.8L69,320.9l15.7,15.7c0.5,0.5,1.2,0.8,1.8,0.8c0.7,0,1.3-0.3,1.8-0.8c1-1,1-2.7,0-3.7l-15.7-15.7l15.7-15.7
	C89.5,300.4,89.5,298.8,88.5,297.8"/>
<path class="st0" d="M254.9,331.9c-8.2,0-14.9-6.7-14.9-14.9c0-8.2,6.7-14.9,14.9-14.9c8.2,0,14.9,6.7,14.9,14.9
	C269.9,325.2,263.2,331.9,254.9,331.9 M254.9,296.8c-11.1,0-20.1,9-20.1,20.1s9,20.1,20.1,20.1s20.1-9,20.1-20.1
	C275.1,305.8,266,296.8,254.9,296.8 M212.5,297.6c-1-1-2.7-1-3.7,0l-15.7,15.7l-15.7-15.7c-1-1-2.7-1-3.7,0s-1,2.7,0,3.7l15.7,15.7
	l-15.7,15.7c-1,1-1,2.7,0,3.7c0.5,0.5,1.2,0.8,1.8,0.8c0.7,0,1.3-0.3,1.8-0.8l15.7-15.7l15.7,15.7c0.5,0.5,1.2,0.8,1.8,0.8
	c0.7,0,1.3-0.3,1.8-0.8c1-1,1-2.7,0-3.7L196.6,317l15.7-15.7C213.5,300.3,213.5,298.6,212.5,297.6"/>
<path class="st0" d="M336.3,297.6c-1-1-2.7-1-3.7,0l-15.7,15.7l-15.7-15.7c-1-1-2.7-1-3.7,0s-1,2.7,0,3.7l15.7,15.7l-15.7,15.7
	c-1,1-1,2.7,0,3.7c0.5,0.5,1.2,0.8,1.8,0.8c0.7,0,1.3-0.3,1.8-0.8l15.7-15.7l15.7,15.7c0.5,0.5,1.2,0.8,1.8,0.8
	c0.7,0,1.3-0.3,1.8-0.8c1-1,1-2.7,0-3.7L320.4,317l15.7-15.7C337.3,300.3,337.3,298.6,336.3,297.6"/>
</svg>
