<?xml version="1.0" encoding="utf-8"?>
<!-- Generator: Adobe Illustrator 22.1.0, SVG Export Plug-In . SVG Version: 6.00 Build 0)  -->
<svg version="1.1" id="Layer_1" xmlns="http://www.w3.org/2000/svg" xmlns:xlink="http://www.w3.org/1999/xlink" x="0px" y="0px"
	 viewBox="0 0 64.8 64.8" style="enable-background:new 0 0 64.8 64.8;" xml:space="preserve">
<style type="text/css">
	.st0{fill:#0098A5;}
	.st1{fill:#FFFFFF;}
</style>
<path class="st0" d="M63.9,0H0.8C0.4,0,0,0.4,0,0.8V64c0,0.5,0.4,0.8,0.8,0.8H64c0.5,0,0.8-0.4,0.8-0.8V0.8C64.8,0.4,64.4,0,63.9,0"
	/>
<path class="st1" d="M51.8,13c-1-1-2.7-1-3.7,0L32.4,28.7L16.7,13c-1-1-2.7-1-3.7,0s-1,2.7,0,3.7l15.7,15.7L13,48.1
	c-1,1-1,2.7,0,3.7c0.5,0.5,1.2,0.8,1.8,0.8c0.7,0,1.3-0.3,1.8-0.8l15.7-15.7L48,51.8c0.5,0.5,1.2,0.8,1.8,0.8c0.7,0,1.3-0.3,1.8-0.8
	c1-1,1-2.7,0-3.7L35.9,32.4l15.7-15.7C52.8,15.7,52.8,14,51.8,13"/>
</svg>
