<?xml version="1.0" encoding="UTF-8"?>
<svg viewBox="0 0 333 333" version="1.1" xmlns="http://www.w3.org/2000/svg" xmlns:xlink="http://www.w3.org/1999/xlink">
    <!-- Generator: Sketch 50.2 (55047) - http://www.bohemiancoding.com/sketch -->
    <title>heyyyy-you</title>
    <desc>Created with Sketch.</desc>
    <defs></defs>
    <g id="heyyyy-you" stroke="none" stroke-width="1" fill="none" fill-rule="evenodd">
        <g id="Group" transform="translate(4.000000, 49.000000)" fill="#000000">
            <path d="M311.04,108.604878 L12.96,108.604878 L12.96,223.37561 C12.96,227.793888 16.541722,231.37561 20.96,231.37561 L303.04,231.37561 C307.458278,231.37561 311.04,227.793888 311.04,223.37561 L311.04,108.604878 Z M15,0 L309,1.77635684e-15 C317.284271,2.54560899e-16 324,6.71572875 324,15 L324,227 C324,235.284271 317.284271,242 309,242 L15,242 C6.71572875,242 -7.61826213e-16,235.284271 -1.77635684e-15,227 L-1.77635684e-15,15 C-2.79088747e-15,6.71572875 6.71572875,3.29815278e-15 15,1.77635684e-15 Z M45.4934659,67.2878049 L55.8807955,67.2878049 L55.8807955,44.7495951 L76.2343466,44.7495951 L76.2343466,67.2878049 L86.6216761,67.2878049 L86.6216761,15.7417588 L76.2343466,15.7417588 L76.2343466,36.0296637 L55.8807955,36.0296637 L55.8807955,15.7417588 L45.4934659,15.7417588 L45.4934659,67.2878049 Z M97.359929,67.2878049 L136.487876,67.2878049 L136.487876,58.6030345 L107.747259,58.6030345 L107.747259,44.57379 L133.575213,44.57379 L133.575213,35.8890196 L107.747259,35.8890196 L107.747259,24.4616902 L135.505291,24.4616902 L135.505291,15.7417588 L97.359929,15.7417588 L97.359929,67.2878049 Z M145.57679,67.2878049 L181.792074,67.2878049 L181.792074,58.6030345 L155.964119,58.6030345 L155.964119,16.1636909 L145.57679,16.1636909 L145.57679,67.2878049 Z M189.477294,67.2878049 L225.692578,67.2878049 L225.692578,58.6030345 L199.864624,58.6030345 L199.864624,16.1636909 L189.477294,16.1636909 L189.477294,67.2878049 Z M230.99152,41.8312309 C230.99152,50.0355085 233.249104,56.4757698 237.764339,61.152208 C242.279575,65.8286462 248.362185,68.1668302 256.012351,68.1668302 C263.568937,68.1668302 269.604757,65.816926 274.119993,61.117047 C278.635229,56.417168 280.892813,49.9065854 280.892813,41.5851038 C280.892813,33.1932999 278.617683,26.6416966 274.067354,21.9300972 C269.517026,17.2184978 263.451963,14.8627334 255.871982,14.8627334 C251.684276,14.8627334 247.987921,15.5425062 244.782805,16.9020722 C242.37312,17.9100263 240.156477,19.4570955 238.132809,21.543326 C236.109141,23.6295566 234.512456,25.985321 233.342706,28.6106898 C231.775241,32.1736903 230.99152,36.5804933 230.99152,41.8312309 Z M77.1432955,80.9279726 L79.6975568,95.6195122 C78.9151665,97.4640336 77.9164833,98.3862805 76.7014773,98.3862805 C76.2504523,98.3862805 75.7856274,98.317112 75.3069886,98.1787729 L74.9618182,101.139215 C76.0111416,101.434338 76.9545981,101.581898 77.7922159,101.581898 C78.6390383,101.581898 79.363889,101.429727 79.9667898,101.125381 C80.5696905,100.821035 81.0851399,100.401413 81.5131534,99.8665015 C81.9411669,99.3315903 82.5279508,98.3955097 83.2735227,97.0582317 L92.3307955,80.9279726 L88.1335227,80.9279726 L84.6265909,87.4437119 C83.7245409,89.1130038 83.015798,90.6992684 82.5003409,92.2025534 C82.4727271,91.4462996 82.3346603,90.1274865 82.0861364,88.2460747 L81.0920455,80.9279726 L77.1432955,80.9279726 Z M92.2203409,89.5187881 C92.2203409,90.6808366 92.4826678,91.7690879 93.0073295,92.7835747 C93.5319913,93.7980615 94.3281765,94.5819713 95.3959091,95.1353277 C96.4636417,95.6886842 97.687834,95.9653582 99.0685227,95.9653582 C101.618195,95.9653582 103.652379,95.0984462 105.171136,93.364596 C106.689894,91.6307459 107.449261,89.5741354 107.449261,87.1947027 C107.449261,85.1749518 106.841767,83.5679366 105.626761,82.373609 C104.411755,81.1792814 102.722738,80.5821265 100.559659,80.5821265 C98.0652148,80.5821265 96.0517406,81.3913982 94.5191761,83.0099657 C92.9866117,84.6285332 92.2203409,86.798119 92.2203409,89.5187881 Z M111.950284,80.9279726 L110.238239,89.1176067 C109.925283,90.6301143 109.768807,91.6399746 109.768807,92.147218 C109.768807,93.3092665 110.113974,94.2361246 110.804318,94.9278201 C111.494663,95.6195157 112.442721,95.9653582 113.648523,95.9653582 C115.553873,95.9653582 117.316526,95.1860596 118.936534,93.627439 L118.52233,95.6195122 L122.222557,95.6195122 L125.28767,80.9279726 L121.325114,80.9279726 L119.861591,87.9278963 C119.65909,88.8870475 119.470399,89.5787326 119.295511,90.0029726 C119.046987,90.5747742 118.780058,91.0358976 118.494716,91.3863567 C118.209374,91.7368158 117.887218,92.0480741 117.528239,92.320141 C117.16926,92.5922079 116.81949,92.7951022 116.47892,92.92883 C116.138351,93.0625578 115.793184,93.1294207 115.443409,93.1294207 C114.955566,93.1294207 114.555172,92.97725 114.242216,92.672904 C113.92926,92.3685579 113.772784,92.0042704 113.772784,91.5800305 C113.772784,91.3217975 113.883238,90.6716134 114.104148,89.6294588 L115.912841,80.9279726 L111.950284,80.9279726 Z M129.029318,80.9279726 L125.964205,95.6195122 L129.926761,95.6195122 L130.893239,91.012843 C131.279831,89.1406537 131.671021,87.7734228 132.066818,86.911109 C132.462616,86.0487952 133.012582,85.3594157 133.716733,84.8429497 C134.420884,84.3264837 135.113519,84.0682546 135.794659,84.0682546 C136.199661,84.0682546 136.581646,84.1328119 136.940625,84.2619284 L138.459375,81.0109756 C137.805849,80.7250748 137.193753,80.5821265 136.623068,80.5821265 C135.012265,80.5821265 133.516541,81.6473217 132.135852,83.7777439 L132.729545,80.9279726 L129.029318,80.9279726 Z M148.165568,80.9279726 L145.100455,95.6195122 L149.063011,95.6195122 L150.319432,89.5879573 C150.687615,87.8264394 151.018976,86.6597971 151.313523,86.0879954 C151.718525,85.2856286 152.275394,84.6400558 152.984148,84.1512576 C153.692901,83.6624594 154.337213,83.418064 154.917102,83.418064 C155.450969,83.418064 155.86747,83.5633179 156.166619,83.85383 C156.465769,84.1443422 156.615341,84.5432139 156.615341,85.0504573 C156.615341,85.2902451 156.486479,86.0326538 156.22875,87.2777058 L154.489091,95.6195122 L158.451648,95.6195122 L160.1775,87.3053735 C160.481252,85.8666468 160.633125,84.8890651 160.633125,84.3725991 C160.633125,83.2289958 160.285657,82.3113602 159.59071,81.6196646 C158.895764,80.9279691 157.945404,80.5821265 156.739602,80.5821265 C155.837552,80.5821265 154.979237,80.7550478 154.164631,81.1008956 C153.350024,81.4467433 152.4733,82.0254533 151.534432,82.8370427 L151.921023,80.9279726 L148.165568,80.9279726 Z M167.909318,85.0919588 C168.056592,84.5570476 168.335026,84.1443422 168.744631,83.85383 C169.154235,83.5633179 169.713406,83.418064 170.422159,83.418064 C171.094094,83.418064 171.600339,83.5610123 171.940909,83.8469131 C172.281479,84.1328139 172.451761,84.487879 172.451761,84.9121189 C172.451761,85.2441328 172.368921,85.6868113 172.203239,86.2401677 C171.568122,86.4615103 170.307112,86.6505709 168.42017,86.8073552 C166.183455,86.9825847 164.630203,87.4898205 163.760369,88.3290777 C162.890535,89.168335 162.455625,90.2888649 162.455625,91.6907012 C162.455625,92.9449758 162.851416,93.9709754 163.643011,94.7687309 C164.434606,95.5664865 165.437892,95.9653582 166.652898,95.9653582 C167.416879,95.9653582 168.176246,95.7924369 168.931023,95.4465892 C169.685799,95.1007414 170.353122,94.6050337 170.933011,93.9594512 C170.96983,94.5312529 171.066476,95.084601 171.222955,95.6195122 L175.075057,95.6195122 C174.854147,94.8540358 174.743693,94.1577394 174.743693,93.5306021 C174.743693,92.829684 174.936987,91.6030957 175.32358,89.8508003 C175.793014,87.7296007 176.066846,86.4200101 176.145085,85.9219893 C176.223324,85.4239685 176.262443,84.9536226 176.262443,84.5109375 C176.262443,83.4134473 175.811425,82.4842835 174.909375,81.7234184 C174.007325,80.9625534 172.61285,80.5821265 170.725909,80.5821265 C168.912605,80.5821265 167.456,80.9510253 166.356051,81.6888338 C165.256102,82.4266424 164.485229,83.4503364 164.043409,84.7599466 L167.909318,85.0919588 Z M180.984375,80.9279726 L177.919261,95.6195122 L181.881818,95.6195122 L183.290114,88.8685976 C183.538638,87.6973265 183.718124,86.9456953 183.82858,86.6136814 C184.077104,85.9035407 184.373947,85.3225251 184.719119,84.8706174 C185.064291,84.4187096 185.466986,84.0636446 185.927216,83.8054116 C186.387445,83.5471786 186.833861,83.418064 187.266477,83.418064 C187.726707,83.418064 188.087982,83.5425674 188.350313,83.7915777 C188.612643,84.0405881 188.743807,84.3587633 188.743807,84.7461128 C188.743807,85.0504588 188.637956,85.7144766 188.42625,86.738186 L186.576136,95.6195122 L190.538693,95.6195122 L191.933182,88.9516006 C192.328979,87.0517435 192.807611,85.7283193 193.369091,84.9812881 C194.142277,83.9391335 195.021302,83.418064 196.006193,83.418064 C196.494037,83.418064 196.859914,83.5356505 197.103835,83.770827 C197.347757,84.0060035 197.469716,84.3264843 197.469716,84.732279 C197.469716,84.8798407 197.35466,85.516191 197.124545,86.6413491 L195.246818,95.6195122 L199.209375,95.6195122 L201.087102,86.6413491 C201.344831,85.3962971 201.473693,84.5201626 201.473693,84.0129192 C201.473693,82.9799872 201.146935,82.149965 200.493409,81.5228277 C199.839883,80.8956905 198.928642,80.5821265 197.759659,80.5821265 C196.737949,80.5821265 195.753073,80.8311332 194.805,81.329154 C193.856927,81.8271747 193.129775,82.4450802 192.623523,83.1828887 C192.45784,82.3712993 192.075855,81.734949 191.477557,81.2738186 C190.879258,80.8126882 190.027846,80.5821265 188.923295,80.5821265 C187.321697,80.5821265 185.793757,81.2922566 184.339432,82.7125381 L184.712216,80.9279726 L180.984375,80.9279726 Z M217.461989,89.5049543 C217.64608,88.7394779 217.738125,87.8771771 217.738125,86.9180259 C217.738125,84.9167202 217.208869,83.3604286 216.150341,82.2491044 C215.091813,81.1377803 213.665123,80.5821265 211.870227,80.5821265 C209.053622,80.5821265 206.885974,81.6427104 205.367216,83.7639101 C204.25346,85.3317533 203.696591,87.1209122 203.696591,89.1314405 C203.696591,91.1880819 204.313289,92.8412095 205.546705,94.0908727 C206.78012,95.340536 208.381695,95.9653582 210.351477,95.9653582 C211.787394,95.9653582 213.08292,95.6079876 214.238097,94.8932355 C215.393273,94.1784835 216.316019,93.1063715 217.006364,91.6768674 L213.458011,91.0820122 C212.721644,92.446958 211.695347,93.1294207 210.379091,93.1294207 C209.578291,93.1294207 208.899463,92.8296905 208.342585,92.230221 C207.785707,91.6307516 207.507273,90.8422305 207.507273,89.8646341 C207.507273,89.7816307 207.511875,89.6617386 207.52108,89.5049543 L217.461989,89.5049543 Z M230.99267,75.3391006 L230.247102,78.9358994 L234.209659,78.9358994 L234.955227,75.3391006 L230.99267,75.3391006 Z M229.832898,80.9279726 L226.767784,95.6195122 L230.730341,95.6195122 L233.795455,80.9279726 L229.832898,80.9279726 Z M234.113011,91.5108613 C234.527218,92.9219202 235.311898,94.0170883 236.467074,94.7963986 C237.62225,95.5757089 239.258342,95.9653582 241.375398,95.9653582 C243.501658,95.9653582 245.149256,95.4535112 246.318239,94.4298018 C247.487222,93.4060924 248.071705,92.197949 248.071705,90.8053354 C248.071705,89.7262903 247.611482,88.8040435 246.691023,88.0385671 C246.037497,87.4944333 244.744271,86.9410851 242.811307,86.3785061 C241.559482,86.0096018 240.818524,85.7513727 240.588409,85.603811 C240.220225,85.3640232 240.036136,85.0596817 240.036136,84.6907774 C240.036136,84.3310958 240.217924,84.0129206 240.581506,83.7362424 C240.945087,83.4595642 241.541075,83.3212271 242.369489,83.3212271 C243.197902,83.3212271 243.906645,83.5010653 244.495739,83.860747 C244.928354,84.1282026 245.241306,84.5293799 245.434602,85.0642912 L249.093409,84.4279345 C248.835681,83.2474407 248.223584,82.3113602 247.257102,81.6196646 C246.29062,80.9279691 244.86393,80.5821265 242.976989,80.5821265 C240.602204,80.5821265 238.811938,81.1677533 237.606136,82.3390244 C236.740905,83.1782816 236.308295,84.1789195 236.308295,85.340968 C236.308295,86.5030165 236.754711,87.4437083 237.647557,88.1630716 C238.218241,88.624202 239.700158,89.2513299 242.093352,90.0444741 C242.986198,90.3395975 243.533863,90.5886042 243.736364,90.7915015 C243.92966,91.0036215 244.026307,91.2434057 244.026307,91.5108613 C244.026307,91.9074334 243.837616,92.2440535 243.460227,92.5207317 C242.917156,92.9265264 242.194607,93.1294207 241.292557,93.1294207 C240.418121,93.1294207 239.727787,92.9611107 239.221534,92.6244855 C238.715282,92.2878604 238.291877,91.7137617 237.951307,90.9021723 L234.113011,91.5108613 Z" id="Combined-Shape"></path>
            <path d="M242,41.9643564 C242,47.8812177 243.323456,52.3663214 245.970407,55.419802 C248.617358,58.4732826 251.977785,60 256.051788,60 C260.125791,60 263.468955,58.4851637 266.081381,55.4554455 C268.693807,52.4257274 270,47.8812184 270,41.8217822 C270,35.8336334 268.728332,31.3663514 266.184957,28.419802 C263.641582,25.4732526 260.263893,24 256.051788,24 C251.839683,24 248.444731,25.4910742 245.866831,28.4732673 C243.288931,31.4554605 242,35.9524452 242,41.9643564 Z" id="Path"></path>
            <path d="M103,87.004451 C103,86.0964346 102.738053,85.3686971 102.214151,84.8212166 C101.690249,84.2737361 101.01447,84 100.186792,84 C99.3679204,84 98.6415126,84.2559322 98.0075472,84.7678042 C97.3735817,85.2796761 96.8805049,86.0229922 96.5283019,86.9977745 C96.1760989,87.9725568 96,88.8694321 96,89.6884273 C96,90.7032692 96.2729532,91.5088991 96.8188679,92.1053412 C97.3647826,92.7017834 98.0515682,93 98.8792453,93 C99.9182442,93 100.789934,92.5504496 101.49434,91.6513353 C102.498118,90.3783319 103,88.829386 103,87.004451 Z" id="Path"></path>
            <path d="M171,89 C170.782243,89.0612025 170.493302,89.1180325 170.133166,89.1704918 C168.324112,89.3978153 167.143219,89.7300525 166.590452,90.1672131 C166.196815,90.4819688 166,90.9060083 166,91.4393443 C166,91.8765049 166.150752,92.2459001 166.452261,92.547541 C166.75377,92.8491818 167.151589,93 167.645729,93 C168.19012,93 168.703096,92.8622965 169.184673,92.5868852 C169.66625,92.311474 170.026381,91.9573792 170.265075,91.5245902 C170.50377,91.0918011 170.715242,90.416398 170.899497,89.4983607 L171,89 Z" id="Path"></path>
            <path d="M213.986667,87 C213.995556,86.8088041 214,86.6628936 214,86.5622642 C214,85.3748368 213.764447,84.4842797 213.293333,83.890566 C212.82222,83.2968524 212.191115,83 211.4,83 C210.608885,83 209.900003,83.3371035 209.273333,84.0113208 C208.646664,84.685538 208.222223,85.6817544 208,87 L213.986667,87 Z" id="Path"></path>
            <path d="M187.917288,152.084393 C188.382048,157.457511 186.888199,162.399379 183.435696,166.910145 C181.510261,169.430867 177.725844,172.979725 172.082329,177.556826 C166.770786,181.868587 163.218745,185.417446 161.426099,188.203507 C160.098214,190.32622 158.969528,191.28806 158.040008,191.089056 C155.782602,190.624712 152.496134,187.805526 148.180505,182.631412 C147.981323,182.366073 147.881733,182.034404 147.881733,181.636395 C147.881733,180.442369 148.412879,179.14886 149.475188,177.755829 C150.803073,176.031125 154.670483,172.449099 161.077531,167.009646 C167.48458,161.570193 171.849939,157.391164 174.173739,154.472433 C177.891819,149.828998 178.754932,146.180639 176.763103,143.527247 C175.6344,142.001547 173.775388,141.238708 171.186011,141.238708 C166.604805,141.238708 160.662606,143.328223 153.359234,147.507315 C153.226445,147.57365 153.027265,147.606816 152.761688,147.606816 C151.765774,147.606816 150.271925,146.512309 148.280096,144.323261 C146.686633,142.532221 145.358768,140.741209 144.296459,138.950169 C143.765305,138.087817 143.947886,137.09281 144.844209,135.965118 C145.740532,134.837427 148.346469,133.444417 152.662097,131.786047 C157.708063,129.928673 162.38879,129 166.704419,129 C170.422499,129 173.509787,129.729672 175.966376,131.189037 C183.070564,135.434464 187.054162,142.399513 187.917288,152.084393 Z M165.70851,206.01431 C165.841298,206.279649 165.907691,206.544984 165.907691,206.810323 C165.907691,207.341002 165.476135,208.05409 164.613009,208.94961 C163.749884,209.845129 163.218737,210.591385 163.019554,211.188398 C162.554794,212.515094 162.090041,213.874936 161.625281,215.267967 C160.894944,217.324346 159.965438,218.219852 158.836735,217.954513 C156.048175,217.3575 152.396544,214.737315 147.881733,210.093879 C147.549761,209.762205 147.450171,209.430536 147.58296,209.098862 L147.981324,208.302849 C148.446084,207.108822 148.944033,205.914814 149.475188,204.720788 C150.072736,203.128753 150.338309,201.702576 150.271915,200.442215 C150.205521,199.579863 150.620479,198.866774 151.516802,198.302929 C152.413125,197.739083 153.392426,197.457164 154.454734,197.457164 C155.981803,197.457164 158.106388,198.568255 160.828554,200.790471 C163.55072,203.012686 165.177355,204.753949 165.70851,206.01431 Z" id="?"></path>
        </g>
    </g>
</svg>