<?xml version="1.0" encoding="utf-8"?>
<!-- Generator: Adobe Illustrator 22.1.0, SVG Export Plug-In . SVG Version: 6.00 Build 0)  -->
<svg version="1.1" id="Layer_1" xmlns="http://www.w3.org/2000/svg" xmlns:xlink="http://www.w3.org/1999/xlink" x="0px" y="0px"
	 viewBox="0 0 52 52" style="enable-background:new 0 0 52 52;" xml:space="preserve">
<g>
	<g>
		<path d="M50,24h-6.9l8.7-19.2c0.5-1,0-2.2-1-2.6c-1-0.5-2.2,0-2.6,1L38.7,24h-2.4L40,2.3c0.2-1.1-0.6-2.1-1.6-2.3
			c-1.1-0.2-2.1,0.6-2.3,1.6L32.3,24H2c-1.1,0-2,0.9-2,2v2c0,9.9,8.1,18,18,18h16c9.9,0,18-8.1,18-18v-2C52,24.9,51.1,24,50,24z"/>
		<path d="M44,48H8c-1.1,0-2,0.9-2,2s0.9,2,2,2h36c1.1,0,2-0.9,2-2S45.1,48,44,48z"/>
		<path d="M8,22c1.1,0,2-0.9,2-2v-4c0-1.1-0.9-2-2-2s-2,0.9-2,2v4C6,21.1,6.9,22,8,22z"/>
		<path d="M16,22c1.1,0,2-0.9,2-2v-8c0-1.1-0.9-2-2-2s-2,0.9-2,2v8C14,21.1,14.9,22,16,22z"/>
		<path d="M24,22c1.1,0,2-0.9,2-2v-4c0-1.1-0.9-2-2-2s-2,0.9-2,2v4C22,21.1,22.9,22,24,22z"/>
	</g>
</g>
</svg>
