<?xml version="1.0" encoding="utf-8"?>
<!-- Generator: Adobe Illustrator 22.1.0, SVG Export Plug-In . SVG Version: 6.00 Build 0)  -->
<svg version="1.1" id="Layer_1" xmlns="http://www.w3.org/2000/svg" xmlns:xlink="http://www.w3.org/1999/xlink" x="0px" y="0px"
	 viewBox="0 0 79.1 90" style="enable-background:new 0 0 79.1 90;" xml:space="preserve">
<path d="M23.3,21c0,0,1.4-2.7-2.6-8S18.5,1.7,25.1,0c0,0.3-3.1,5.6,0,9.4S29.1,17.8,23.3,21z"/>
<path d="M34.6,21c0,0,1.1-2.1-2-6.2C29.4,10.6,30.9,6,36,4.6c0,0.2-2.4,4.4,0,7.3C38.4,14.9,39.1,18.5,34.6,21z"/>
<path d="M70.7,33.1c-5.4-3.4-10.8-2.4-15.1-0.4v-2.9c0-2.5-2.1-4.6-4.6-4.6H4.6c-2.5,0-4.6,2.1-4.6,4.6v9.9v0.9v39.1
	c0,4.9,0.4,5.4,1.7,6.2c0.8,0.5,1.7,0.9,1.7,2.1S6.1,90,9.5,90h36.7c3.4,0,6.2-0.9,6.2-2.1c0-1.1,0.8-1.8,1.6-2.1
	c1.5-0.4,1.6-1.7,1.6-6.2v-0.6c1.7,0.7,3.5,1.2,5.6,1.2c1.9,0,4.1-0.4,6.3-1.3c6.4-2.6,10.5-10.1,11.4-20.5
	C79.7,48.9,77.5,37.3,70.7,33.1z M71.2,57.9c-0.6,7.2-3.1,12.5-6.6,14c-4.7,1.9-7.5-0.3-9-2.2v-28c2.8-2.1,7.2-4.3,11-2
	C69.4,41.4,72,48.8,71.2,57.9z"/>
</svg>
