<?xml version="1.0" encoding="UTF-8"?>
<svg width="90px" height="115px" viewBox="0 0 90 115" version="1.1" xmlns="http://www.w3.org/2000/svg" xmlns:xlink="http://www.w3.org/1999/xlink">
    <!-- Generator: Sketch 51.1 (57501) - http://www.bohemiancoding.com/sketch -->
    <title>pin pal</title>
    <desc>Created with Sketch.</desc>
    <defs></defs>
    <g id="Page-1" stroke="none" stroke-width="1" fill="none" fill-rule="evenodd">
        <g id="pin-pal" fill="#000000" fill-rule="nonzero">
            <g id="noun_Pin_156748" transform="translate(0.000000, 54.000000)">
                <path d="M36.808,49.630075 C26.251,45.8574269 20.567,42.8771966 17.68,41.0682662 C19.111,40.0170997 20.065,38.1735154 20.065,36.0758029 C20.065,36.0515452 20.059,36.0307529 20.059,36.0076504 C19.037,35.7281094 18.04,35.4347069 17.074,35.1228223 C17.174,35.4185351 17.234,35.7385055 17.234,36.0746478 C17.234,37.5370398 16.206,38.7233563 14.942,38.7233563 C13.678,38.7233563 12.651,37.5370398 12.652,36.0746478 C12.651,35.1748031 13.043,34.380075 13.638,33.901852 C12.642,33.5114187 11.687,33.1013483 10.772,32.675106 C10.18,33.6384828 9.822,34.8074724 9.822,36.0746478 C9.822,38.6332563 11.237,40.8106726 13.207,41.635434 C14.159,42.59188 18.931,46.6648614 35.972,52.7535411 L59.054,61 L62.948,60.6823398 L59.89,57.877689 L36.808,49.630075 Z M75.644,34.1756173 C75.87,34.7578018 75.999,35.3965876 75.999,36.0758029 C75.999,38.6540486 74.19,40.7459855 71.957,40.7459855 L61.999,40.7459855 C55.226,40.7459855 55.377,44.9494963 55.377,45.5721103 L71.955,45.5721103 C76.496,45.5721103 80.179,41.3212392 80.179,36.0734927 C80.179,34.8144031 79.962,33.6165354 79.576,32.5156984 C78.343,33.1036585 77.028,33.6569649 75.644,34.1756173 Z M64.239,37.3210309 C65.846,37.8743372 67.641,38.0198834 69.799,38.0198834 L70.418,35.8725004 C68.457,36.4200311 66.394,36.9051848 64.239,37.3210309 Z M45,0 C20.607,0 0,8.44514089 0,18.4416187 C0,28.4380965 20.607,36.8832374 45,36.8832374 C69.393,36.8832374 90,28.4380965 90,18.4416187 C90,8.44514089 69.393,0 45,0 Z M74.975,9.68343812 C75.155,9.11511513 75.7,8.81940236 76.192,9.02732541 C77.756,9.68343812 79.154,10.3926867 80.344,11.1388994 C80.804,11.4253712 80.976,12.0930351 80.725,12.6232389 C80.554,12.9905696 80.228,13.2008029 79.89,13.2008029 C79.737,13.2008029 79.581,13.1580632 79.439,13.0679632 C78.331,12.3725761 77.021,11.7095326 75.544,11.0892289 C75.051,10.8813059 74.795,10.2540714 74.975,9.68343812 Z M5.591,19.8219967 C5.066,19.8219967 4.641,19.3322224 4.641,18.7257802 C4.641,17.5729624 4.972,16.4363165 5.626,15.3504961 C5.926,14.8514808 6.518,14.7301924 6.947,15.0755757 C7.379,15.4232692 7.485,16.107105 7.185,16.6026549 C6.756,17.3130586 6.539,18.0280829 6.539,18.7257802 C6.54,19.3322224 6.115,19.8219967 5.591,19.8219967 Z M45,32.9142175 C27.881,32.9142175 13.014,29.3471822 7.124,23.8268255 C6.718,23.4456332 6.655,22.7548667 6.985,22.2858847 C7.315,21.8145925 7.913,21.7395092 8.321,22.1230117 C13.806,27.2644864 28.547,30.7183192 45,30.7183192 C67.784,30.7183192 83.661,24.2472921 83.661,18.4404636 C83.661,17.3511779 83.116,16.2318588 82.043,15.1171603 C81.653,14.7105552 81.62,14.0186335 81.971,13.5669785 C82.324,13.1176337 82.925,13.0795145 83.313,13.4861195 C84.805,15.0339911 85.561,16.7008408 85.561,18.4404636 C85.561,27.5024428 64.938,32.9142175 45,32.9142175 Z" id="Shape"></path>
            </g>
            <g id="g216" transform="translate(17.132112, 39.833276) rotate(-20.000000) translate(-17.132112, -39.833276) translate(3.632112, 26.833276)">
                <path d="M26.9549477,7.75294239 C26.5608328,3.2596132 23.4904752,0.00053780122 19.648504,0.00053780122 C17.0885745,0.00053780122 14.7441361,1.42732444 13.4252272,3.71405523 C12.1187805,1.39828317 9.87092353,0 7.351496,0 C3.5095248,0 0.439167214,3.2590754 0.0450523139,7.75240459 C0.0138969858,7.95085324 -0.113839859,8.99472541 0.274563231,10.6979419 C0.834320625,13.1551557 2.127786,15.3891819 4.0132026,17.1585479 L13.4195154,26 L22.9873167,17.1596235 C24.872214,15.3897197 26.1656794,13.1556935 26.7254368,10.6984797 C27.1138399,8.99580101 26.986103,7.95139104 26.9549477,7.75294239" id="Fill-187"></path>
            </g>
            <g id="g216" transform="translate(41.342481, 25.487573) scale(-1, 1) rotate(-20.000000) translate(-41.342481, -25.487573) translate(31.842481, 15.987573)">
                <path d="M18.8436008,5.38365499 C18.5680839,2.26348036 16.4216656,0.000373449985 13.7358295,0.000373449985 C11.9462401,0.000373449985 10.3072957,0.991136261 9.38527596,2.5790456 C8.47196826,0.970969962 6.90054178,0 5.13926637,0 C2.45343026,0 0.307011973,2.26310691 0.0314950646,5.38328154 C0.00971507184,5.52108458 -0.0795828985,6.24595101 0.191941011,7.42866711 C0.583254881,9.13496009 1.48748758,10.6862713 2.80554014,11.9149218 L9.38128296,18.0544395 L16.0699187,11.9156687 C17.3876083,10.6866448 18.291841,9.13533354 18.6831549,7.42904056 C18.9546788,6.24669791 18.8653808,5.52145803 18.8436008,5.38365499" id="Fill-187"></path>
            </g>
            <g id="g216" transform="translate(51.302415, 8.302415) scale(-1, 1) rotate(12.000000) translate(-51.302415, -8.302415) translate(44.302415, 1.302415)">
                <path d="M13.6042429,3.8867598 C13.4053319,1.63413229 11.8557132,0.000269614303 9.91665885,0.000269614303 C8.62465478,0.000269614303 7.44140968,0.715556361 6.77575241,1.86195638 C6.11638482,0.700997188 4.98188469,0 3.71032207,0 C1.77126768,0 0.221649009,1.63386268 0.0227380378,3.88649018 C0.00701385039,3.98597786 -0.0574553182,4.50929922 0.138572885,5.36316772 C0.42108412,6.59503547 1.07389997,7.71501329 2.02547538,8.60204434 L6.77286964,13.0345035 L11.6017676,8.60258357 C12.553081,7.7152829 13.2058968,6.59530509 13.488408,5.36343733 C13.6844362,4.50983845 13.6199671,3.98624747 13.6042429,3.8867598" id="Fill-187"></path>
            </g>
        </g>
    </g>
</svg>