<svg id="Layer_1" data-name="Layer 1" xmlns="http://www.w3.org/2000/svg" viewBox="0 0 64.94 97.8"><defs><style>.cls-1{fill:#b8b8b8;}</style></defs><title>soda_grey</title><path class="cls-1" d="M62.7,2.6a8.1,8.1,0,0,0-6-2.6H8.3a8.1,8.1,0,0,0-6,2.6A8.2,8.2,0,0,0,0,8.7L4.1,89.9a8.34,8.34,0,0,0,8.3,7.9H52.2A8.25,8.25,0,0,0,60.5,90L64.9,8.8A8,8,0,0,0,62.7,2.6ZM10.7,94a4.94,4.94,0,0,1-3.1-4.3l-.1-2.5h5.6Zm2.5-20.1a.9.9,0,1,1,.9-.9C14.2,73.4,13.7,73.9,13.2,73.9Zm1,20.5,2-5.7,5.7,5.7Zm0-58.9a1.1,1.1,0,1,1,1.1,1.1A1.11,1.11,0,0,1,14.2,35.5Zm7.9,28.7a3.3,3.3,0,1,1-3.3,3.3A3.2,3.2,0,0,1,22.1,64.2ZM20.6,58a1.5,1.5,0,1,1,1.5,1.5A1.54,1.54,0,0,1,20.6,58ZM19.5,79.5a1.3,1.3,0,1,1-1.3-1.3A1.26,1.26,0,0,1,19.5,79.5Zm0,7.7H29.6L26,93.7Zm10.1,7.2L32.5,89l3.1,5.4Zm5.8-7.2h9.3l-5.9,5.9Zm4.7-42.7a3.4,3.4,0,1,1,3.4-3.4A3.37,3.37,0,0,1,40.1,44.5Zm3.2,24a1.6,1.6,0,1,1-1.6-1.6A1.58,1.58,0,0,1,43.3,68.5ZM37.1,29.7a1.5,1.5,0,1,1,1.5-1.5A1.54,1.54,0,0,1,37.1,29.7Zm5.4,64.7,5.7-5.7,2,5.7Zm7.7-40.8a.9.9,0,1,1,.9-.9A.9.9,0,0,1,50.2,53.6Zm6.9,36.1a4.84,4.84,0,0,1-3.4,4.4l-2.4-6.9h6ZM51.5,35a1.4,1.4,0,1,1,1.4,1.4A1.37,1.37,0,0,1,51.5,35Zm8.9-5.9c-8.9-.5-14-3.4-19.4-6.5a50.33,50.33,0,0,0-11.9-5.4c-9.5-2.6-20.3,1.5-25,3.8L3.4,8.6A4.88,4.88,0,0,1,4.7,5,4.69,4.69,0,0,1,8.2,3.5H56.6A4.54,4.54,0,0,1,60.1,5a4.88,4.88,0,0,1,1.3,3.6Z" transform="translate(0.01)"/></svg>