<?xml version="1.0" encoding="UTF-8"?>
<svg viewBox="0 0 333 333" version="1.1" xmlns="http://www.w3.org/2000/svg" xmlns:xlink="http://www.w3.org/1999/xlink">
    <!-- Generator: Sketch 50.2 (55047) - http://www.bohemiancoding.com/sketch -->
    <title>andys copy</title>
    <desc>Created with Sketch.</desc>
    <defs></defs>
    <g id="andys-copy" stroke="none" stroke-width="1" fill="none" fill-rule="evenodd">
        <path d="M62.9891566,252.961446 C62.186747,252.078795 60.8226506,249.832048 59.859759,247.986506 C58.8968675,246.060723 57.3722892,244.215181 56.3291566,243.733735 C55.3662651,243.33253 54.5638554,242.44988 54.5638554,241.888193 C54.5638554,241.326506 53.7614458,240.604337 52.7183133,240.203133 C51.6751807,239.801928 50.3913253,238.919277 49.8296386,238.197108 C49.2679518,237.47494 48.1445783,236.913253 47.4224096,236.913253 C45.6571084,236.913253 38.1144578,233.141928 36.9108434,231.69759 C36.3491566,231.055663 34.5838554,230.493976 32.9790361,230.493976 C31.3742169,230.493976 29.1274699,230.092771 28.0040964,229.531084 C24.313012,227.765783 20.6219277,216.853012 23.5106024,215.80988 C24.313012,215.569157 24.313012,215.087711 23.5106024,213.723614 C22.9489157,212.840964 22.4674699,211.396627 22.4674699,210.594217 C22.4674699,209.791807 22.146506,208.828916 21.7453012,208.427711 C21.3440964,207.946265 20.8626506,206.742651 20.7021687,205.619277 C20.5416867,204.094699 19.899759,203.533012 18.2949398,203.37253 C16.2086747,203.131807 16.0481928,202.810843 16.0481928,199.520964 C16.0481928,196.873012 15.7272289,195.82988 14.6840964,195.428675 C11.5546988,194.385542 9.62891566,191.73759 9.62891566,188.768675 C9.62891566,185.07759 11.7151807,180.744578 13.4804819,180.744578 C14.3631325,180.744578 13.32,179.300241 10.5918072,176.491807 C6.74024096,172.640241 6.41927711,171.998313 6.41927711,168.467711 C6.41927711,166.220964 7.06120482,163.653253 8.02409639,161.887952 C8.90674699,160.363373 9.30795181,158.999277 8.98698795,158.999277 C8.6660241,158.919036 7.70313253,158.838795 6.82048193,158.758554 C5.69710843,158.678313 5.13542169,158.036386 4.97493976,156.592048 C4.81445783,155.388434 4.01204819,153.783614 3.12939759,152.981205 C2.32698795,152.259036 1.60481928,150.814699 1.60481928,149.771566 C1.60481928,148.728434 1.20361446,147.685301 0.802409639,147.444578 C0.320963855,147.203855 -1.42108547e-14,145.438554 -1.42108547e-14,143.512771 C-1.42108547e-14,140.94506 0.481445783,139.661205 1.84554217,138.377349 C2.8886747,137.414458 4.09228916,136.612048 4.57373494,136.612048 C6.09831325,136.612048 8.02409639,133.723373 8.02409639,131.316145 C8.02409639,128.587952 10.6720482,126.983133 15.3260241,126.983133 C17.0110843,126.983133 18.6159036,126.662169 18.8566265,126.180723 C19.0973494,125.779518 20.7824096,125.378313 22.5477108,125.378313 C25.6771084,125.378313 25.6771084,125.378313 25.6771084,122.329157 C25.6771084,120.242892 26.2387952,118.718313 27.2819277,117.755422 C28.1645783,116.953012 28.886747,115.90988 28.886747,115.348193 C28.886747,113.342169 32.5778313,110.93494 35.7874699,110.93494 C37.5527711,110.93494 39.3180723,110.613976 39.7192771,110.212771 C40.2007229,109.811566 41.4043373,109.33012 42.5277108,109.169639 C44.293012,108.928916 44.5337349,108.44747 44.7744578,105.318072 C44.9349398,103.312048 45.5768675,101.065301 46.2990361,100.343133 C48.0643373,98.3371084 51.3542169,91.6771084 51.3542169,89.9118072 C51.3542169,89.1093976 51.8356627,88.4674699 52.3973494,88.4674699 C53.6812048,88.4674699 57.2920482,84.6159036 58.0944578,82.6098795 C58.3351807,81.7272289 59.2980723,80.9248193 60.2609639,80.6840964 C61.1436145,80.4433735 62.266988,79.400241 62.5879518,78.3571084 C62.9891566,77.3139759 64.8346988,75.7893976 66.7604819,74.906747 C68.6862651,74.1043373 71.093494,72.4192771 72.1366265,71.2959036 C73.7414458,69.5306024 74.7845783,69.2096386 78.3151807,69.2096386 C80.6421687,69.2096386 82.8086747,68.8886747 83.0493976,68.4072289 C83.2901205,67.9257831 85.1356627,67.6048193 87.0614458,67.6048193 C88.9872289,67.6048193 90.8327711,67.2838554 91.073494,66.8024096 C91.3944578,66.3209639 95.9681928,66 102.226988,66 L112.818795,66 L115.145783,68.4072289 C116.429639,69.6910843 117.873976,70.8144578 118.355422,70.8144578 C119.478795,70.8144578 126.780723,78.1966265 126.780723,79.400241 C126.780723,79.8816867 127.34241,80.6840964 127.984337,81.2457831 C128.706506,81.8074699 129.82988,83.5727711 130.552048,85.1775904 C131.274217,86.7824096 132.39759,88.7081928 133.039518,89.4303614 C135.286265,92.1585542 146.038554,114.545783 146.038554,116.712289 C146.038554,117.915904 146.439759,119.119518 146.840964,119.360241 C147.32241,119.600964 147.643373,121.205783 147.643373,122.890843 C147.643373,126.581928 149.087711,129.711325 151.173976,130.674217 C152.136867,131.075422 153.260241,132.198795 153.741687,133.161687 C154.223133,134.204819 155.105783,135.649157 155.747711,136.371325 C158.15494,139.420482 158.877108,141.586988 158.877108,145.839759 C158.877108,149.29012 159.198072,150.413494 160.241205,150.814699 C162.808916,151.857831 164.493976,154.26506 164.493976,157.073494 C164.493976,158.999277 164.092771,159.881928 163.290361,159.881928 C161.284337,159.881928 161.926265,162.128675 164.895181,165.418554 C168.907229,169.912048 168.425783,174.325301 163.932289,174.325301 C161.846024,174.325301 161.444819,175.769639 163.290361,176.411566 C163.932289,176.73253 164.493976,177.53494 164.493976,178.337349 C164.493976,179.22 164.895181,180.102651 165.296386,180.343373 C166.660482,181.226024 166.179036,188.126747 164.333494,194.144819 L162.487952,200.00241 L158.15494,200.00241 L153.902169,200.00241 L154.303373,202.329398 C154.624337,203.853976 154.383614,204.977349 153.661446,205.619277 C153.019518,206.180964 152.457831,207.464819 152.457831,208.507952 C152.457831,209.952289 151.735663,210.754699 149.248193,211.797831 C145.637349,213.402651 145.316386,214.044578 147.643373,214.686506 C149.328434,215.087711 149.970361,219.019518 148.526024,220.544096 C148.124819,220.945301 147.643373,222.55012 147.482892,224.074699 L147.242169,226.883133 L141.224096,227.123855 C136.088675,227.364578 134.88506,227.685542 133.119759,229.370602 C130.552048,231.777831 123.892048,235.308434 121.805783,235.308434 C120.200964,235.308434 119.960241,236.191084 121.244096,237.47494 C121.725542,237.956386 121.966265,239.320482 121.805783,240.604337 C121.56506,242.931325 121.484819,242.931325 115.546988,243.172048 C112.257108,243.33253 109.207952,243.733735 108.806747,244.13494 C108.325301,244.616386 107.201928,244.937349 106.239036,244.937349 C105.195904,244.937349 104.152771,245.338554 103.912048,245.739759 C103.671325,246.221205 102.628193,246.542169 101.58506,246.542169 C99.3383133,246.542169 97.8939759,247.986506 97.8939759,250.153012 C97.8939759,253.362651 95.486747,254.566265 89.2279518,254.566265 C85.1356627,254.566265 83.4506024,254.245301 83.4506024,253.603373 C83.4506024,253.041687 82.8889157,251.838072 82.246988,251.035663 C81.2840964,249.751807 80.8026506,249.671566 80.0804819,250.393735 C79.5187952,250.955422 77.593012,251.356627 75.8277108,251.356627 C73.5007229,251.356627 72.0563855,251.838072 71.013253,252.961446 C69.0874699,255.047711 64.9149398,255.047711 62.9891566,252.961446 Z M99.0975904,224.877108 C99.3383133,224.475904 100.782651,224.074699 102.226988,224.074699 C103.751566,224.074699 105.356386,223.513012 105.918072,222.871084 C107.041446,221.506988 117.873976,216.050602 119.559036,216.050602 C120.120723,216.050602 121.645301,215.087711 122.848916,213.964337 C124.05253,212.760723 125.898072,211.396627 126.941205,210.915181 C127.984337,210.433735 129.589157,208.427711 130.471807,206.582169 C132.718554,202.088675 134.724578,200.00241 136.650361,200.00241 C139.699518,200.00241 141.224096,197.675422 141.224096,193.101687 C141.224096,190.774699 141.625301,188.608193 142.026506,188.36747 C142.507952,188.126747 142.828916,186.68241 142.828916,185.157831 C142.828916,183.633253 143.23012,182.188916 143.631325,181.948193 C144.112771,181.70747 144.433735,177.775663 144.433735,173.121687 C144.433735,168.467711 144.754699,164.535904 145.236145,164.295181 C147.161928,163.091566 145.316386,157.795663 143.14988,158.43759 C142.748675,158.517831 141.54506,158.116627 140.582169,157.55494 C139.539036,156.993253 136.971325,156.672289 134.965301,156.75253 C132.879036,156.913012 130.311325,156.511807 129.268193,155.95012 C128.144819,155.308193 126.138795,155.06747 124.453735,155.308193 C122.608193,155.548916 120.923133,155.227952 119.960241,154.586024 C118.034458,153.141687 115.546988,153.221928 113.621205,154.666265 C112.818795,155.308193 111.775663,155.629157 111.374458,155.388434 C110.973253,155.147711 110.090602,155.388434 109.448675,155.95012 C108.726506,156.511807 107.121687,156.913012 105.75759,156.832771 C103.912048,156.672289 103.27012,156.993253 102.949157,158.277108 C102.708434,159.159759 102.146747,159.962169 101.58506,159.962169 C99.7395181,160.202892 99.0173494,160.363373 96.9310843,161.486747 C95.0053012,162.369398 94.5238554,162.369398 93.24,161.246024 C90.913012,159.159759 84.253012,159.480723 80.000241,161.887952 C77.9942169,162.931084 76.2289157,163.653253 75.9881928,163.332289 C75.6672289,163.091566 74.9450602,163.332289 74.2228916,163.893976 C73.4204819,164.535904 70.6120482,164.856867 65.7975904,164.776627 C58.8166265,164.616145 58.5759036,164.696386 57.8537349,166.541928 C57.4525301,167.58506 56.0884337,169.27012 54.8848193,170.233012 L52.7183133,171.998313 L55.2057831,174.566024 C57.693253,177.053494 57.773494,177.53494 57.773494,183.713494 C57.773494,188.447711 58.0944578,190.453735 58.9771084,191.175904 C60.9028916,192.780723 62.5879518,196.873012 62.5879518,200.00241 C62.5879518,203.853976 63.7113253,204.816867 68.6060241,204.816867 C72.2971084,204.816867 73.0192771,205.137831 75.8277108,208.026506 C77.5127711,209.791807 79.3583133,211.236145 79.839759,211.236145 C80.3212048,211.236145 82.4877108,213.081687 84.6542169,215.248193 C86.9009639,217.575181 89.3081928,219.260241 90.2710843,219.260241 C92.0363855,219.260241 96.2891566,223.111807 96.2891566,224.716627 C96.2891566,225.920241 98.3754217,226.000482 99.0975904,224.877108 Z M59.4585542,151.697349 C60.9831325,150.654217 63.7915663,149.129639 65.6371084,148.327229 C68.2048193,147.203855 69.0072289,146.321205 69.0072289,144.957108 C69.0072289,143.913976 69.4084337,142.870843 69.8096386,142.63012 C70.2910843,142.389398 70.6120482,140.543855 70.6120482,138.537831 C70.6120482,135.007229 70.6120482,135.007229 73.340241,135.007229 C74.8648193,135.007229 76.3893976,134.686265 76.6301205,134.204819 C76.8708434,133.803614 78.7163855,133.40241 80.6421687,133.40241 C82.5679518,133.40241 84.413494,133.081446 84.6542169,132.6 C84.8949398,132.198795 86.7404819,131.79759 88.6662651,131.79759 C91.7154217,131.79759 92.2771084,131.476627 93.320241,129.470602 C94.4436145,127.143614 94.4436145,127.063373 90.5920482,123.292048 C88.4255422,121.125542 86.660241,119.119518 86.660241,118.718313 C86.660241,116.391325 81.0433735,114.626024 79.839759,116.551807 C78.8768675,118.076386 77.1918072,117.354217 76.0684337,114.946988 C75.506747,113.663133 74.7845783,112.539759 74.4636145,112.539759 C73.0995181,112.539759 73.9019277,107.885783 75.426506,106.521687 C76.3091566,105.719277 77.0313253,104.194699 77.0313253,103.151566 C77.0313253,102.108434 77.5127711,101.306024 78.0744578,101.306024 C78.7163855,101.306024 79.839759,100.583855 80.6421687,99.7012048 C81.7655422,98.4975904 83.1296386,98.0963855 86.3392771,98.0963855 C88.6662651,98.0963855 90.8327711,97.7754217 91.073494,97.2939759 C91.3944578,96.8125301 97.3322892,96.4915663 106.319277,96.4915663 C115.306265,96.4915663 121.244096,96.8125301 121.56506,97.2939759 C121.805783,97.7754217 122.688434,98.0963855 123.490843,98.0963855 C127.583133,98.0963855 130.953253,101.78747 129.669398,104.916867 C129.02747,106.76241 126.620241,106.361205 121.56506,103.713253 C117.232048,101.386265 116.50988,101.306024 107.201928,101.306024 C96.2891566,101.306024 93.0795181,102.188675 93.0795181,105.15759 C93.0795181,107.324096 94.7645783,109.33012 96.6101205,109.33012 C97.3322892,109.33012 97.8939759,109.731325 97.8939759,110.13253 C97.8939759,110.613976 98.6161446,110.93494 99.4987952,110.93494 C100.381446,110.93494 101.103614,111.336145 101.103614,111.737349 C101.103614,112.218795 102.547952,112.539759 104.313253,112.539759 C106.078554,112.539759 107.522892,112.940964 107.522892,113.342169 C107.522892,113.823614 108.084578,114.144578 108.726506,114.144578 C110.572048,114.144578 110.170843,115.187711 107.442651,117.835663 C105.436627,119.761446 103.831807,122.409398 101.264096,128.026265 C101.103614,128.347229 101.58506,128.587952 102.38747,128.587952 C104.233012,128.587952 110.73253,134.926988 110.73253,136.692289 C110.73253,138.618072 112.818795,142.469639 115.145783,144.636145 C117.071566,146.481687 117.151807,146.481687 118.756627,145.037349 C119.719518,144.154699 120.361446,142.54988 120.361446,141.025301 C120.361446,139.500723 121.003373,137.895904 121.966265,137.013253 C122.848916,136.210843 123.571084,135.167711 123.571084,134.606024 C123.571084,134.124578 124.373494,132.920964 125.416627,131.958072 C126.860964,130.593976 128.385542,130.192771 133.2,130.032289 L139.218072,129.791566 L139.458795,125.057349 C139.619277,122.489639 139.298313,119.921928 138.897108,119.520723 C138.415663,119.039277 138.014458,117.835663 138.014458,116.872771 C138.014458,115.829639 137.693494,114.786506 137.212048,114.545783 C136.810843,114.30506 136.409639,113.181687 136.409639,112.138554 C136.409639,111.095422 136.088675,109.972048 135.607229,109.731325 C135.206024,109.490602 134.804819,108.607952 134.804819,107.805542 C134.804819,106.280964 128.385542,93.1214458 126.620241,91.0351807 C125.978313,90.313012 124.85494,88.3872289 124.132771,86.8626506 C122.848916,84.0542169 112.658313,73.6228916 109.368434,71.7773494 C107.201928,70.6539759 95.3262651,70.493494 94.2028916,71.6168675 C93.8016867,72.0180723 90.7525301,72.4192771 87.4626506,72.579759 C82.166747,72.8204819 81.3643373,73.0612048 80.5619277,74.6660241 C80.0804819,75.7091566 78.7163855,77.4744578 77.673253,78.6780723 C76.5498795,79.8816867 74.7043373,82.9308434 73.5007229,85.4985542 C72.0563855,88.4674699 70.7725301,90.0722892 69.8898795,90.0722892 C68.0443373,90.0722892 64.1927711,91.9178313 64.1927711,92.8004819 C64.1927711,93.9238554 60.020241,98.0963855 58.9771084,98.0963855 C57.9339759,98.0963855 47.3421687,109.009157 45.8978313,111.496627 C45.4163855,112.539759 44.9349398,114.144578 44.9349398,115.187711 C44.9349398,117.354217 41.4043373,124.816627 39.6390361,126.260964 C38.7563855,126.983133 38.1946988,126.983133 37.5527711,126.341205 C36.9910843,125.779518 34.1826506,125.378313 31.133494,125.378313 L25.6771084,125.378313 L25.6771084,129.550843 C25.6771084,134.124578 27.2016867,136.612048 30.0903614,136.612048 C30.973012,136.612048 32.1766265,137.013253 32.6580723,137.494699 C33.219759,138.056386 34.3431325,137.815663 36.3491566,136.692289 C41.4043373,133.883855 44.9349398,137.173735 44.9349398,144.716386 C44.9349398,146.802651 45.3361446,148.808675 45.7373494,149.049398 C46.2187952,149.29012 46.539759,150.333253 46.539759,151.376386 C46.539759,152.339277 46.700241,153.38241 46.8607229,153.542892 C47.1014458,153.703373 49.3481928,153.783614 51.9961446,153.703373 C55.446506,153.623133 57.4525301,153.061446 59.4585542,151.697349 Z M99.2580723,151.456627 C100.220964,150.734458 101.344337,150.253012 101.665301,150.333253 C103.912048,150.734458 104.313253,150.012289 104.313253,146.080482 C104.313253,143.352289 103.831807,141.426506 102.949157,140.463614 C102.226988,139.661205 101.264096,138.216867 100.782651,137.173735 C99.980241,135.649157 99.1778313,135.408434 93.9621687,135.167711 C87.8638554,134.926988 84.0122892,136.050361 81.8457831,138.618072 C81.2038554,139.420482 79.839759,139.821687 78.3151807,139.661205 C76.1486747,139.420482 75.8277108,139.741446 75.586988,141.426506 C75.426506,142.54988 74.9450602,143.753494 74.5438554,144.23494 C73.7414458,145.037349 73.5809639,151.296145 74.3833735,152.098554 C74.6240964,152.419518 80.000241,152.660241 86.1787952,152.660241 C95.0053012,152.660241 97.8939759,152.419518 99.2580723,151.456627 Z M142.588193,148.246988 C143.551084,147.60506 144.915181,147.284096 145.637349,147.524819 C147.161928,148.166747 153.260241,146.321205 153.260241,145.278072 C153.260241,144.315181 150.69253,139.661205 148.686506,137.173735 C147.081687,135.08747 146.760723,135.007229 138.656386,135.007229 L130.311325,135.007229 L129.187952,137.815663 C128.546024,139.420482 127.422651,141.266024 126.620241,141.988193 C125.817831,142.710361 125.175904,144.154699 125.175904,145.197831 C125.175904,146.160723 124.85494,147.043373 124.373494,147.043373 C123.972289,147.043373 123.571084,147.60506 123.571084,148.246988 C123.571084,150.012289 140.100723,150.012289 142.588193,148.246988 Z" id="Shape" fill="#B8B8B8" fill-rule="nonzero" transform="translate(83.813135, 160.283133) scale(-1, 1) rotate(-180.000000) translate(-83.813135, -160.283133) "></path>
        <path d="M240.321687,264.99759 C240.080964,264.596386 239.037831,264.195181 238.07494,264.195181 C236.951566,264.195181 234.383855,262.269398 231.093976,258.899277 C228.205301,256.010602 224.594458,253.121928 223.06988,252.399759 C219.940482,250.955422 214.243373,245.900241 214.243373,244.536145 C214.243373,242.851084 208.225301,238.518072 205.978554,238.518072 C204.133012,238.518072 199.8,236.030602 199.8,234.98747 C199.8,234.425783 198.756867,232.981446 197.392771,231.69759 C195.306506,229.691566 194.985542,228.808916 194.985542,225.198072 C194.985542,222.46988 194.584337,220.704578 193.781928,220.062651 C193.059759,219.500964 191.936386,217.815904 191.214217,216.211084 C190.171084,214.044578 190.090843,213.161928 190.813012,211.958313 C192.016627,210.112771 192.096867,206.66241 190.973494,206.020482 C190.572289,205.779759 190.171084,204.656386 190.171084,203.613253 C190.171084,202.57012 189.85012,201.446747 189.368675,201.206024 C188.96747,200.965301 188.566265,198.558072 188.566265,195.990361 C188.566265,193.422651 188.96747,191.015422 189.368675,190.774699 C189.85012,190.533976 190.171084,187.324337 190.171084,183.633253 L190.171084,177.053494 L193.380723,173.924096 C196.189157,171.195904 196.590361,170.313253 196.590361,167.264096 C196.590361,162.048434 198.435904,163.41253 199.158072,169.109639 C199.479036,171.677349 200.120964,174.164819 200.60241,174.646265 C201.083855,175.127711 201.404819,182.108675 201.404819,192.54 C201.404819,204.736627 201.725783,210.193012 202.447952,211.476867 C204.293494,214.766747 205.65759,216.050602 207.503133,216.050602 C208.546265,216.050602 209.589398,216.451807 209.83012,216.853012 C210.070843,217.334458 210.953494,217.655422 211.755904,217.655422 C213.601446,217.655422 217.773976,219.741687 219.057831,221.266265 C219.619518,221.908193 220.903373,222.46988 221.946506,222.46988 C222.909398,222.46988 224.032771,222.871084 224.273494,223.272289 C224.514217,223.753735 226.199277,224.074699 227.884337,224.074699 C229.649639,224.074699 232.29759,224.796867 233.90241,225.679518 C235.507229,226.562169 237.834217,227.284337 239.118072,227.284337 C240.482169,227.284337 241.525301,227.685542 241.525301,228.086747 C241.525301,228.568193 244.975663,228.889157 250.351807,228.889157 C255.727952,228.889157 259.178313,229.21012 259.178313,229.691566 C259.178313,230.173012 260.54241,230.493976 262.22747,230.493976 C264.313735,230.493976 265.59759,230.975422 266.4,232.098795 C267.041928,232.981446 268.325783,233.703614 269.288675,233.703614 C271.294699,233.703614 275.467229,231.69759 276.831325,230.092771 C277.393012,229.450843 278.355904,228.889157 278.91759,228.889157 C279.559518,228.889157 280.040964,228.407711 280.040964,227.846024 C280.040964,226.64241 284.133253,222.46988 285.336867,222.46988 C285.818313,222.46988 287.18241,221.426747 288.466265,220.062651 C289.75012,218.778795 291.194458,217.655422 291.675904,217.655422 C292.799277,217.655422 296.089157,214.20506 296.089157,213.001446 C296.089157,212.52 297.052048,211.637349 298.335904,211.075663 C300.341928,210.112771 300.50241,209.631325 300.743133,204.576145 C300.983855,199.2 300.422169,198.156867 298.496386,200.403614 C297.934699,201.045542 296.650843,201.607229 295.607711,201.607229 C294.404096,201.607229 293.441205,202.329398 292.719036,203.853976 C291.836386,205.619277 291.033976,206.100723 288.466265,206.261205 C285.738072,206.421687 284.855422,206.100723 282.849398,204.014458 C280.682892,201.767711 280.201446,201.607229 274.424096,201.607229 C269.529398,201.607229 267.523373,201.206024 264.393976,199.681446 C258.616627,196.71253 254.363855,192.219036 254.363855,189.089639 C254.363855,187.645301 254.76506,186.200964 255.166265,185.960241 C255.647711,185.719518 255.968675,184.275181 255.968675,182.750602 C255.968675,181.226024 256.36988,179.781687 256.771084,179.540964 C257.25253,179.300241 257.573494,177.855904 257.573494,176.331325 C257.573494,174.806747 257.974699,173.36241 258.375904,173.121687 C258.857349,172.880964 259.178313,171.436627 259.178313,169.992289 C259.178313,168.628193 259.579518,167.023373 260.060964,166.541928 C261.505301,165.09759 257.733976,157.795663 254.925542,156.592048 C253.721928,156.110602 251.796145,154.906988 250.59253,154.024337 C249.469157,153.141687 247.302651,152.339277 245.61759,152.339277 C242.086988,152.259036 241.364819,150.975181 244.093012,149.691325 C248.024819,147.685301 248.345783,146.561928 246.339759,142.389398 C244.333735,138.377349 238.556386,131.79759 237.112048,131.79759 C235.58747,131.79759 231.896386,127.384337 231.896386,125.619036 C231.896386,124.736386 231.334699,123.532771 230.692771,122.971084 C230.050843,122.409398 228.365783,119.681205 227.081928,116.872771 C224.514217,111.496627 221.705783,109.33012 217.372771,109.33012 C215.687711,109.33012 214.885301,108.688193 213.92241,106.76241 C212.478072,103.953976 212.237349,99.219759 213.440964,98.4975904 C213.92241,98.2568675 214.243373,97.2137349 214.243373,96.1706024 C214.243373,94.2448193 216.008675,92.3190361 218.496145,91.4363855 C219.218313,91.1154217 220.181205,90.0722892 220.58241,89.1093976 C221.384819,87.1033735 235.266506,73.3821687 238.07494,71.7773494 C239.118072,71.2959036 240.401928,70.8144578 241.043855,70.8144578 C241.685783,70.8144578 244.253494,69.7713253 246.740964,68.4072289 C250.59253,66.4012048 252.197349,66 257.172289,66 C262.147229,66 263.752048,66.4012048 267.603614,68.4072289 C270.412048,69.8515663 273.380964,70.8144578 275.226506,70.8144578 C276.991807,70.8144578 278.596627,71.2156627 278.837349,71.6168675 C279.078072,72.0983133 280.121205,72.4192771 281.164337,72.4192771 C282.127229,72.4192771 283.972771,73.4624096 285.256627,74.826506 C286.540482,76.1103614 288.225542,77.2337349 289.027952,77.2337349 C291.675904,77.2337349 297.693976,81.4062651 297.693976,83.2518072 C297.693976,83.733253 299.138313,85.5787952 300.903614,87.2638554 C302.668916,88.9489157 304.113253,91.1956627 304.113253,92.0783133 C304.113253,93.0412048 305.236627,94.806506 306.520482,96.0903614 C307.884578,97.3742169 308.927711,98.9790361 308.927711,99.7012048 C308.927711,101.386265 312.699036,108.928916 314.143373,110.13253 C314.785301,110.694217 315.346988,111.978072 315.346988,113.021205 C315.346988,113.984096 315.748193,115.10747 316.149398,115.348193 C316.630843,115.588916 316.951807,116.551807 316.951807,117.354217 C316.951807,118.236867 317.673976,120.162651 318.556627,121.76747 C319.439277,123.372289 320.161446,125.699277 320.161446,126.983133 C320.161446,128.266988 320.562651,129.550843 320.963855,129.791566 C321.445301,130.032289 321.766265,133.482651 321.766265,137.414458 C321.766265,143.111566 322.087229,145.197831 323.371084,147.444578 C324.253735,149.049398 324.975904,150.975181 324.975904,151.857831 C324.975904,152.660241 325.377108,153.623133 325.778313,153.863855 C326.259759,154.104578 326.580723,155.227952 326.580723,156.271084 C326.580723,157.314217 326.981928,158.43759 327.383133,158.678313 C327.864578,158.919036 328.185542,160.04241 328.185542,161.085542 C328.185542,162.128675 328.586747,163.252048 328.987952,163.492771 C329.469398,163.733494 329.790361,165.579036 329.790361,167.504819 C329.790361,169.430602 330.191566,171.276145 330.592771,171.516867 C331.074217,171.75759 331.395181,172.880964 331.395181,173.924096 C331.395181,174.967229 331.796386,176.090602 332.19759,176.331325 C333.561687,177.213976 333.080241,182.991325 331.395181,185.960241 C330.51253,187.56506 329.790361,190.213012 329.790361,191.978313 C329.790361,193.663373 329.469398,195.348434 328.987952,195.589157 C328.586747,195.82988 328.185542,197.996386 328.185542,200.403614 C328.185542,202.810843 327.864578,204.977349 327.383133,205.218072 C326.981928,205.458795 326.580723,206.582169 326.580723,207.625301 C326.580723,208.668434 326.259759,209.791807 325.778313,210.03253 C325.377108,210.273253 324.975904,213.161928 324.975904,216.451807 C324.975904,219.741687 324.65494,222.630361 324.173494,222.871084 C323.772289,223.111807 323.371084,223.994458 323.371084,224.796867 C323.371084,226.883133 321.284819,230.734699 318.957831,232.901205 C317.834458,233.944337 316.951807,235.147952 316.951807,235.629398 C316.951807,236.752771 302.347952,251.356627 301.224578,251.356627 C300.743133,251.356627 299.379036,252.48 298.095181,253.763855 C296.811325,255.127952 295.206506,256.171084 294.484337,256.171084 C293.681928,256.171084 290.311807,257.615422 286.861446,259.380723 C282.769157,261.466988 279.559518,262.590361 277.553494,262.590361 C275.868434,262.590361 274.263614,262.991566 274.022892,263.392771 C273.782169,263.874217 271.936627,264.195181 270.010843,264.195181 C268.08506,264.195181 266.239518,264.596386 265.998795,264.99759 C265.677831,265.479036 260.54241,265.8 253.160241,265.8 C245.778072,265.8 240.642651,265.479036 240.321687,264.99759 Z M217.453012,234.506024 C217.453012,234.104819 217.29253,233.703614 217.132048,233.703614 C216.891325,233.703614 216.49012,234.104819 216.249398,234.506024 C216.008675,234.98747 216.169157,235.308434 216.570361,235.308434 C217.051807,235.308434 217.453012,234.98747 217.453012,234.506024 Z M299.298795,169.029398 C299.298795,166.220964 298.977831,163.733494 298.496386,163.492771 C298.095181,163.252048 297.693976,162.208916 297.693976,161.165783 C297.693976,160.202892 296.32988,158.116627 294.484337,156.271084 C292.719036,154.586024 291.274699,152.740482 291.274699,152.259036 C291.274699,151.857831 290.392048,151.055422 289.268675,150.493735 C287.583614,149.771566 286.620723,149.932048 283.651807,151.296145 C281.726024,152.259036 280.040964,153.38241 280.040964,153.863855 C280.040964,154.906988 274.263614,160.684337 273.220482,160.684337 C271.695904,160.684337 268.566506,164.455663 269.529398,165.09759 C270.010843,165.338313 270.412048,166.381446 270.412048,167.424578 C270.412048,168.467711 271.134217,169.912048 272.016867,170.714458 C272.899518,171.516867 273.621687,172.961205 273.621687,173.924096 C273.621687,176.411566 275.146265,177.53494 278.436145,177.53494 C280.602651,177.53494 281.886506,176.893012 283.651807,175.127711 C284.935663,173.843855 286.460241,172.720482 287.102169,172.720482 C287.744096,172.720482 289.66988,174.004337 291.435181,175.609157 L294.644819,178.497831 L296.971807,176.251084 C299.058072,174.24506 299.298795,173.522892 299.298795,169.029398 Z M251.154217,116.953012 C250.030843,114.946988 249.549398,112.62 249.549398,109.33012 C249.549398,104.916867 248.746988,103.312048 247.543373,105.318072 C247.302651,105.799518 246.339759,106.120482 245.537349,106.120482 C243.772048,106.120482 240.241446,109.33012 239.519277,111.657108 C238.636627,114.545783 241.685783,119.681205 245.61759,121.687229 L249.148193,123.532771 L250.993735,121.687229 L252.759036,119.841687 L251.154217,116.953012 Z" id="Shape" fill="#B8B8B8" fill-rule="nonzero" transform="translate(260.778019, 165.900000) scale(-1, 1) rotate(-180.000000) translate(-260.778019, -165.900000) "></path>
        <path d="M228.285542,159.368925 C228.044819,158.96772 226.279518,158.566515 224.433976,158.566515 C220.181205,158.486274 217.533253,156.801214 219.057831,154.955672 C219.619518,154.313744 220.502169,153.752058 220.983614,153.752058 C221.545301,153.752058 222.829157,152.869407 223.792048,151.826274 L225.63759,149.82025 L223.390843,147.814226 C222.106988,146.690853 220.742892,145.727961 220.261446,145.727961 C219.860241,145.727961 218.736867,145.166274 217.934458,144.524347 C215.60747,142.759046 217.693735,140.753021 221.46506,140.993744 C223.310602,141.154226 225.477108,140.59254 227.322651,139.549407 C229.970602,137.944588 230.452048,137.864347 232.538313,138.907479 C235.58747,140.432058 237.27253,142.438082 239.599518,147.011817 C242.24747,152.30772 242.167229,156.239527 239.358795,157.603624 C238.155181,158.08507 236.229398,158.566515 235.025783,158.566515 C233.822169,158.566515 232.538313,158.96772 232.29759,159.368925 C232.056867,159.850371 231.093976,160.171335 230.291566,160.171335 C229.489157,160.171335 228.526265,159.850371 228.285542,159.368925 Z" id="Shape" fill="#B8B8B8" fill-rule="nonzero" transform="translate(229.241987, 149.194101) scale(-1, 1) rotate(-180.000000) translate(-229.241987, -149.194101) "></path>
        <path d="M203.571325,196.264706 C202.608434,195.221574 203.009639,188.24061 204.133012,186.716031 C205.095904,185.432176 205.416867,185.351935 206.540241,186.234586 C207.984578,187.4382 208.225301,189.604706 207.101928,190.808321 C206.700723,191.209525 206.219277,192.573622 206.058795,193.857477 C205.818072,196.184465 204.614458,197.307839 203.571325,196.264706 Z" id="Shape" fill="#B8B8B8" fill-rule="nonzero" transform="translate(205.418250, 191.152594) scale(-1, 1) rotate(-180.000000) translate(-205.418250, -191.152594) "></path>
        <path d="M209.428916,219.093495 C209.428916,217.167711 209.107952,215.241928 208.626506,215.001205 C208.225301,214.760483 207.824096,213.476627 207.824096,212.192772 C207.824096,210.908916 208.225301,209.625061 208.626506,209.384338 C209.107952,209.143615 209.428916,207.699278 209.428916,206.335181 C209.509157,203.927952 210.953494,200.959037 212.157108,200.959037 C212.397831,200.959037 212.638554,201.841687 212.638554,202.88482 C212.638554,204.008193 213.039759,205.131567 213.440964,205.37229 C214.484096,206.014217 214.484096,213.235904 213.440964,214.279037 C212.959518,214.760483 212.31759,216.686266 211.996627,218.612049 C211.194217,223.506748 209.428916,223.827711 209.428916,219.093495 Z" id="Shape" fill="#B8B8B8" fill-rule="nonzero" transform="translate(211.023705, 211.714458) scale(-1, 1) rotate(-180.000000) translate(-211.023705, -211.714458) "></path>
        <path d="M158.856,27.312 C158.856,25.52 159.36,25.128 159.976,25.128 C160.088,25.128 160.256,25.128 160.424,25.184 C161.376,25.24 163.168,25.072 165.688,25.24 C166.64,25.352 166.92,25.632 166.92,26.136 C166.92,26.472 166.808,26.864 166.752,27.368 C166.696,27.984 166.584,29.16 166.528,30.896 C166.472,32.576 166.304,35.712 166.024,40.36 C166.024,41.424 165.968,42.432 165.968,43.384 C165.968,44.28 166.024,45.064 166.024,45.792 C166.136,47.192 166.192,47.976 166.136,48.2 C166.08,48.424 166.08,48.816 166.08,49.376 C166.08,50.944 166.192,53.408 166.192,54.248 C166.248,55.312 165.352,55.368 164.512,55.312 L161.656,55.312 C160.368,55.368 160.368,54.528 160.312,53.576 C160.2,53.016 160.2,52.12 160.2,51.056 L160.2,48.816 L160.088,44.448 C160.032,41.816 159.808,38.568 159.416,34.704 C159.024,30.84 158.856,28.768 158.856,28.544 L158.856,27.312 Z M163.224,58.112 C165.912,58.112 166.864,60.408 166.864,61.864 C166.864,62.088 166.864,62.256 166.808,62.424 C166.808,63.544 165.072,65.84 162.888,65.84 C161.04,65.84 159.416,63.88 159.416,61.64 C159.416,61.36 159.416,61.136 159.472,60.856 C159.92,58.504 161.88,58.112 163.224,58.112 Z M208.320324,33.161881 C208.933224,31.4779518 209.540901,31.2819704 210.119751,31.4926548 C210.224997,31.5309611 210.382865,31.5884205 210.52158,31.6985027 C211.397015,32.0767286 213.138403,32.5317604 215.448969,33.5515195 C216.30525,33.9823682 216.472599,34.3412478 216.300221,34.8148529 C216.185302,35.1305896 215.945984,35.4606429 215.720983,35.9150948 C215.457676,36.4747923 214.950215,37.5415646 214.303845,39.1537179 C213.676629,40.7132483 212.446185,43.602665 210.593361,47.8745907 C210.229452,48.8744236 209.832073,49.8024807 209.50647,50.697068 C209.20002,51.5390326 208.984499,52.2949048 208.735508,52.979001 C208.361925,54.3328769 208.146404,55.0887491 208.017169,55.2800871 C207.887934,55.4714251 207.753862,55.8397846 207.562331,56.3660125 C207.026043,57.8394505 206.288551,60.1931594 206.001254,60.9825012 C205.689967,62.0014872 204.82885,61.74766 204.058661,61.4077403 L201.374899,60.4309308 C200.145422,60.0430316 200.432719,59.2536898 200.705699,58.3399493 C200.791985,57.7754152 201.098435,56.9334506 201.462344,55.9336176 L202.228469,53.8287062 L203.617168,49.6858225 C204.464742,47.1933984 205.365132,44.0646643 206.318339,40.2996201 C207.271545,36.5345759 207.822342,34.5300734 207.898955,34.3195823 L208.320324,33.161881 Z M252.800806,55.576766 C253.952682,54.2040143 254.590741,54.2276899 255.062624,54.623647 C255.148421,54.6956393 255.277117,54.8036276 255.369816,54.9545144 C256.063094,55.6093467 257.543834,56.6325266 259.366278,58.3810468 C260.02356,59.0787776 260.058072,59.4732506 259.734107,59.859337 C259.51813,60.1167279 259.180361,60.3450251 258.813497,60.6951154 C258.374641,61.1310027 257.532926,61.9598788 256.374148,63.2537358 C255.251367,64.5046944 253.106889,66.7990214 249.90472,70.1796155 C249.220794,70.9946868 248.529966,71.7308634 247.918032,72.4601378 C247.342094,73.1465136 246.881047,73.7830885 246.413098,74.3407689 C245.598992,75.4852233 245.137945,76.1217983 244.951062,76.2573961 C244.764179,76.392994 244.512207,76.6932834 244.152246,77.1222683 C243.144355,78.323426 241.646323,80.2829517 241.106381,80.926429 C240.465354,81.7774964 239.742982,81.2444572 239.135501,80.6616171 L236.947678,78.8258157 C235.925016,78.0408037 236.464958,77.3973264 237.033993,76.632056 C237.308157,76.1310789 237.884095,75.4447031 238.568021,74.6296318 L240.007865,72.9136922 L242.729765,69.4956179 C244.378683,67.4433928 246.294863,64.811296 248.478305,61.5993276 C250.661747,58.3873591 251.864908,56.6921267 252.008892,56.5205327 L252.800806,55.576766 Z M265.278138,274.953509 C266.430014,276.326261 266.2959,276.950515 265.824017,277.346473 C265.73822,277.418465 265.609524,277.526453 265.444833,277.591543 C264.679562,278.160578 263.414799,279.441149 261.376378,280.932278 C260.575112,281.458415 260.180639,281.423903 259.856674,281.037817 C259.640697,280.780426 259.474522,280.408144 259.193455,279.986062 C258.840396,279.478182 258.170275,278.505322 257.097294,277.139473 C256.06031,275.816522 254.173223,273.306218 251.400039,269.565663 C250.716113,268.750592 250.111081,267.942423 249.499148,267.213149 C248.92321,266.526773 248.376366,265.96219 247.908417,265.40451 C246.922717,264.40404 246.375873,263.839457 246.274787,263.631867 C246.173701,263.424277 245.921728,263.123987 245.561767,262.695003 C244.553876,261.493845 242.884251,259.678304 242.344309,259.034826 C241.617485,258.255751 242.267864,257.636915 242.947338,257.139872 L245.135161,255.30407 C246.08583,254.433261 246.625771,255.076739 247.280604,255.770017 C247.726362,256.12701 248.302299,256.813385 248.986225,257.628457 L250.42607,259.344396 L253.319563,262.618486 C255.054278,264.598719 257.313647,266.942847 260.097667,269.65087 C262.881688,272.358893 264.342239,273.838149 264.486224,274.009743 L265.278138,274.953509 Z M223.626037,302.267295 C224.238937,303.951224 223.899404,304.491962 223.320553,304.702646 C223.215308,304.740952 223.057439,304.798412 222.880418,304.803248 C221.966677,305.076229 220.340208,305.846997 217.914723,306.55102 C216.981829,306.771377 216.62295,306.604029 216.450571,306.130424 C216.335653,305.814687 216.306826,305.408021 216.187071,304.915263 C216.029009,304.317259 215.732039,303.173875 215.190915,301.523415 C214.668944,299.925578 213.754237,296.921243 212.427641,292.457786 C212.063732,291.457953 211.771599,290.49159 211.445995,289.597002 C211.139545,288.755038 210.818779,288.037472 210.569788,287.353376 C209.985714,286.076112 209.664948,285.358546 209.640958,285.128902 C209.616968,284.899258 209.482896,284.530898 209.291365,284.00467 C208.755077,282.531232 207.807094,280.254136 207.519797,279.464794 C207.103265,278.484114 207.926077,278.125042 208.734572,277.890367 L211.418334,276.913558 C212.609505,276.420413 212.896802,277.209755 213.275027,278.085189 C213.571804,278.573111 213.878254,279.415075 214.242164,280.414908 L215.008289,282.51982 L216.607479,286.586091 C217.560298,289.040209 218.881671,292.015718 220.571596,295.512618 C222.261522,299.009519 223.128056,300.899102 223.204668,301.109594 L223.626037,302.267295 Z M175.144,313.688 C175.144,315.48 174.64,315.872 174.024,315.872 C173.912,315.872 173.744,315.872 173.576,315.816 C172.624,315.76 170.832,315.928 168.312,315.76 C167.36,315.648 167.08,315.368 167.08,314.864 C167.08,314.528 167.192,314.136 167.248,313.632 C167.304,313.016 167.416,311.84 167.472,310.104 C167.528,308.424 167.696,305.288 167.976,300.64 C167.976,299.576 168.032,298.568 168.032,297.616 C168.032,296.72 167.976,295.936 167.976,295.208 C167.864,293.808 167.808,293.024 167.864,292.8 C167.92,292.576 167.92,292.184 167.92,291.624 C167.92,290.056 167.808,287.592 167.808,286.752 C167.752,285.688 168.648,285.632 169.488,285.688 L172.344,285.688 C173.632,285.632 173.632,286.472 173.688,287.424 C173.8,287.984 173.8,288.88 173.8,289.944 L173.8,292.184 L173.912,296.552 C173.968,299.184 174.192,302.432 174.584,306.296 C174.976,310.16 175.144,312.232 175.144,312.456 L175.144,313.688 Z M125.679676,307.838119 C125.066776,309.522048 124.459099,309.71803 123.880249,309.507345 C123.775003,309.469039 123.617135,309.41158 123.47842,309.301497 C122.602985,308.923271 120.861597,308.46824 118.551031,307.448481 C117.69475,307.017632 117.527401,306.658752 117.699779,306.185147 C117.814698,305.86941 118.054016,305.539357 118.279017,305.084905 C118.542324,304.525208 119.049785,303.458435 119.696155,301.846282 C120.323371,300.286752 121.553815,297.397335 123.406639,293.125409 C123.770548,292.125576 124.167927,291.197519 124.49353,290.302932 C124.79998,289.460967 125.015501,288.705095 125.264492,288.020999 C125.638075,286.667123 125.853596,285.911251 125.982831,285.719913 C126.112066,285.528575 126.246138,285.160215 126.437669,284.633988 C126.973957,283.16055 127.711449,280.806841 127.998746,280.017499 C128.310033,278.998513 129.17115,279.25234 129.941339,279.59226 L132.625101,280.569069 C133.854578,280.956968 133.567281,281.74631 133.294301,282.660051 C133.208015,283.224585 132.901565,284.066549 132.537656,285.066382 L131.771531,287.171294 L130.382832,291.314177 C129.535258,293.806602 128.634868,296.935336 127.681661,300.70038 C126.728455,304.465424 126.177658,306.469927 126.101045,306.680418 L125.679676,307.838119 Z M81.1991937,285.423234 C80.0473183,286.795986 79.4092592,286.77231 78.9373758,286.376353 C78.8515788,286.304361 78.7228833,286.196372 78.630184,286.045486 C77.9369058,285.390653 76.4561658,284.367473 74.6337221,282.618953 C73.97644,281.921222 73.9419281,281.526749 74.2658931,281.140663 C74.4818697,280.883272 74.8196394,280.654975 75.1865029,280.304885 C75.6253585,279.868997 76.4670737,279.040121 77.6258515,277.746264 C78.7486332,276.495306 80.8931106,274.200979 84.0952799,270.820385 C84.7792059,270.005313 85.4700343,269.269137 86.0819681,268.539862 C86.6579058,267.853486 87.1189528,267.216911 87.5869021,266.659231 C88.4010078,265.514777 88.8620548,264.878202 89.0489377,264.742604 C89.2358206,264.607006 89.4877934,264.306717 89.8477545,263.877732 C90.8556454,262.676574 92.3536771,260.717048 92.8936187,260.073571 C93.5346462,259.222504 94.2570182,259.755543 94.8644994,260.338383 L97.0523223,262.174184 C98.0749837,262.959196 97.5350421,263.602674 96.9660068,264.367944 C96.6918427,264.868921 96.115905,265.555297 95.431979,266.370368 L93.9921347,268.086308 L91.2702354,271.504382 C89.6213169,273.556607 87.7051367,276.188704 85.5216948,279.400672 C83.3382529,282.612641 82.1350924,284.307873 81.991108,284.479467 L81.1991937,285.423234 Z M47.0675545,249.146911 C45.515637,250.042911 44.924155,249.802434 44.616155,249.268962 C44.560155,249.171968 44.476155,249.026475 44.4406524,248.852983 C44.0131498,248.000527 42.9716576,246.532609 41.8571498,244.266225 C41.4781447,243.385769 41.5806318,243.003282 42.0171086,242.751282 C42.3080931,242.583282 42.7035751,242.484277 43.1680519,242.280774 C43.7295236,242.021272 44.8039694,241.530267 46.3353895,240.710764 C47.8183122,239.919261 50.6181679,238.496754 54.783454,236.415241 C55.704905,235.883241 56.6058586,235.427738 57.4303148,234.951738 C58.2062735,234.503738 58.8572375,234.063241 59.4877039,233.699241 C60.6441395,232.902246 61.2951034,232.461749 61.5170931,232.398246 C61.7390828,232.334743 62.0785648,232.138743 62.563539,231.858743 C63.9214668,231.074743 65.9993534,229.745749 66.7268148,229.325749 C67.6202658,228.745251 68.1167632,229.49321 68.4882658,230.248671 L69.9162658,232.72204 C70.6087632,233.80948 69.8813019,234.22948 69.0848457,234.753978 C68.6558715,235.130973 67.8799127,235.578973 66.9584617,236.110973 L65.0185648,237.230973 L61.2917658,239.511968 C59.0403869,240.876465 56.3395364,242.694455 53.1892143,244.965937 C50.0388921,247.237419 48.3284875,248.418911 48.1344978,248.530911 L47.0675545,249.146911 Z M68.7218618,66.0464906 C67.5699864,64.6737389 67.7041001,64.0494846 68.1759834,63.6535274 C68.2617804,63.5815352 68.3904759,63.4735469 68.5551675,63.408457 C69.3204379,62.8394217 70.5852012,61.5588508 72.6236215,60.0677215 C73.424888,59.5415847 73.819361,59.5760966 74.143326,59.962183 C74.3593026,60.219574 74.5254784,60.5918556 74.8065448,61.0139381 C75.1596035,61.5218176 75.8297248,62.4946781 76.9027056,63.8605273 C77.9396903,65.1834781 79.8267767,67.6937818 82.5999611,71.4343369 C83.2838871,72.2494082 83.8889185,73.0575771 84.5008523,73.7868514 C85.07679,74.4732272 85.623634,75.0378099 86.0915834,75.5954903 C87.077283,76.5959603 87.624127,77.160543 87.7252129,77.3681331 C87.8262989,77.5757232 88.0782716,77.8760126 88.4382327,78.3049975 C89.4461236,79.5061552 91.1157493,81.3216965 91.6556909,81.9651738 C92.3825154,82.744249 91.7321357,83.3630852 91.0526622,83.8601283 L88.8648393,85.6959297 C87.9141702,86.5667386 87.3742286,85.9232613 86.7193963,85.2299831 C86.2736383,84.8729904 85.6977006,84.1866146 85.0137745,83.3715433 L83.5739303,81.6556037 L80.680437,78.3815138 C78.9457216,76.4012809 76.6863534,74.057153 73.9023327,71.34913 C71.118312,68.641107 69.6577606,67.1618513 69.5137761,66.9902573 L68.7218618,66.0464906 Z M110.373963,38.7327051 C109.761063,37.0487759 110.100596,36.5080382 110.679447,36.2973538 C110.784692,36.2590476 110.942561,36.2015882 111.119582,36.1967516 C112.033323,35.9237712 113.659792,35.1530027 116.085277,34.4489803 C117.018171,34.2286227 117.37705,34.395971 117.549429,34.8695761 C117.664347,35.1853128 117.693174,35.5919786 117.812929,36.0847368 C117.970991,36.6827406 118.267961,37.8261254 118.809085,39.4765849 C119.331056,41.0744216 120.245763,44.078757 121.572359,48.542214 C121.936268,49.5420469 122.228401,50.5084102 122.554005,51.4029976 C122.860455,52.2449622 123.181221,52.9625281 123.430212,53.6466243 C124.014286,54.9238877 124.335052,55.6414536 124.359042,55.8710979 C124.383032,56.1007422 124.517104,56.4691017 124.708635,56.9953295 C125.244923,58.4687676 126.192906,60.7458639 126.480203,61.5352057 C126.896735,62.5158855 126.073923,62.8749584 125.265428,63.1096325 L122.581666,64.086442 C121.390495,64.5795868 121.103198,63.790245 120.724973,62.9148107 C120.428196,62.4268891 120.121746,61.5849245 119.757836,60.5850916 L118.991711,58.4801801 L117.392521,54.413909 C116.439702,51.9597911 115.118329,48.984282 113.428404,45.4873816 C111.738478,41.9904812 110.871944,40.1008975 110.795332,39.8904064 L110.373963,38.7327051 Z M201.890681,63.5983577 C204.416574,64.5177078 204.525883,67.0008453 204.027902,68.3690377 C203.95129,68.5795289 203.89383,68.7373972 203.783748,68.8761124 C203.400685,69.9285682 200.984101,71.4923555 198.931812,70.7453835 C197.19526,70.1133303 196.339559,67.716092 197.105684,65.6111805 C197.20145,65.3480666 197.278062,65.1375755 197.426451,64.8936146 C198.651864,62.8366826 200.627734,63.1386826 201.890681,63.5983577 Z M236.34903,81.9786311 C238.408158,83.7064442 237.661591,86.0772161 236.725693,87.1925768 C236.581708,87.3641707 236.47372,87.4928662 236.322833,87.5855655 C235.602911,88.4435353 232.797218,89.0864941 231.124176,87.6826459 C229.708526,86.4947744 229.724334,83.9494402 231.164178,82.2335007 C231.344159,82.0190082 231.488143,81.8474143 231.711022,81.668918 C233.566046,80.1551503 235.319466,81.1147246 236.34903,81.9786311 Z M242.134198,254.167037 C240.07507,255.89485 237.869956,254.747946 236.934057,253.632585 C236.790072,253.460991 236.682084,253.332296 236.616994,253.167604 C235.897072,252.309634 235.751085,249.434917 237.424126,248.031069 C238.839776,246.843197 241.343696,247.300757 242.78354,249.016697 C242.963521,249.231189 243.107505,249.402783 243.244587,249.653272 C244.413236,251.742977 243.163761,253.30313 242.134198,254.167037 Z M208.987239,274.818706 C206.461345,275.738056 204.78148,273.906125 204.283498,272.537933 C204.206886,272.327442 204.149427,272.169573 204.14459,271.992552 C203.761527,270.940096 204.607556,268.188815 206.659844,267.441843 C208.396396,266.80979 210.592817,268.096146 211.358942,270.201058 C211.454707,270.464172 211.53132,270.674663 211.574463,270.95693 C211.957912,273.320312 210.250186,274.359031 208.987239,274.818706 Z M170.776,282.888 C168.088,282.888 167.136,280.592 167.136,279.136 C167.136,278.912 167.136,278.744 167.192,278.576 C167.192,277.456 168.928,275.16 171.112,275.16 C172.96,275.16 174.584,277.12 174.584,279.36 C174.584,279.64 174.584,279.864 174.528,280.144 C174.08,282.496 172.12,282.888 170.776,282.888 Z M132.109319,277.401642 C129.583426,276.482292 129.474117,273.999155 129.972098,272.630962 C130.04871,272.420471 130.10617,272.262603 130.216252,272.123888 C130.599315,271.071432 133.015899,269.507645 135.068188,270.254617 C136.80474,270.88667 137.660441,273.283908 136.894316,275.388819 C136.79855,275.651933 136.721938,275.862425 136.573549,276.106385 C135.348136,278.163317 133.372266,277.861317 132.109319,277.401642 Z M97.6509699,259.021369 C95.5918425,257.293556 96.3384085,254.922784 97.2743073,253.807423 C97.4182917,253.635829 97.52628,253.507134 97.6771668,253.414434 C98.397089,252.556465 101.202782,251.913506 102.875824,253.317354 C104.291474,254.505226 104.275666,257.05056 102.835822,258.766499 C102.655841,258.980992 102.511857,259.152586 102.288978,259.331082 C100.433954,260.84485 98.6805337,259.885275 97.6509699,259.021369 Z M91.8658023,86.8329631 C93.9249298,85.10515 96.1300444,86.2520543 97.0659432,87.367415 C97.2099276,87.5390089 97.3179159,87.6677044 97.3830058,87.832396 C98.1029279,88.6903658 98.2489151,91.5650831 96.575874,92.9689312 C95.1602239,94.1568027 92.656304,93.6992427 91.2164598,91.9833032 C91.0364792,91.7688107 90.8924948,91.5972168 90.7554128,91.3467282 C89.5867642,89.2570228 90.8362386,87.6968697 91.8658023,86.8329631 Z M125.012761,66.1812938 C127.538655,65.2619437 129.21852,67.0938747 129.716502,68.4620672 C129.793114,68.6725583 129.850573,68.8304267 129.85541,69.0074482 C130.238473,70.0599039 129.392444,72.8111851 127.340156,73.5581571 C125.603604,74.1902104 123.407183,72.9038535 122.641058,70.7989421 C122.545293,70.5358281 122.46868,70.325337 122.425537,70.0430699 C122.042088,67.6796879 123.749814,66.6409689 125.012761,66.1812938 Z" id="!" fill="#B8B8B8"></path>
    </g>
</svg>