<?xml version="1.0" encoding="utf-8"?>
<!-- Generator: Adobe Illustrator 22.1.0, SVG Export Plug-In . SVG Version: 6.00 Build 0)  -->
<svg version="1.1" xmlns="http://www.w3.org/2000/svg" xmlns:xlink="http://www.w3.org/1999/xlink" x="0px" y="0px"
	 viewBox="0 0 89.7 90" style="enable-background:new 0 0 89.7 90;" xml:space="preserve">
<style type="text/css">
	.st0{fill:#B8B8B8;}
</style>
<g id="Layer_2">
</g>
<g id="Layer_1">
	<path class="st0" d="M71.9,52.5c5.2,0,9.9,2,13.5,5.3c2.7-4.7,4.2-9.9,4.2-15.4c0-19-18.1-25.2-41.1-25.7c2.2-1.3,3.8-3.7,3.8-6.5
		c0-3.6-2.6-3.9-6.1-3.9C46.1,4.1,43.8,0,43.8,0h-2.1c0,0,2.4,4.1,2.4,6.3c0,0,0,0,0,0c-3.7,0-6.7,0.1-6.7,3.9
		c0,2.8,1.5,5.2,3.8,6.5c-23,0.6-41.1,6.7-41.1,25.7c0,5.5,1.5,10.7,4.2,15.4c3.5-3.3,8.3-5.3,13.5-5.3c10.9,0,19.7,8.8,19.7,19.7
		c0,2-0.3,4-0.9,5.9c2.7,0.4,5.5,0.6,8.3,0.6c2.8,0,5.6-0.2,8.3-0.6c-0.6-1.9-0.9-3.8-0.9-5.9C52.2,61.4,61.1,52.5,71.9,52.5z
		 M41.2,32.4l-4.8,11c-1.1,2.5-4.4,4.2-7.3,3.8l-16.8-2.4C9.5,44.4,8,42,9.1,39.5l4.8-11c1.1-2.5,4.4-4.2,7.3-3.8L38,27.1
		C40.9,27.5,42.4,29.9,41.2,32.4z M51.8,27.1l16.8-2.4c2.9-0.4,6.1,1.3,7.3,3.8l4.8,11c1.1,2.5-0.4,4.9-3.3,5.3l-16.8,2.4
		c-2.9,0.4-6.1-1.3-7.3-3.8l-4.8-11C47.5,29.9,48.9,27.5,51.8,27.1z M17.8,54.5C8,54.5,0,62.4,0,72.2S8,90,17.8,90s17.8-8,17.8-17.8
		C35.5,62.4,27.6,54.5,17.8,54.5z M7.1,63.3l8.5,8.5H3.9C4,68.6,5.2,65.6,7.1,63.3z M3.9,73.5h11.8l-8.1,8.1
		C5.5,79.5,4.2,76.7,3.9,73.5z M16.9,86.1c-3.1-0.2-5.9-1.4-8.1-3.3l8.1-8.1V86.1z M16.9,70.6L8.3,62c2.3-2.1,5.3-3.5,8.6-3.7
		C16.9,58.4,16.9,70.6,16.9,70.6z M18.6,58.4c3.3,0.2,6.3,1.6,8.6,3.7l-8.6,8.6V58.4z M18.6,86.1V74.8l8.1,8.1
		C24.5,84.7,21.7,85.9,18.6,86.1z M28,81.7l-8.1-8.1h11.8C31.3,76.7,30,79.5,28,81.7z M19.9,71.8l8.5-8.5c2,2.3,3.2,5.3,3.3,8.5
		H19.9z M71.9,54.5c-9.8,0-17.8,8-17.8,17.8c0,9.8,8,17.8,17.8,17.8c9.8,0,17.8-8,17.8-17.8C89.7,62.4,81.7,54.5,71.9,54.5z
		 M61.3,63.3l8.5,8.5H58C58.1,68.6,59.3,65.6,61.3,63.3z M58.1,73.5h11.8l-8.1,8.1C59.7,79.5,58.4,76.7,58.1,73.5z M71.1,86.1
		c-3.1-0.2-5.9-1.4-8.1-3.3l8.1-8.1V86.1z M71.1,70.6L62.5,62c2.3-2.1,5.3-3.5,8.6-3.7V70.6z M85.8,71.8H74l8.5-8.5
		C84.5,65.6,85.7,68.6,85.8,71.8z M72.8,58.4c3.3,0.2,6.3,1.6,8.6,3.7l-8.6,8.6V58.4z M72.8,86.1V74.8l8.1,8.1
		C78.7,84.7,75.9,85.9,72.8,86.1z M82.1,81.7L74,73.5h11.8C85.5,76.7,84.2,79.5,82.1,81.7z"/>
</g>
</svg>
