<?xml version="1.0" encoding="utf-8"?>
<!-- Generator: Adobe Illustrator 22.1.0, SVG Export Plug-In . SVG Version: 6.00 Build 0)  -->
<svg version="1.1"
	 id="Layer_1" xmlns:cc="http://creativecommons.org/ns#" xmlns:dc="http://purl.org/dc/elements/1.1/" xmlns:inkscape="http://www.inkscape.org/namespaces/inkscape" xmlns:rdf="http://www.w3.org/1999/02/22-rdf-syntax-ns#" xmlns:sodipodi="http://sodipodi.sourceforge.net/DTD/sodipodi-0.dtd" xmlns:svg="http://www.w3.org/2000/svg"
	 xmlns="http://www.w3.org/2000/svg" xmlns:xlink="http://www.w3.org/1999/xlink" x="0px" y="0px" viewBox="0 0 23.8 23.8"
	 style="enable-background:new 0 0 23.8 23.8;" xml:space="preserve">
<style type="text/css">
	.st0{fill:#B8B8B8;}
</style>
<g transform="translate(0,-270.54165)">
	<path class="st0" d="M0,274.5v0.7v19.2h17.2v-13.6c-0.5-0.3-0.9-0.6-1.3-0.9V293H1.3v-17.2h10.9c-0.2-0.5-0.3-0.9-0.3-1.3H0z"/>
	<ellipse transform="matrix(2.857097e-03 -1 1 2.857097e-03 -286.4263 293.525)" class="st0" cx="4" cy="290.4" rx="1.3" ry="1.3"/>
	<path class="st0" d="M7.9,289.1h5.3c0.7,0,1.3,0.6,1.3,1.3v0c0,0.7-0.6,1.3-1.3,1.3H7.9c-0.7,0-1.3-0.6-1.3-1.3v0
		C6.6,289.7,7.2,289.1,7.9,289.1z"/>
	<circle class="st0" cx="4" cy="286.4" r="1.3"/>
	<path class="st0" d="M7.9,285.1h5.3c0.7,0,1.3,0.6,1.3,1.3v0c0,0.7-0.6,1.3-1.3,1.3H7.9c-0.7,0-1.3-0.6-1.3-1.3v0
		C6.6,285.7,7.2,285.1,7.9,285.1z"/>
	<circle class="st0" cx="4" cy="282.4" r="1.3"/>
	<path class="st0" d="M7.9,281.1h5.3c0.7,0,1.3,0.6,1.3,1.3v0c0,0.7-0.6,1.3-1.3,1.3H7.9c-0.7,0-1.3-0.6-1.3-1.3v0
		C6.6,281.7,7.2,281.1,7.9,281.1z"/>
	<circle class="st0" cx="4" cy="278.5" r="1.3"/>
	<path class="st0" d="M7.9,277.2c-0.7,0-1.3,0.6-1.3,1.3c0,0.7,0.6,1.3,1.3,1.3h5.3c0.6,0,1.2-0.4,1.3-1c-0.7-0.6-1.1-1.1-1.5-1.6
		H7.9z"/>
	<path class="st0" d="M15.9,270.5c-1.5,0-2.6,1.2-2.6,2.6c0,1-0.4,3.3,5.3,6.7c5.7-3.3,5.3-5.6,5.3-6.7c0-1.4-1.2-2.6-2.6-2.6
		s-2.6,1.2-2.6,2.6C18.5,271.7,17.3,270.5,15.9,270.5z"/>
</g>
</svg>
