<?xml version="1.0" encoding="utf-8"?>
<!-- Generator: Adobe Illustrator 22.1.0, SVG Export Plug-In . SVG Version: 6.00 Build 0)  -->
<svg version="1.1" id="Layer_1" xmlns="http://www.w3.org/2000/svg" xmlns:xlink="http://www.w3.org/1999/xlink" x="0px" y="0px"
	 viewBox="0 0 50.1 50.3" style="enable-background:new 0 0 50.1 50.3;" xml:space="preserve">
<path d="M14.5,27.9c-0.1,0.3-0.1,0.5-0.1,0.5l0.2,2.4c-0.1,3.3-1.5,4.4-1.5,4.4l2.1,13.3c-2.4-0.8-4.6-2-6.6-3.4l-0.9-9.6
	c0,0-0.5-0.2-1.4-0.7c-0.9-0.4-1.9-1.6-2.1-2c-0.2-0.4-0.8-1.5-2.2-2.6c-1.4-1-1.5-0.5-1.9-1.2c-0.4-0.6,0.6-1,0.6-1
	s2.5-0.5,4.7,2.2c0,0,0.1,0,0.2,0l0-0.1c0,0,0,0,0,0c0,0,0,0,0,0l0.1-0.4c0,0,0-0.1,0-0.2c0.7,0,3.2,0.1,4.2,2.3
	c0.1,0.1,0.1,0.2,0.2,0.3c0,0-0.2-3.1-4.4-2.7c0-0.3,0.1-1.1,0-1.4c-0.1-0.5-0.2-0.9-0.2-0.9l-2.2-5.1c0,0-0.4-0.9,0.4-1.3
	c0.8-0.4,1.2,0.3,1.2,0.3s2.3,4.6,2.6,5.2C7.7,26.9,8,26.2,8,26.2L7.2,20c0,0-0.2-1,0.8-1.2c1.1-0.2,1.2,1.4,1.2,1.4
	s0.7,5.3,0.8,5.9c0.1,0.6,0.4,0,0.4,0s0.8-5.1,0.9-5.7c0.1-0.5,0.2-1.1,1-1.1c0.8,0,0.7,1.8,0.7,1.8s-0.6,5.2-0.6,5.6
	c0,0.4,0.2,0.3,0.2,0.3s1.9-4,2.1-4.3c0.2-0.3,0.5-0.9,1.3-0.6c0.8,0.3,0,2.1,0,2.1S14.6,27.5,14.5,27.9z M49.9,25.2
	c-0.7-0.5-1.1,0.1-1.3,0.3c-0.2,0.2-2.8,3.5-2.8,3.5s-0.3,0-0.2-0.3c0.1-0.4,1.7-5,1.7-5s0.5-1.6-0.3-1.8s-1,0.3-1.2,0.8
	c-0.2,0.5-2,5.1-2,5.1s-0.4,0.5-0.4-0.1C43.6,27,44,22,44,22s0.2-1.5-0.8-1.5c-1.1,0-1,1-1,1l-0.5,5.9c0,0-0.5,0.6-0.6,0
	c-0.1-0.6-1.3-5.3-1.3-5.3s-0.2-0.7-1-0.5c-0.8,0.2-0.6,1.1-0.6,1.1l1,5.2c0,0,0.1,0.4,0.1,0.9c0,0.3-0.2,0.9-0.3,1.3
	c3.9,0.5,3.4,3.4,3.4,3.4c0-0.1-0.1-0.2-0.1-0.3c-0.5-2.1-2.5-2.8-3.3-3c0,0.1-0.1,0.2-0.1,0.2l-0.2,0.4c0,0,0,0,0,0c0,0,0,0,0,0
	l0,0.1c-0.1,0-0.2,0-0.2,0c-1.4-2.9-3.9-3-3.9-3s-0.9,0.2-0.7,0.8c0.2,0.7,0.4,0.2,1.5,1.5c1.1,1.2,1.4,2.4,1.5,2.8
	c0.1,0.4,0.8,1.7,1.6,2.3c0.8,0.6,1.1,0.9,1.1,0.9l-1.5,11.5c2.2-1,4.2-2.3,6.1-3.8l0.4-6.9c0,0,1.6-0.7,2.3-3.8l0.3-2.3
	c0,0,0-0.2,0.2-0.5c0.2-0.3,2.2-3.1,2.2-3.1S50.6,25.6,49.9,25.2z M39.1,6.9c-1.2-0.7-1.8,0.3-2.1,0.7c-0.3,0.4-4.2,6.5-4.2,6.5
	s-0.4,0.1-0.3-0.5c0.1-0.6,2.1-8.9,2.1-8.9s0.5-2.8-0.8-3c-1.3-0.2-1.7,0.7-1.9,1.6c-0.2,0.9-2.5,9-2.5,9s-0.7,0.9-0.7-0.1
	s-0.2-9.7-0.2-9.7s0.2-2.6-1.6-2.5c-1.8,0.2-1.6,1.8-1.6,1.8L25.3,12c0,0-0.7,1.1-1,0.2c-0.3-1-3.2-8.9-3.2-8.9S20.6,2,19.3,2.5
	c-1.3,0.5-0.8,2-0.8,2l2.5,8.7c0,0,0.2,0.7,0.2,1.5c0,0.7-0.4,2.5-0.4,2.5l0,0.1c6.9,0.1,6.6,5.2,6.6,5.2c-0.1-0.2-0.2-0.4-0.3-0.6
	c-1.3-3.8-5.2-4.5-6.4-4.6l-0.3,0.6c0,0,0,0-0.1,0c0,0,0,0,0.1,0l-0.1,0.2c-0.2,0-0.3,0-0.3,0c-3-4.8-7.2-4.4-7.2-4.4
	s-1.6,0.5-1.1,1.6c0.5,1.1,0.8,0.3,2.8,2.3c2,1.9,2.7,3.9,3,4.6c0.3,0.7,1.6,2.8,3,3.7c1.4,0.9,2.1,1.3,2.1,1.3l-0.7,23.1
	c1,0.1,1.9,0.1,2.9,0.1c2.5,0,4.9-0.3,7.2-0.9l-0.8-21.9c0,0,2.6-1.5,3.4-6.9l0.2-4c0,0,0-0.3,0.2-0.8c0.3-0.5,3.2-5.7,3.2-5.7
	S40.3,7.6,39.1,6.9z"/>
</svg>
