<?xml version="1.0" encoding="utf-8"?>
<!-- Generator: Adobe Illustrator 22.1.0, SVG Export Plug-In . SVG Version: 6.00 Build 0)  -->
<svg version="1.1" id="Layer_1" xmlns="http://www.w3.org/2000/svg" xmlns:xlink="http://www.w3.org/1999/xlink" x="0px" y="0px"
	 viewBox="0 0 704.7 497.9" style="enable-background:new 0 0 704.7 497.9;" xml:space="preserve">
<path d="M679.6,393.8c0,0,59-154.1-11.4-296.8c0,0,41.9-64.7,22.8-83.7c-23.8-23.8-87.5,5.7-110.4,19c0,0-274-79.9-479.5,11.5
	c0,0-91.4-34.3-99-7.7c-7.6,26.7,26.6,99,26.6,99s-64.6,144.6,0.1,258.7c0,0-38.3,70.1-15.2,95.1c22.8,24.7,95.1-32.3,95.1-32.3
	s289.2,66.6,487.1,9.6c0,0,81.8,43.7,104.6,28.5C717.3,483.5,679.6,393.8,679.6,393.8z M639.2,379.9c-1.5,5-6,8.2-11,8.2
	c-1,0-2.1-0.2-3.2-0.5c-6.1-1.8-9.5-8.1-7.8-14.2c3.7-12.7,21-87.2,19.8-125.2s-20.4-98.4-20.4-98.4c-6.1-18-11.5-27.9-11.7-28.2
	c-3.1-5.5-1.1-12.5,4.4-15.6c5.4-3.1,12.4-1.2,15.5,4.4C627.4,114.8,685.7,221.1,639.2,379.9z"/>
</svg>
