<?xml version="1.0" encoding="utf-8"?>
<!-- Generator: Adobe Illustrator 22.1.0, SVG Export Plug-In . SVG Version: 6.00 Build 0)  -->
<svg version="1.1" id="Layer_1" xmlns="http://www.w3.org/2000/svg" xmlns:xlink="http://www.w3.org/1999/xlink" x="0px" y="0px"
	 viewBox="0 0 85.1 84.8" style="enable-background:new 0 0 85.1 84.8;" xml:space="preserve">
<path d="M42.7,0C19.3,0,0.3,19,0.3,42.4c0,8.6,2.6,16.6,7,23.3L0,84.8l17.9-8c7,5,15.5,8,24.8,8c23.4,0,42.4-19,42.4-42.4
	S66.1,0,42.7,0z M42.8,32.1c0,2.1-2,3.5-4.2,3.5l0.7,29c0,4.3-6.2,4.3-6.1,0l0.7-29c-2.5,0-3.9-1.4-3.9-3.6V18.3c0-2,2.6-2,2.6,0
	v8.1c0,2.7,2.6,2.7,2.6,0v-8.1c0-2,2.4-2,2.4,0v8.1c0,2.7,2.8,2.7,2.8,0.1v-8.1c0-2,2.5-2,2.5,0L42.8,32.1L42.8,32.1z M55.2,64.7
	c0,3.3-2.6,3.5-4,3.1c-2.6-1.1-3.2-3.8-2-20.9c-1.9,0.3-3.6-1.5-3.3-4.5L47,21.7c0-3.4,1.4-4.9,4.8-4.9c2.2,0,3.4,1.3,3.4,3.5V64.7z
	"/>
</svg>
