<?xml version="1.0" encoding="UTF-8"?>
<svg viewBox="0 0 333 333" version="1.1" xmlns="http://www.w3.org/2000/svg" xmlns:xlink="http://www.w3.org/1999/xlink">
    <!-- Generator: Sketch 50.2 (55047) - http://www.bohemiancoding.com/sketch -->
    <title>hometown copy</title>
    <desc>Created with Sketch.</desc>
    <defs></defs>
    <g id="hometown-copy" stroke="none" stroke-width="1" fill="none" fill-rule="evenodd">
        <path d="M159.861017,189.192971 L128.010169,189.192971 L128.010169,135.697968 L120.322034,135.697968 L168.647458,102.674965 L190.613559,117.685421 L190.613559,109.416628 L199.4,109.416628 L199.4,123.689603 L216.972881,135.697968 L209.284746,135.697968 L209.284746,189.192971 L177.433898,189.192971 L177.433898,162.22632 L159.861017,162.22632 L159.861017,189.192971 Z M271.6798,238.317038 C277.154703,265.635347 292.661438,281.270381 312.380201,292 C290.362917,286.836241 269.157074,286.708409 241.931595,249.221775 C233.396871,251.113344 224.487736,252.115157 215.325424,252.115157 C198.045257,252.115157 181.665647,248.551693 167,242.176511 C152.334353,248.551693 135.954743,252.115157 118.674576,252.115157 C111.239794,252.115157 103.971718,251.455508 96.9351317,250.196083 C70.0513359,286.711028 49.0237909,286.88137 27.1989265,292 C46.3055841,281.603447 61.4576524,266.601299 67.3606493,240.827494 C30.3604971,223.49894 5,188.015386 5,147.057579 C5,89.0358801 55.8938414,42 118.674576,42 C135.954743,42 152.334353,45.5634638 167,51.9386463 C181.665647,45.5634638 198.045257,42 215.325424,42 C278.106159,42 329,89.0358801 329,147.057579 C329,186.127656 305.923342,220.216464 271.6798,238.317038 Z M167,51.9386463 C128.383748,68.7251984 101.650847,105.00614 101.650847,147.057579 C101.650847,189.109018 128.383748,225.389959 167,242.176511 C205.616252,225.389959 232.349153,189.109018 232.349153,147.057579 C232.349153,105.00614 205.616252,68.7251984 167,51.9386463 Z" id="Combined-Shape" fill="#B8B8B8"></path>
    </g>
</svg>