<?xml version="1.0" encoding="utf-8"?>
<!-- Generator: Adobe Illustrator 22.1.0, SVG Export Plug-In . SVG Version: 6.00 Build 0)  -->
<svg version="1.1" id="Layer_1" xmlns="http://www.w3.org/2000/svg" xmlns:xlink="http://www.w3.org/1999/xlink" x="0px" y="0px"
	 viewBox="0 0 104 238.2" style="enable-background:new 0 0 104 238.2;" xml:space="preserve">
<style type="text/css">
	.st0{fill:#B8B8B8;}
</style>
<g>
	<path class="st0" d="M65.5,99c-0.6-0.2-1.2-0.4-1.7-0.7c-0.2,0.3-0.3,0.4-0.4,0.5c-0.1,0.3-0.6,2.1-0.5,7l0.1,8
		c1,2.2,1.6,4.6,1.6,7.2v1.9c0,5-2.2,9.5-5.6,12.6c-1.7,1.6-3.8,2.8-6.1,3.6v86.7c0,6.8,5.5,12.4,12.4,12.4
		c6.8,0,12.4-5.5,12.4-12.4v-98v-18.9v-6.4c-0.7-0.2-1.4-0.3-2.1-0.5C72.7,101.2,69.3,100.2,65.5,99z"/>
	<path class="st0" d="M45.8,140c-4.4,0-8.4-1.7-11.4-4.4c-2.4-2.2-4.1-5-5-8.2c-1.6-0.3-3.1-1-4.5-2c-0.4-0.3-0.8-0.7-1.2-1v3.4v98
		c0,6.8,5.5,12.4,12.4,12.4c6.8,0,12.4-5.5,12.4-12.4v-85.9c-0.2,0-0.5,0-0.7,0H45.8z"/>
	<path class="st0" d="M72.1,29.6c0.2-0.6,0.4-1.3,0.6-2c2.8-12.1-4.7-24.2-16.8-27c-12.1-2.8-24.2,4.7-27,16.8
		c-0.7,3-0.8,5.9-0.3,8.7c5.3-1.9,11.3-2.9,17.8-2.9C56.3,23.2,65,25.3,72.1,29.6z"/>
	<path class="st0" d="M81.6,81.6c1.2,1.4,2.3,2.7,3.3,3.9c-1.2-0.2-2.6-0.5-4.1-0.9c-0.5-0.1-1.1-0.3-1.7-0.4
		c-0.4-0.1-0.9-0.2-1.3-0.4c-2-0.6-4.3-1.2-6.7-2c-0.5-0.2-1-0.3-1.4-0.3c-3.7-0.5-7.4,1.8-8.6,5.5c-0.3,0.8-0.4,1.6-0.4,2.4
		c0,2.9,1.6,5.7,4.2,7.1c0.1,0.1,0.3,0.2,0.5,0.2c0.3,0.1,0.6,0.3,0.9,0.4c2.5,0.8,4.8,1.5,7,2.1c1.6,0.5,3.2,0.9,4.6,1.2
		c1.6,0.4,3.2,0.7,4.6,1c2.7,0.5,5,0.7,7.2,0.7c0,0,0,0,0.1,0c0,0,0,0,0,0c0,0,0,0,0.1,0c3.1-0.1,6.1-0.4,9.2-2.4
		c1.5-1,2.9-2.5,3.8-4.3c0.9-1.7,1.2-3.6,1.2-5.2c0-3-0.9-5.3-1.9-7.4c-1.8-3.6-4.2-6.8-7-10.1c-1.7-2-3.6-4-5.4-5.9
		c-0.8,3.4-2.1,6.6-4.1,9.7C84.5,78.1,83.2,79.8,81.6,81.6z"/>
	<path class="st0" d="M0,84.4c0,4.3,1,8.8,3.1,13.3c0,0,0,0,0,0.1c1.1,2.3,2.5,4.7,4.1,7.1c3.8,5.5,9.2,11.1,16.4,17
		c0.8,0.7,1.6,1.3,2.5,2c0.9,0.7,1.8,1.1,2.8,1.4c0.7,0.2,1.4,0.3,2.2,0.3c2.3,0,4.6-1,6.2-2.9c0,0,0.1-0.1,0.1-0.1
		c1.5-1.9,2-4.2,1.6-6.4c-0.3-1.8-1.3-3.6-2.9-4.8c-2.5-2-4.8-3.9-6.8-5.8c-1.3-1.2-2.5-2.3-3.5-3.5c-0.7-0.8-1.4-1.5-2.1-2.3
		c-2.6-3-4.4-5.7-5.6-7.9c-0.1-0.3-0.3-0.6-0.4-0.8c0,0,0,0,0,0c-1.3-2.7-1.7-4.9-1.7-6.6c0-2.4,0.7-4.4,2.2-6.5
		c1.3-1.9,3.3-3.8,5.5-5.3v24c0.9,1.2,2,2.4,3.3,3.8c0.5,0.6,1.1,1.1,1.7,1.7v-0.1V102v-0.5c0-0.9,0-1.7,0.1-2.6
		c0.3-5.8,1.5-10.9,3.6-15c2.4-4.7,6.7-9.6,13.3-14.8c6.6-5.4,8.2-7.1,8.5-7.4c0.5-0.7,0.7-1.3,0.7-2.1c0-1-0.3-1.9-1.6-3.1
		c-0.5-0.4-2-1.8-6.2-1.8c-3.7,0-5.5,1.2-6.6,2.1c-0.5,0.5-1,1-1.5,1.7c-1,1.5-1.8,3.5-2.4,6.1l-0.3,1.3l-1.4,6.3l-7.7-1L26,71
		l-2.4-0.3l-5.3-0.7c-4-0.5-7.6-2.4-10.1-5.3c-1.1,1.2-2.2,2.5-3.2,3.9C2.2,72.9,0,78.2,0,84.4z"/>
	<path class="st0" d="M45.8,131.5h1.9c0.2,0,0.5,0,0.7,0c1.7-0.1,3.3-0.8,4.6-1.9c1.9-1.6,3.2-4,3.2-6.6v-1.9c0-2.7-1.2-5.1-3.2-6.6
		c-1.3-1-2.9-1.7-4.6-1.9c-0.2,0-0.5,0-0.7,0h-1.9c-2,0-3.8,0.7-5.2,1.8c0.2,0.6,0.4,1.3,0.4,2c0.3,2.7-0.4,5.3-2.1,7.4
		c-0.4,0.5-0.9,1-1.4,1.4C38.5,128.8,41.9,131.5,45.8,131.5z"/>
	<path class="st0" d="M23.7,62.2l4.7,0.6c1-4.5,2.6-8,4.8-10.7c0.1-0.1,0.2-0.3,0.3-0.4c0.5-0.5,1-1,1.5-1.5
		c3.2-2.7,7.3-4.1,12.1-4.1c5,0,8.9,1.3,11.9,3.9c0.6,0.5,1.1,1.1,1.6,1.6c1.2,1.5,2.1,3.1,2.5,4.9c0.2,0.9,0.3,1.9,0.3,2.9
		c0,1.1-0.2,2.2-0.5,3.3c-0.4,1.4-1.1,2.8-2,4c-1.1,1.4-4.4,4.3-9.9,8.8c-5.5,4.5-9.2,8.5-11,12.1c-1.3,2.5-2.1,5.4-2.5,8.9
		c-0.2,1.5-0.3,3.2-0.3,4.9c0,0.5,0,0.5,0,0.5c0,2.2,3.9,4,8.6,4h2.3h5.3h1.1c0-1,0-2,0-2.9c0.1-3.7,0.5-6.3,1.3-7.9
		c0.5-1.1,1.5-2.4,3-3.9c-0.3-1.6-0.2-3.2,0.3-4.8c1.3-4.1,5.2-6.9,9.5-6.9c0.9,0,1.9,0.1,2.8,0.4c1.7-1.6,3.1-3.1,4.3-4.5
		c0.8-1,1.5-1.8,2.1-2.7c0.2-0.3,0.4-0.6,0.6-0.9c2.4-3.7,3.5-7.7,3.5-11.9c0-0.3,0-0.5,0-0.8c-0.2-7.2-3.4-13.6-9.6-19.1
		C70.9,39,69.4,38,67.9,37c-5.8-3.5-13-5.3-21.6-5.3c-5.5,0-10.5,0.8-14.9,2.4c-3.8,1.4-7.2,3.4-10.2,6c-6.4,5.6-8.1,12.2-8.1,12.2
		c-0.7,2.6,0,5.2,1.6,6.9c1.1,1.2,2.8,2.1,4.7,2.4L23.7,62.2z"/>
</g>
</svg>
