<?xml version="1.0" encoding="utf-8"?>
<!-- Generator: Adobe Illustrator 22.1.0, SVG Export Plug-In . SVG Version: 6.00 Build 0)  -->
<svg version="1.1"
	 id="Layer_1" xmlns:cc="http://creativecommons.org/ns#" xmlns:dc="http://purl.org/dc/elements/1.1/" xmlns:inkscape="http://www.inkscape.org/namespaces/inkscape" xmlns:rdf="http://www.w3.org/1999/02/22-rdf-syntax-ns#" xmlns:sodipodi="http://sodipodi.sourceforge.net/DTD/sodipodi-0.dtd" xmlns:svg="http://www.w3.org/2000/svg"
	 xmlns="http://www.w3.org/2000/svg" xmlns:xlink="http://www.w3.org/1999/xlink" x="0px" y="0px" viewBox="0 0 89.9 90"
	 style="enable-background:new 0 0 89.9 90;" xml:space="preserve">
<style type="text/css">
	.st0{fill:#B8B8B8;}
</style>
<path class="st0" d="M89.9,78.4c0,1.6-0.3,3.1-0.9,4.5c-0.6,1.4-1.4,2.6-2.5,3.7c-1,1-2.3,1.9-3.7,2.5c-1.4,0.6-2.9,0.9-4.5,0.9H14
	c-1.4,0-2.7-0.2-3.9-0.7c-1.2-0.5-2.3-1.1-3.3-2c-1-0.8-1.8-1.8-2.5-3C3.6,83.2,3.2,82,3,80.6c-0.9-1.6-1.7-3.2-2.2-5
	C0.3,73.9,0,72.1,0,70.3c0-2.2,0.3-4.3,1-6.3c0.7-2,1.6-3.8,2.9-5.5c1.3-1.7,2.7-3.1,4.5-4.3c1.7-1.2,3.6-2.2,5.7-2.8V33.8
	c0-2.6,0.3-5.2,1-7.7c0.7-2.5,1.6-4.9,2.9-7.2c-0.3-0.8-0.6-1.5-0.8-2.3c-0.2-0.8-0.3-1.6-0.3-2.5c0-1.5,0.3-3,0.9-4.3
	c0.6-1.4,1.4-2.5,2.4-3.6c1-1,2.2-1.8,3.6-2.4c1.4-0.6,2.8-0.9,4.4-0.9h10.6c0.8-0.9,1.7-1.6,2.8-2.1C42.6,0.2,43.7,0,44.9,0
	c1.2,0,2.3,0.2,3.4,0.7c1.1,0.5,2.1,1.2,2.9,2.1h3.1c1-0.9,2.2-1.6,3.4-2.1c1.3-0.5,2.6-0.7,4-0.7c1.6,0,3,0.3,4.4,0.9
	c1.4,0.6,2.6,1.4,3.6,2.5c1,1,1.8,2.2,2.4,3.6c0.6,1.4,0.9,2.8,0.9,4.4c0,2.2-0.6,4.3-1.9,6.1c1.4,2.3,2.5,4.7,3.3,7.4
	c0.8,2.6,1.3,5.2,1.3,7.9c1.7,1.6,3.1,3.4,4.1,5.5c1,2.1,1.5,4.4,1.5,6.7c0,1.4-0.2,2.8-0.7,4.2c-0.5,1.4-1.2,2.6-2.1,3.7v8.9
	l8.1,8.7c1,1.1,1.8,2.3,2.3,3.6C89.6,75.5,89.9,76.9,89.9,78.4z M25.3,36.5c0,2.7,0.5,5.3,1.5,7.7c1,2.4,2.4,4.5,4.2,6.3
	c1.8,1.8,3.8,3.2,6.2,4.3c2.4,1,5,1.6,7.7,1.6c2.5,0,4.8-0.4,7.1-1.3c2.2-0.9,4.2-2.1,6-3.6c1.8-1.6,3.2-3.4,4.3-5.5
	c1.1-2.1,1.9-4.4,2.1-6.9c0.1-0.7,0.1-1.3,0.1-2c0-0.7,0-1.3,0-2V31c-1.7,0-3.4-0.1-5.1-0.4c-1.7-0.3-3.2-0.7-4.7-1.3
	c-1.5-0.6-2.8-1.5-4.1-2.6c-1.2-1.1-2.2-2.5-3-4.2v5.6c-1.2,0-2.3-0.1-3.4-0.2c-1.1-0.2-2.2-0.4-3.2-0.9c-1-0.4-1.8-1-2.7-1.7
	c-0.8-0.7-1.5-1.7-2-2.8c-0.4,1.2-1,2.3-1.7,3.3c-0.7,1-1.6,1.9-2.6,2.7c-1,0.8-2,1.4-3.2,1.8c-1.2,0.4-2.4,0.6-3.7,0.6L25.3,36.5z
	 M22.5,14c0,0.8,0.1,1.5,0.4,2.2c0.3,0.7,0.7,1.3,1.2,1.8c0.5,0.5,1.1,0.9,1.8,1.2c0.7,0.3,1.4,0.4,2.2,0.4h28.1
	c1.1,0,2.3-0.2,3.6-0.6c1.3-0.4,2.5-1,3.6-1.7c1.1-0.8,2.1-1.7,2.9-2.7c0.8-1,1.2-2.2,1.2-3.4c0-0.8-0.2-1.5-0.5-2.2
	c-0.3-0.7-0.7-1.3-1.2-1.8c-0.5-0.5-1.1-0.9-1.8-1.2c-0.7-0.3-1.4-0.5-2.1-0.5c-0.9,0-1.6,0.2-2.1,0.5c-0.6,0.3-1.1,0.6-1.5,1
	c-0.4,0.3-0.8,0.7-1.1,0.9c-0.3,0.3-0.6,0.4-0.9,0.4h-8.4c0-0.8-0.3-1.4-0.8-2c-0.5-0.5-1.2-0.8-2-0.8s-1.4,0.3-2,0.8
	c-0.5,0.5-0.8,1.2-0.8,2h-14c-0.8,0-1.5,0.1-2.2,0.4c-0.7,0.3-1.3,0.7-1.8,1.2c-0.5,0.5-0.9,1.1-1.2,1.8
	C22.6,12.5,22.5,13.3,22.5,14z M30.9,64.7c0,0.7-0.2,1.3-0.7,1.9c-0.5,0.5-1,0.9-1.7,0.9h1.6c0.6,0,1.2,0,1.8,0.1
	c0.6,0.1,1.1,0.3,1.7,0.5c-0.3-1.7-0.8-3.3-1.6-4.7c-0.8-1.5-1.9-2.7-3.1-3.8c-1.2-1.1-2.6-1.9-4.2-2.5c-1.6-0.6-3.2-0.9-4.9-0.9
	c-2,0-3.8,0.4-5.5,1.1c-1.7,0.7-3.2,1.7-4.5,3s-2.3,2.8-3,4.5s-1.1,3.5-1.1,5.5c0,2,0.4,3.8,1.1,5.5s1.7,3.2,3,4.5s2.8,2.3,4.5,3
	c1.7,0.7,3.5,1.1,5.5,1.1v-2.8c0-0.1-0.2-0.3-0.5-0.6c-0.3-0.3-0.6-0.7-1-1.1c-0.3-0.5-0.7-1-0.9-1.6c-0.3-0.6-0.4-1.3-0.4-2.2
	c0-1.1,0.3-2.1,0.9-3.1c0.6-1,1.4-1.7,2.4-2.1l0.6-1.1c-0.4-0.3-0.6-0.6-0.8-1c-0.2-0.4-0.3-0.8-0.3-1.3c0-0.8,0.3-1.4,0.8-2
	c0.5-0.5,1.2-0.8,1.9-0.8c0.8,0,1.5,0.2,2.1,0.5c0.6,0.3,0.9,0.9,0.9,1.8c0,0.1,0,0.1,0,0.2v0.2h2.3c-0.7-0.1-1.3-0.4-1.7-0.9
	c-0.4-0.6-0.7-1.2-0.7-1.9c0-0.8,0.3-1.4,0.8-2c0.6-0.6,1.2-0.9,2-0.9s1.4,0.3,2,0.9C30.6,63.3,30.9,63.9,30.9,64.7L30.9,64.7z
	 M78.2,84.4c0.8,0,1.6-0.2,2.3-0.5c0.7-0.3,1.4-0.7,1.9-1.3c0.5-0.5,1-1.1,1.3-1.9c0.3-0.7,0.5-1.5,0.5-2.3c0-0.8-0.1-1.5-0.4-2.2
	c-0.3-0.7-0.7-1.3-1.2-1.9L75.9,67v3.3h-5.6c-0.8,0-1.5,0.3-2,0.8c-0.5,0.5-0.8,1.2-0.8,2v5.6c0,0.8,0.3,1.5,0.8,2
	c0.5,0.5,1.2,0.8,2,0.8c0,0.8,0.3,1.5,0.8,2c0.5,0.5,1.2,0.8,2,0.8L78.2,84.4z M25.3,81.5c1.2,0,2.3-0.2,3.3-0.7
	c1-0.4,1.9-1,2.7-1.8c0.8-0.8,1.4-1.6,1.8-2.7c0.4-1,0.7-2.1,0.7-3.3c0-0.8-0.2-1.4-0.7-2c-0.5-0.6-1.1-0.9-1.9-0.9h-5.7
	c-0.8,0-1.5,0.3-2.1,0.8c-0.5,0.5-0.8,1.2-0.8,2c-0.8,0-1.4,0.3-2,0.8c-0.5,0.5-0.8,1.2-0.8,2c0,0.7,0.1,1.2,0.4,1.6
	c0.3,0.4,0.6,0.8,0.9,1.2c0.4,0.4,0.7,0.8,1,1.2c0.3,0.4,0.5,1,0.5,1.6L25.3,81.5z M73,50.6c0.8-0.7,1.5-1.5,2-2.5
	c0.5-1,0.8-2,0.8-3.1c-0.4,0-0.7-0.1-1-0.4c-0.3-0.3-0.4-0.6-0.4-1c0-0.4-0.1-0.7-0.4-1c-0.3-0.3-0.6-0.4-1-0.4
	c-0.8,0-1.4-0.3-2-0.8c-0.5-0.5-0.8-1.2-0.8-2c-0.8,0.7-1.5,1.5-2,2.5c-0.5,1-0.8,2-0.8,3.1s0.3,2.2,0.8,3.1c0.5,1,1.2,1.8,2,2.5
	v16.9H73V50.6z M14.1,70.4c0,0.8-0.3,1.4-0.9,2c-0.5,0.5-1.2,0.8-2,0.8c-0.8,0-1.5-0.3-2-0.8c-0.5-0.6-0.8-1.3-0.8-2
	c0-0.8,0.3-1.4,0.8-2c0.6-0.5,1.2-0.8,2-0.8c0.8,0,1.4,0.3,2,0.9C13.8,68.9,14.1,69.6,14.1,70.4z M19.7,61.9c0,0.8-0.3,1.4-0.8,2
	c-0.5,0.5-1.2,0.8-2,0.8c-0.8,0-1.5-0.3-2-0.8c-0.5-0.5-0.8-1.2-0.8-2c0-0.8,0.3-1.4,0.8-2c0.6-0.6,1.2-0.9,2-0.9
	c0.8,0,1.4,0.3,2,0.9C19.4,60.5,19.7,61.1,19.7,61.9z M14,76c0.8,0,1.4,0.3,2,0.8c0.5,0.5,0.8,1.2,0.8,2c0,0.8-0.3,1.4-0.9,2
	c-0.5,0.5-1.2,0.8-2,0.8s-1.4-0.3-2-0.8c-0.5-0.5-0.8-1.2-0.8-2c0-0.8,0.3-1.4,0.8-2C12.6,76.2,13.3,76,14,76z"/>
</svg>
