<?xml version="1.0" encoding="utf-8"?>
<!-- Generator: Adobe Illustrator 22.1.0, SVG Export Plug-In . SVG Version: 6.00 Build 0)  -->
<svg version="1.1" id="Layer_1" xmlns="http://www.w3.org/2000/svg" xmlns:xlink="http://www.w3.org/1999/xlink" x="0px" y="0px"
	 viewBox="0 0 100 63.8" style="enable-background:new 0 0 100 63.8;" xml:space="preserve">
<g>
	<path d="M49.6,44.2c5.4,0,9.8,4.4,9.8,9.8c0,5.4-4.4,9.8-9.8,9.8c-5.4,0-9.8-4.4-9.8-9.8C39.9,48.6,44.2,44.2,49.6,44.2L49.6,44.2z
		 M49.6,49.5L49.6,49.5c-2.5,0-4.6,2-4.6,4.6c0,2.5,2,4.6,4.6,4.6c2.5,0,4.6-2,4.6-4.6C54.2,51.5,52.2,49.5,49.6,49.5z"/>
	<path d="M3,47.9H0.8c-0.4,0-0.8,0.4-0.8,0.8v5.7c0,0.4,0.4,0.8,0.8,0.8h17.9V51H4.6c-0.4,0-0.8-0.4-0.8-0.8v-1.5
		C3.8,48.3,3.5,47.9,3,47.9z"/>
	<path d="M87.4,14.7L87.4,14.7c-0.2-0.2-0.5-0.3-0.8-0.3H71.4c-0.3,0-0.6,0.1-0.8,0.3c-0.2,0.2-0.3,0.5-0.3,0.8V55h17.3V15.4
		C87.7,15.1,87.6,14.9,87.4,14.7L87.4,14.7z M85.3,30.3c0,0.5-0.4,0.9-0.9,0.9H73.7c-0.5,0-0.9-0.4-0.9-0.9V17.5
		c0-0.5,0.4-0.9,0.9-0.9h10.6c0.5,0,0.9,0.4,0.9,0.9C85.3,17.5,85.3,30.3,85.3,30.3z"/>
	<path d="M78.4,0c-9.1,0-19.5,0-29.9,0C26.1,0,7.9,18.3,7.9,40.7v12.3c0,4.1,3.4,7.5,7.5,7.5h23.3c-1.2-1.9-1.8-4.2-1.8-6.6
		c0-7.1,5.7-12.8,12.8-12.8c7.1,0,12.8,5.7,12.8,12.8c0,2.4-0.7,4.6-1.8,6.6c24.8,0,15.4,0,31.9,0c4.1,0,7.5-3.4,7.5-7.5
		c0-10.5,0-21,0-31.5C100,9.7,90.3,0,78.4,0z M62.4,29.2c0,1.1-0.9,2-2,2H21.9C15,31.2,27,12.6,32,12.6h28.4c1.1,0,2,0.9,2,2
		L62.4,29.2L62.4,29.2z M89.6,56c0,0.5-0.4,0.9-0.9,0.9H69.4c-0.5,0-0.9-0.4-0.9-0.9V15.4c0-0.8,0.3-1.6,0.9-2.1
		c0.5-0.5,1.3-0.9,2.1-0.9h15.2c0.8,0,1.5,0.3,2.1,0.9l0,0c0.5,0.5,0.9,1.3,0.9,2.1V56z"/>
</g>
</svg>
