<?xml version="1.0" encoding="utf-8"?>
<!-- Generator: Adobe Illustrator 22.1.0, SVG Export Plug-In . SVG Version: 6.00 Build 0)  -->
<svg version="1.1" id="Layer_1" xmlns="http://www.w3.org/2000/svg" xmlns:xlink="http://www.w3.org/1999/xlink" x="0px" y="0px"
	 viewBox="0 0 89.9 56.6" style="enable-background:new 0 0 89.9 56.6;" xml:space="preserve">
<path d="M88.1,25.2c-3.2,0.9-8.4,2.1-14.2,2.4c-0.9,0-1.6-0.8-1.5-1.7c0.8-7.4,0.7-15.2-0.6-21.3c-0.3-1.3-2-1.6-2.8-0.5
	c-4.8,7.3-9.6,13.3-14.8,17.9c-0.5,0.5-1.3,0.5-1.9,0.1c-3-2.1-5.5-4.7-7.5-7.9C40.1,6.9,36.9,0,26,0C15.6,0,12.1,8.7,10.1,10.7
	c-2.2,2.1-8.3,3.7-8.3,3.7S0,14.7,0,16c0,1,1.6,1.3,1.6,1.3L9,19.1l0,0l0.9,0.2c1.3,0.4,2.2,1.1,1.9,3c-2.6,21.9,9,34.3,32.1,34.3
	c22,0,38.3-13.8,45.8-29.2C90.4,26.2,89.3,24.8,88.1,25.2z M34,14.3c-0.3,1.4-1.5,2.5-2.9,2.9c-3,0.7-5.6-1.9-4.9-4.9
	c0.3-1.4,1.5-2.5,2.9-2.9C32.1,8.7,34.7,11.3,34,14.3z"/>
</svg>
