<?xml version="1.0" encoding="utf-8"?>
<!-- Generator: Adobe Illustrator 22.1.0, SVG Export Plug-In . SVG Version: 6.00 Build 0)  -->
<svg version="1.1" id="Layer_1" xmlns="http://www.w3.org/2000/svg" xmlns:xlink="http://www.w3.org/1999/xlink" x="0px" y="0px"
	 viewBox="0 0 437 510.1" style="enable-background:new 0 0 437 510.1;" xml:space="preserve">
<style type="text/css">
	.st0{stroke:#000000;stroke-width:20;stroke-linecap:round;stroke-linejoin:round;}
	.st1{fill:none;stroke:#000000;stroke-width:20;stroke-linecap:round;stroke-linejoin:round;}
</style>
<title>Cry-Emoji-Emotion-Face-Expression-Feeling_1</title>
<path class="st0" d="M248.6,295.5c0,11-11.5,26.4-29.3,26.4s-29.3-15.4-29.3-26.4s11.5-11,29.3-11S248.6,284.5,248.6,295.5z"/>
<ellipse class="st0" cx="219.8" cy="377.9" rx="22.5" ry="27.2"/>
<line class="st1" x1="219.3" y1="322.1" x2="219.3" y2="350.7"/>
<line class="st1" x1="107.3" y1="254.5" x2="168.2" y2="254.5"/>
<path class="st0" d="M121,457.9c10.7,7.7,21.9,14.8,33.5,21.2V254.5H121V457.9z"/>
<line class="st1" x1="329.3" y1="254.5" x2="268.3" y2="254.5"/>
<path class="st0" d="M315.5,457.9c-10.7,7.7-21.9,14.8-33.4,21.2V254.5h33.4V457.9z"/>
<path d="M113.8,452L113.8,452z"/>
<path d="M323.5,452L323.5,452z"/>
<path d="M426.9,293.6V293c0-1-0.1-2-0.2-3c-0.1-1.6-0.3-3.2-0.5-4.8l0,0C419.2,217,408.7,10,367.1,10c-30,0-62,56-81.3,91.7l0,0
	c0,0-3.8-0.8-10-1.8l-3.9-0.7l-2.2-0.3c-2.2-0.4-4.6-0.7-7.1-1.1l-1.3-0.2c-1.7-0.2-3.4-0.5-5.2-0.7l-1.3-0.2
	c-12-1.7-24.2-2.7-36.3-2.9c-12.2,0.2-24.3,1.2-36.3,2.9l-1.4,0.2c-1.8,0.2-3.5,0.5-5.2,0.7l-1.3,0.2c-2.5,0.4-4.9,0.7-7.1,1.1
	l-2.1,0.3l-4,0.7c-6.1,1.1-10,1.8-10,1.8l0,0C131.9,66,99.8,10,69.9,10c-41.6,0-52.1,207-59,275.2l0,0c-0.2,1.6-0.4,3.2-0.5,4.8
	c-0.1,1-0.2,2-0.2,3v0.6c0,1-0.1,2-0.1,3v0.2c0,1,0,2.1,0,3.1v0.3c0,1.1,0.1,2.1,0.2,3.2v0.3c0.2,2.2,0.4,4.5,0.7,6.7
	c0,0,0,0.1,0,0.1c0.3,2.3,0.8,4.6,1.2,7C22.5,365.3,66,416.1,113.2,452c-41.6-43.8-54.9-91.3-67.9-120.5
	c-12.4-27.9-11.1-60.7,11.3-81.3c3.9-3.6,7.6-6.2,11-7.3c28.7-9.2,31.6-17,33.7-29.6c2.8-16.8,17.9-26,37.7-24.5
	c12.2,0.9,15.5-10.6,17.1-14.7c7.2-17.4,19.3-13.6,46,7.9c14.8,11.9-12.3-39,16.3-39l0,0c28.5,0,1.5,50.9,16.3,39
	c26.8-21.4,38.8-25.3,46-7.9c1.7,4.1,5,15.6,17.1,14.7c19.8-1.5,34.9,7.7,37.7,24.5c2.1,12.6,5,20.4,33.7,29.6
	c3.4,1.1,7.1,3.8,11,7.3c22.5,20.6,23.7,53.5,11.3,81.3c-13,29.2-26.3,76.7-67.9,120.5c47.1-35.9,90.7-86.7,100.9-134.4l0,0
	c0.5-2.3,0.9-4.6,1.2-7v-0.1c0.3-2.2,0.6-4.5,0.7-6.7c0-0.1,0-0.2,0-0.3c0.1-1.1,0.1-2.1,0.2-3.2c0-0.1,0-0.2,0-0.3c0-1,0-2.1,0-3.1
	v-0.2C427,295.7,426.9,294.7,426.9,293.6z M41.7,200.6c4.9-64.7,13.7-161,33.2-161c16.7,0,41.5,47,54.5,73.2
	C93.9,133.8,63.2,165.4,41.7,200.6L41.7,200.6z M307.6,112.8c13-26.2,37.9-73.2,54.5-73.2c19.5,0,28.3,96.3,33.2,161.1
	C373.8,165.4,343,133.8,307.6,112.8L307.6,112.8z"/>
<path class="st1" d="M218.5,500.1C151.2,500.1,2.1,381.5,10.3,290l0.5-4.7C17.7,217.1,28.3,10,69.9,10c30,0,62,56,81.3,91.7"/>
<path class="st1" d="M218.5,500.1c67.3,0,216.4-118.6,208.2-210.2l-0.5-4.7c-6.9-68.2-17.4-275.2-59-275.2c-30,0-62,56-81.3,91.7"/>
<path class="st1" d="M285.8,101.7c0,0-39.3-7.9-67.3-7.9s-67.3,7.9-67.3,7.9"/>
</svg>
