<?xml version="1.0" encoding="UTF-8"?>
<svg width="86px" height="100px" viewBox="0 0 86 100" version="1.1" xmlns="http://www.w3.org/2000/svg" xmlns:xlink="http://www.w3.org/1999/xlink">
    <!-- Generator: Sketch 51.1 (57501) - http://www.bohemiancoding.com/sketch -->
    <title>Untitled</title>
    <desc>Created with Sketch.</desc>
    <defs></defs>
    <g id="Page-1" stroke="none" stroke-width="1" fill="none" fill-rule="evenodd">
        <path d="M62.8329186,40.7098 L62.8329186,42.1625 C62.8329186,44.689 60.7842186,46.7443 58.2658186,46.7443 L58.1543186,46.7443 C55.6359186,46.7443 53.5870186,44.689 53.5870186,42.1625 L53.5870186,40.7098 L39.7619186,40.7098 L39.7619186,42.1067 C39.7619186,44.6639 37.6881186,46.7443 35.1390186,46.7443 C32.5899186,46.7443 30.5159186,44.6639 30.5159186,42.1067 L30.5159186,40.7098 L27.9140186,40.7098 L27.9140186,54.5702 L65.4374186,54.5702 L65.4358186,40.7098 L62.8329186,40.7098 Z M37.8073186,36.7882 L65.4350186,36.7882 L65.4350186,29.5429 L54.4628186,29.5429 L38.8862186,29.5429 L27.9140186,29.5429 L27.9140186,36.7882 L37.8073186,36.7882 Z M40.8407186,25.6213 L52.5082186,25.6213 L52.5082186,22.4103 L40.8407186,22.4103 L40.8407186,25.6213 Z M69.3440186,38.749 L69.3440186,54.5702 C69.3440186,56.7327 67.5904186,58.4918 65.4349186,58.4918 L27.9139186,58.4918 C25.7584186,58.4918 24.0048186,56.7327 24.0048186,54.5702 L24.0048186,29.5429 C24.0048186,27.3806 25.7584186,25.6214 27.9139186,25.6214 L36.9316186,25.6214 L36.9316186,22.4104 C36.9316186,20.248 38.6852186,18.4888 40.8407186,18.4888 L52.5082186,18.4888 C54.6638186,18.4888 56.4172186,20.248 56.4172186,22.4104 L56.4172186,25.6214 L65.4349186,25.6214 C67.5904186,25.6214 69.3440186,27.3806 69.3440186,29.5429 L69.3440186,38.749 Z M74.0955186,11.1171 C66.6939186,4.0522 56.6835186,0 46.6306186,0 C25.7045186,0 8.6796186,17.079 8.6796186,38.0722 C8.6796186,38.3016 8.6824186,38.538 8.6878186,38.7935 L0.898618602,52.5522 C-0.312081398,54.691 -0.298781398,57.2369 0.934718602,59.3625 C2.1682186,61.4882 4.3681186,62.7573 6.8199186,62.7573 L8.9535186,62.7573 L10.6979186,74.5675 C10.7249186,76.8486 11.6990186,79.0249 13.3866186,80.561 C15.1142186,82.1335 17.4358186,82.8945 19.7549186,82.6492 C19.7805186,82.6465 19.8061186,82.6431 19.8315186,82.6394 L28.4958186,81.3745 L28.4958186,98.0392 C28.4958186,99.1222 29.3708186,100 30.4503186,100 L69.0012186,100 C70.0809186,100 70.9557186,99.1222 70.9557186,98.0392 L70.9557186,76.1637 C79.7850186,65.2986 85.9100186,49.7414 85.9100186,38.0722 C85.9100186,27.9622 81.7141186,18.3894 74.0955186,11.1171 Z" id="Fill-1" fill="#000000"></path>
        <path d="M69.5,21.5 L25.9971265,65.0028735" id="Line" stroke="#FFFFFF" stroke-width="7" stroke-linecap="square"></path>
    </g>
</svg>