<svg id="Layer_1" data-name="Layer 1" xmlns="http://www.w3.org/2000/svg" viewBox="0 0 85.91 100"><defs><style>.cls-1,.cls-2{fill:#b8b8b8;}.cls-2{stroke:#fff;stroke-linecap:square;stroke-width:7px;}</style></defs><title>incognito_grey</title><g id="Page-1"><path id="Fill-1" class="cls-1" d="M62.83,40.71v1.45a4.58,4.58,0,0,1-4.56,4.58h-.12a4.58,4.58,0,0,1-4.56-4.58V40.71H39.76v1.4a4.62,4.62,0,1,1-9.24,0v-1.4H27.91V54.57H65.44V40.71Zm-25-3.92H65.44V29.54H27.91v7.25Zm3-11.17H52.51V22.41H40.84Zm28.5,13.13V54.57a3.92,3.92,0,0,1-3.91,3.92H27.91A3.92,3.92,0,0,1,24,54.57v-25a3.92,3.92,0,0,1,3.91-3.92h9V22.41a3.92,3.92,0,0,1,3.91-3.92H52.51a3.92,3.92,0,0,1,3.91,3.92v3.21h9a3.92,3.92,0,0,1,3.91,3.92ZM74.1,11.12A40.22,40.22,0,0,0,46.63,0,38.05,38.05,0,0,0,8.68,38.07c0,.23,0,.47,0,.72L.9,52.55A6.83,6.83,0,0,0,6.82,62.76H9L10.7,74.57a8.21,8.21,0,0,0,9.05,8.08h.08l8.67-1.27V98a2,2,0,0,0,1.95,2H69a2,2,0,0,0,2-2V76.16c8.83-10.86,15-26.42,15-38.09A37.1,37.1,0,0,0,74.1,11.12Z" transform="translate(0)"/><path id="Line" class="cls-2" d="M69.5,21.5,26,65" transform="translate(0)"/></g></svg>