<?xml version="1.0" encoding="utf-8"?>
<!-- Generator: Adobe Illustrator 22.1.0, SVG Export Plug-In . SVG Version: 6.00 Build 0)  -->
<svg version="1.1" id="Layer_1" xmlns="http://www.w3.org/2000/svg" xmlns:xlink="http://www.w3.org/1999/xlink" x="0px" y="0px"
	 viewBox="0 0 91.3 69.8" style="enable-background:new 0 0 91.3 69.8;" xml:space="preserve">
<style type="text/css">
	.st0{fill:#B8B8B8;}
</style>
<g>
	<g>
		<g>
			<polygon class="st0" points="56.6,57.2 56.8,57.6 58,60.7 31.8,60.7 33.1,57.6 33.2,57.2 			"/>
			<path class="st0" d="M43.9,25.1c0-1,0-1.9,0-2.9c0-1.6,2.5-1.6,2.5,0c0,1,0,1.9,0,2.9c1,0,1.9,0,2.9,0c1.6,0,1.6,2.5,0,2.5
				c-1,0-1.9,0-2.9,0c0,1,0,1.9,0,2.9c0,1.6-2.5,1.6-2.5,0c0-1,0-1.9,0-2.9c-1,0-1.9,0-2.9,0c-1.6,0-1.6-2.5,0-2.5
				C41.9,25.1,42.9,25.1,43.9,25.1z"/>
			<path class="st0" d="M28.8,61.2c0,1.2,1,2.2,2.3,2.2h27.7c1.2,0,2.3-1,2.3-2.2v-0.3l-1.9-4.7v-0.1c0-0.1-0.1-0.2-0.1-0.3
				c0-0.1-0.1-0.2-0.2-0.3c0-0.1-0.1-0.2-0.2-0.2c0,0,0-0.1-0.1-0.1c-0.2-0.2-0.3-0.3-0.6-0.4c-0.1-0.1-0.2-0.1-0.4-0.2
				c-0.1,0-0.3-0.1-0.4-0.1c-0.1,0-0.3,0-0.4,0h-1.7H34.3h-1.4c-1.2,0-2.1,0.8-2.3,1.8l0,0L28.7,61h0.1C28.8,61,28.8,61.2,28.8,61.2
				z M91.3,66.9v0.3c0,1.4-1.2,2.6-2.7,2.6H2.7c-1.5,0-2.7-1.2-2.7-2.6v-0.3l9.2-22.2c0-0.1,0-0.3,0-0.4V10V2.5C9.2,1.1,10.5,0,12,0
				h67.2c1.6,0,2.9,1.1,2.9,2.5v4.8v37c0,0.1,0,0.3,0,0.4L91.3,66.9z M78.4,43.3V3.4H12.8v39.9h1.5c0-4,1.3-8.3,3.6-11.8
				c1-1.6,2.3-3,3.8-4.1c0.2-0.2,0.2-0.3,0.2-0.5c0.1-0.5-0.1-0.8-0.3-1c-1.4-1.6-2.3-3.8-2.3-5.9c0-4.9,4-8.8,8.9-8.8h0.1
				c4.9,0,8.9,4,8.9,8.8c0,2.2-0.9,4.4-2.3,6c-0.2,0.2-0.3,0.6-0.2,0.9c0,0.2,0,0.4,0.2,0.6c1.5,1.1,2.8,2.5,3.8,4.1
				c2.2,3.4,3.5,7.8,3.6,11.8h6.5c0-4,1.3-8.3,3.6-11.8c1-1.6,2.3-3,3.8-4.1c0.2-0.2,0.2-0.3,0.2-0.5c0.1-0.5-0.1-0.8-0.3-1
				c-1.5-1.6-2.3-3.8-2.3-5.9c0-4.9,4-8.8,8.8-8.8h0.1c4.9,0,8.8,4,8.8,8.8c0,2.2-0.8,4.4-2.3,6C69,26.3,68.9,26.7,69,27
				c0,0.2,0,0.4,0.2,0.6c1.5,1.1,2.8,2.5,3.8,4.1c2.2,3.4,3.5,7.8,3.6,11.8h1.8V43.3z M52.3,43.3h20.6c-0.1-9-6-14.6-10.3-14.6
				C58.3,28.7,52.4,34.3,52.3,43.3z M67.9,19.8c0-3-2.3-5.3-5.3-5.3s-5.3,2.3-5.3,5.3c0,2.9,2.4,5.3,5.3,5.3
				C65.6,25.2,67.9,22.8,67.9,19.8z M17.9,43.3h20.6c-0.1-9-6-14.6-10.3-14.6C23.9,28.7,18,34.3,17.9,43.3z M33.5,19.8
				c0-3-2.3-5.3-5.3-5.3s-5.3,2.3-5.3,5.3c0,2.9,2.4,5.3,5.3,5.3C31.2,25.2,33.5,22.8,33.5,19.8z"/>
		</g>
	</g>
</g>
</svg>
