<?xml version="1.0" encoding="utf-8"?>
<!-- Generator: Adobe Illustrator 22.1.0, SVG Export Plug-In . SVG Version: 6.00 Build 0)  -->
<svg version="1.1" id="Layer_1" xmlns="http://www.w3.org/2000/svg" xmlns:xlink="http://www.w3.org/1999/xlink" x="0px" y="0px"
	 viewBox="0 0 90 115" style="enable-background:new 0 0 90 115;" xml:space="preserve">
<style type="text/css">
	.st0{fill:#B8B8B8;}
</style>
<title>pin pal</title>
<desc>Created with Sketch.</desc>
<g id="Page-1">
	<g id="pin-pal">
		<g id="noun_Pin_156748" transform="translate(0.000000, 54.000000)">
			<path id="Shape" class="st0" d="M36.8,49.6c-10.6-3.8-16.2-6.8-19.1-8.6c1.4-1.1,2.4-2.9,2.4-5c0,0,0,0,0-0.1c-1-0.3-2-0.6-3-0.9
				c0.1,0.3,0.2,0.6,0.2,1c0,1.5-1,2.6-2.3,2.6s-2.3-1.2-2.3-2.6c0-0.9,0.4-1.7,1-2.2c-1-0.4-2-0.8-2.9-1.2c-0.6,1-1,2.1-1,3.4
				c0,2.6,1.4,4.7,3.4,5.6c1,1,5.7,5,22.8,11.1L59.1,61l3.9-0.3l-3.1-2.8L36.8,49.6z M75.6,34.2c0.2,0.6,0.4,1.2,0.4,1.9
				c0,2.6-1.8,4.7-4,4.7H62c-6.8,0-6.6,4.2-6.6,4.8H72c4.5,0,8.2-4.3,8.2-9.5c0-1.3-0.2-2.5-0.6-3.6C78.3,33.1,77,33.7,75.6,34.2z
				 M64.2,37.3c1.6,0.6,3.4,0.7,5.6,0.7l0.6-2.1C68.5,36.4,66.4,36.9,64.2,37.3z M45,0C20.6,0,0,8.4,0,18.4s20.6,18.4,45,18.4
				s45-8.4,45-18.4S69.4,0,45,0z M75,9.7c0.2-0.6,0.7-0.9,1.2-0.7c1.6,0.7,3,1.4,4.2,2.1c0.5,0.3,0.6,1,0.4,1.5
				c-0.2,0.4-0.5,0.6-0.8,0.6c-0.2,0-0.3,0-0.5-0.1c-1.1-0.7-2.4-1.4-3.9-2C75.1,10.9,74.8,10.3,75,9.7z M5.6,19.8
				c-0.5,0-1-0.5-1-1.1c0-1.2,0.3-2.3,1-3.4c0.3-0.5,0.9-0.6,1.3-0.3c0.4,0.3,0.5,1,0.2,1.5c-0.4,0.7-0.6,1.4-0.6,2.1
				C6.5,19.3,6.1,19.8,5.6,19.8z M45,32.9c-17.1,0-32-3.6-37.9-9.1c-0.4-0.4-0.5-1.1-0.1-1.5c0.3-0.5,0.9-0.5,1.3-0.2
				c5.5,5.1,20.2,8.6,36.7,8.6c22.8,0,38.7-6.5,38.7-12.3c0-1.1-0.5-2.2-1.6-3.3c-0.4-0.4-0.4-1.1-0.1-1.6c0.4-0.4,1-0.5,1.3-0.1
				c1.5,1.5,2.2,3.2,2.2,5C85.6,27.5,64.9,32.9,45,32.9z"/>
		</g>
		
			<g id="g216" transform="translate(17.132112, 39.833276) rotate(-20.000000) translate(-17.132112, -39.833276) translate(3.632112, 26.833276)">
			<path id="Fill-187" class="st0" d="M27,7.8C26.6,3.3,23.5,0,19.6,0c-2.6,0-4.9,1.4-6.2,3.7C12.1,1.4,9.9,0,7.4,0
				C3.5,0,0.4,3.3,0,7.8C0,8-0.1,9,0.3,10.7c0.6,2.5,1.9,4.7,3.7,6.5l9.4,8.8l9.6-8.8c1.9-1.8,3.2-4,3.7-6.5C27.1,9,27,8,27,7.8"/>
		</g>
		
			<g id="g216_1_" transform="translate(41.342481, 25.487573) scale(-1, 1) rotate(-20.000000) translate(-41.342481, -25.487573) translate(31.842481, 15.987573)">
			<path id="Fill-187_1_" class="st0" d="M18.8,5.4C18.6,2.3,16.4,0,13.7,0c-1.8,0-3.4,1-4.4,2.6C8.5,1,6.9,0,5.1,0
				C2.5,0,0.3,2.3,0,5.4c0,0.1-0.1,0.9,0.2,2c0.4,1.7,1.3,3.3,2.6,4.5l6.6,6.1l6.7-6.1c1.3-1.2,2.2-2.8,2.6-4.5
				C19,6.2,18.9,5.5,18.8,5.4"/>
		</g>
		
			<g id="g216_2_" transform="translate(51.302415, 8.302415) scale(-1, 1) rotate(12.000000) translate(-51.302415, -8.302415) translate(44.302415, 1.302415)">
			<path id="Fill-187_2_" class="st0" d="M13.6,3.9C13.4,1.6,11.9,0,9.9,0C8.6,0,7.4,0.7,6.8,1.9C6.1,0.7,5,0,3.7,0
				C1.8,0,0.2,1.6,0,3.9C0,4-0.1,4.5,0.1,5.4C0.4,6.6,1.1,7.7,2,8.6L6.8,13l4.8-4.4c1-0.9,1.6-2,1.9-3.2C13.7,4.5,13.6,4,13.6,3.9"
				/>
		</g>
	</g>
</g>
</svg>
