<?xml version="1.0" encoding="UTF-8"?>
<svg viewBox="0 0 333 333" version="1.1" xmlns="http://www.w3.org/2000/svg" xmlns:xlink="http://www.w3.org/1999/xlink">
    <!-- Generator: Sketch 50.2 (55047) - http://www.bohemiancoding.com/sketch -->
    <title>presenter copy</title>
    <desc>Created with Sketch.</desc>
    <defs></defs>
    <g id="presenter-copy" stroke="none" stroke-width="1" fill="none" fill-rule="evenodd">
        <path d="M233.120838,43.4178989 C236.63499,31.0546681 248.01008,22 261.5,22 C266.764376,22 271.706682,23.378947 275.985421,25.7953446 L270.425873,39.7529108 C269.592202,41.8458876 270.405979,44.0985508 272.551769,45.6377305 C274.471846,47.0150065 277.584908,47.0150065 279.504985,45.6377305 C281.650775,44.0985508 282.464552,41.8458876 281.630882,39.7529108 L276.096432,25.8583552 C284.998621,30.9368271 291,40.517565 291,51.5 C291,67.7924001 277.7924,81 261.5,81 C248.276708,81 237.085474,72.2997261 233.338378,60.3112579 C232.47112,61.3983666 231.418844,62.3664172 230.193372,63.1656035 L230.193386,63.1656244 C219.384362,70.2146825 214.419664,74.8805289 215.299293,77.1631636 C218.017255,82.2495371 227.190375,88.0140937 244.857125,88.0140937 L278.831645,88.0140937 C300.915082,88.0140937 309.748457,111.750503 314.50489,124.635983 C315.18438,126.331441 315.524126,128.026898 316.203616,129.383265 C320.960049,140.912378 327.075462,171.091527 327.754953,174.482443 C329.113933,181.603366 324.697246,188.046105 317.562597,189.06338 C316.883106,189.402472 315.863871,189.402472 315.18438,189.402472 C309.408712,189.402472 303.972789,185.333373 302.953553,179.229725 C300.575337,167.36152 295.818904,145.65966 293.100943,138.877828 C292.421452,137.521462 291.741962,135.826004 291.062472,133.791455 L290.043236,182.959732 L303.633044,299.60723 C304.652279,307.745428 298.876611,314.866351 290.722726,315.883625 C290.043236,315.883625 289.703491,315.883625 289.024,315.883625 C281.549606,315.883625 275.434193,310.45816 274.414957,302.998146 L261.844385,197.201578 L249.613558,302.998146 C248.594322,311.136343 241.459673,316.9009 233.305788,315.883625 C225.151904,314.866351 219.376235,307.745428 220.395471,299.60723 L233.985279,182.959732 L232.626298,112.767778 C206.465918,109.376862 192.430569,89.6310168 189.033117,83.1882771 C182.508374,71.5939637 191.688186,57.5646573 216.572542,41.1003436 C216.774892,40.9664624 216.981062,40.8384465 217.190795,40.7164557 C222.543314,37.6031724 229.238114,38.8699344 233.120838,43.4178989 Z M190.319961,126.703508 C197.084183,125.3442 203.510194,130.441605 204.863038,136.558492 C205.877672,143.355033 201.142716,149.811747 194.378494,150.831229 C185.246794,152.190537 177.467938,152.870191 170.365505,152.870191 C152.102104,152.870191 140.941138,148.112612 136.882604,138.597455 C136.206182,137.238147 135.52976,135.199184 134.853338,133.160222 C134.853338,133.160222 134.515126,132.820395 134.515126,132.480568 L133.500493,185.833415 C133.500493,186.852896 133.838704,187.53255 133.838704,188.212204 L133.838704,188.891858 L132.48586,233.409202 C133.500493,240.54557 145.676093,270.790178 156.160638,295.257726 C159.204538,302.733921 155.822427,311.229597 148.381782,314.627867 C146.690727,315.647349 144.66146,315.987176 142.632193,315.987176 C136.882604,315.987176 131.471226,312.588905 129.103749,307.151672 C102.723282,245.642976 103.061493,236.467646 103.061493,233.409202 L104.076126,201.465459 C101.370437,212.000098 96.2972704,229.671105 93.9297926,237.826954 C92.238737,243.943841 91.9005259,275.207929 92.9151593,300.694958 C93.2533704,308.850808 86.8273592,315.647349 78.7102924,315.987176 C70.5932256,316.327003 63.8290033,309.870289 63.4907922,301.71444 C63.1525811,288.121357 61.7997366,242.92436 65.5200589,229.671105 C68.5639589,219.136466 76.0046035,193.30961 77.6956591,186.513069 C77.6956591,186.173242 77.6956591,185.833415 77.6956591,185.493588 L76.3428146,119.227313 C74.651759,120.926448 72.9607034,122.96541 70.9314367,125.3442 C65.85827,131.461087 59.4322588,139.616936 48.9477142,139.616936 C48.271292,139.616936 47.2566587,139.616936 46.5802364,139.616936 C40.1542252,138.937282 30.0078918,137.577974 20.1997694,88.3030511 L13.4355471,90.6818404 C12.7591249,91.0216675 12.0827027,91.0216675 11.4062804,91.0216675 C9.37701373,91.0216675 7.00953592,89.6623593 6.33311369,87.2835699 C5.31848034,84.5649535 6.67132481,81.166683 9.71522484,80.1472018 L18.846925,76.7489313 C19.5233472,71.3116985 23.2436695,66.5541198 28.9932584,65.5346386 C33.0517918,64.8549845 37.1103252,66.2142927 39.8160141,68.9329091 L48.6095031,65.5346386 C49.2859254,59.7575787 54.3590921,55 60.4468922,55 C67.2111145,55 72.6224923,60.4372328 72.6224923,67.2337739 C72.6224923,74.0303149 67.2111145,79.4675477 60.4468922,79.4675477 C57.4029921,79.4675477 54.3590921,78.4480666 52.3298254,76.4091043 L44.2127586,79.4675477 C46.2420253,90.6818404 49.2859254,101.896133 51.6534032,109.372328 C58.4176255,100.876652 69.2403812,88.3030511 88.5184148,88.3030511 L105.428971,88.3030511 L122.339526,88.3030511 C144.66146,88.3030511 153.454949,112.090945 158.189905,125.004373 C158.189905,126.023854 158.528116,126.703508 158.866327,127.383162 C164.277705,128.74247 178.14436,128.402643 190.319961,126.703508 Z M105.5,81 C89.2075999,81 76,67.7924001 76,51.5 C76,35.2075999 89.2075999,22 105.5,22 C121.7924,22 135,35.2075999 135,51.5 C135,67.7924001 121.7924,81 105.5,81 Z" id="Combined-Shape" fill="#B8B8B8" fill-rule="nonzero"></path>
    </g>
</svg>