<?xml version="1.0" encoding="utf-8"?>
<!-- Generator: Adobe Illustrator 22.1.0, SVG Export Plug-In . SVG Version: 6.00 Build 0)  -->
<svg version="1.1"
	 id="Layer_1" xmlns:cc="http://creativecommons.org/ns#" xmlns:dc="http://purl.org/dc/elements/1.1/" xmlns:inkscape="http://www.inkscape.org/namespaces/inkscape" xmlns:rdf="http://www.w3.org/1999/02/22-rdf-syntax-ns#" xmlns:sodipodi="http://sodipodi.sourceforge.net/DTD/sodipodi-0.dtd" xmlns:svg="http://www.w3.org/2000/svg"
	 xmlns="http://www.w3.org/2000/svg" xmlns:xlink="http://www.w3.org/1999/xlink" x="0px" y="0px" viewBox="0 0 86 86"
	 style="enable-background:new 0 0 86 86;" xml:space="preserve">
<g transform="translate(0,-952.36218)">
	<path d="M84,952.4c-1.1,0.3-2.2,0.5-3.3,0.8c0,0-58.1,81.5-58.4,82.1c-0.2,0.3-0.3,0.7-0.3,1.1c0,1.1,0.9,2,2,2
		c0.5,0,1-0.2,1.4-0.6c0.4-0.4,13.7-19.2,13.7-19.2c25.7-6.8,46.9-26.3,46.9-52.2C86,961.6,85.5,956.9,84,952.4z M74.4,955.2
		c-6.1,2.2-11.9,5.2-17.1,8.9L61,974L74.4,955.2z M53.9,966.5c-11.7,9.3-19.7,22.2-19.9,37.8c0,2.8,0,5,0.2,7.3l24-33.7L53.9,966.5z
		 M2,1034.4c-1.1,0-2,0.9-2,2s0.9,2,2,2h12c1.1,0,2-0.9,2-2s-0.9-2-2-2H2z"/>
</g>
</svg>
