<?xml version="1.0" encoding="utf-8"?>
<!-- Generator: Adobe Illustrator 22.1.0, SVG Export Plug-In . SVG Version: 6.00 Build 0)  -->
<svg version="1.1" id="Layer_1" xmlns="http://www.w3.org/2000/svg" xmlns:xlink="http://www.w3.org/1999/xlink" x="0px" y="0px"
	 viewBox="0 0 373.5 262.9" style="enable-background:new 0 0 373.5 262.9;" xml:space="preserve">
<g>
	<path d="M227.6,249.8v-0.2c-6.9,3.3-14.1,6.3-21.4,9.1c2.3,2.4,5.5,3.9,9,3.9c5,0,9.3-2.9,11.2-7.2c0-0.3,0-0.6,0-0.9
		C226.4,252.8,226.8,251.2,227.6,249.8z"/>
	<path d="M283.8,58.6c4.3,0,8.3,1.1,11.8,3c4.9-7.6,9.2-16.9,12.3-28.4c1.2-4.3-1.4-8.7-5.6-9.8c-4.3-1.2-8.7,1.4-9.8,5.6
		c-3.8,14-9.3,23.6-15.1,30.4c1.7-0.5,3.5-0.8,5.4-0.8C283.1,58.7,283.5,58.6,283.8,58.6z"/>
	<path d="M167.4,29.1c-1.2-4.3-5.6-6.8-9.8-5.6c-1.7,0.5-3.2,1.5-4.2,2.8c7.7,4.1,13,12.3,13,21.6c0,4.4-1.2,8.5-3.2,12.1
		c4.6,7.6,9.9,13.4,15.1,17.9c0.1-2.9,0.2-6.3,0.2-10.1c0-1.9,0-3.8-0.1-5.9c0-2,0.5-3.9,1.5-5.5C175.1,49.8,170.6,41,167.4,29.1z"
		/>
	<path d="M256.6,194.5l0.4,0.3v-3.2c-1.7-0.4-3.4-0.9-5-1.7L256.6,194.5z"/>
	<path d="M222.8,113.4c0-4.7,3.8-8.5,8.4-8.6l25.8-0.2V90.9c1-0.3,2.1-0.6,3.3-1c-0.5-1.9-0.9-3.8-0.9-5.8
		c-0.2-4.4,0.8-8.6,2.7-12.3c-3.6,1.9-6.9,3-9.3,3.6c-1.1,0.3-2.1,0.5-2.8,0.6c-0.2,0-0.4,0-0.7,0h-38.6c-0.2,0-0.5,0-0.7,0
		c-2.2-0.4-6.5-1.4-11.5-3.9c-0.1,6.6-0.5,12.2-1.1,17c2,0.7,3.9,1.3,5.5,1.7v84.8c12.7-0.1,21.6-1.4,22.6-1.6l0.3,0
		c0.6-0.1,1.2-0.2,1.7-0.2c0,0,0,0,0.1,0v-14h4.6v14.4c2.3,0.4,4.7,1.2,6.3,2.7l1.5,1.5c-2.6-5.2-3.2-11.2-1.7-16.9
		c1.6-6.3,5.6-11.7,11.3-15c2.3-1.4,4.8-2.3,7.4-2.9v-22.1l-25.6,0.2C226.6,121.9,222.8,118.1,222.8,113.4z"/>
	<path d="M257,242.8v-11.2c-6.1,4.9-12.7,9.1-19.5,12.9C246.7,244.4,252.9,243.6,257,242.8z"/>
	<path d="M211.6,195.5c-2.9,0.1-5.8,0.2-8.7,0.2v8.6C206.2,201.8,209.1,198.9,211.6,195.5z"/>
	<circle cx="229.9" cy="47.9" r="22.5"/>
	<path d="M345.6,39.5c1.6-3.2,0.2-7.1-3-8.7c-3.2-1.6-7.1-0.2-8.7,3L307.8,88c-2.2,10.8-11.5,19.1-23,19.6c-0.3,0-0.7,0-1,0
		c-2.5,0-5-0.4-7.3-1.1l-45.2,0.3c-3.6,0-6.5,3-6.5,6.6c0,3.6,2.9,6.4,6.5,6.4c0,0,0,0,0.1,0l49.7-0.4c9.1,25.2,13.4,50.8,13.4,75.7
		c4.8-1.2,9.6-2.4,14.4-3.6v59.9c0,5.5,4.5,10,10,10c5.5,0,10-4.5,10-10v-64.9c1.1-0.3,2.2-0.6,3.3-0.8v65.7c0,5.5,4.5,10,10,10
		c5.5,0,10-4.5,10-10v-70.7c7.1-1.8,14.2-3.5,21.3-5.3c-13.9-30.8-32.5-58-54.5-80.9L345.6,39.5z"/>
	
		<ellipse transform="matrix(0.9992 -4.119800e-02 4.119800e-02 0.9992 -3.1845 11.7625)" cx="283.8" cy="83.1" rx="22.5" ry="22.5"/>
	<path d="M158,225.4c0.6,0.1,1.2,0.2,1.9,0.3l-1.5-1.2L158,225.4z"/>
	<path d="M158.4,254.9c2.2,4.8,7.3,7.8,12.8,7.1c1.7-0.2,3.2-0.8,4.6-1.6c-2.6-1.1-5-2.2-5.8-2.4
		C167.1,256.9,163.1,255.8,158.4,254.9z"/>
	<path d="M165,192.1l10.8,9.1l-1-7.4C171.5,193.3,168.2,192.7,165,192.1z"/>
	<path d="M131.1,214.6l7.1-54.7h7.3l1.1,8.5c1.1-0.5,2.4-0.7,3.7-0.7c1.1,0,2.2,0.2,3.2,0.5c6.3,2.1,12.6,3.7,18.6,4.8l-3.3-25.1
		v-39.8c1.1,1,2.4,1.9,3.9,2.6c1.7,0.9,3.8,1.6,6.3,1.6c0.1,0,0.1,0,0.2,0c0,0,0,0,0.1,0c1.7,0,3.6-0.4,5.2-1.2c3-1.4,5-3.8,6.4-6.3
		c2.1-3.8,3.3-8.3,4.2-14.2c0.9-6,1.3-13.5,1.3-23c0-2,0-4.1-0.1-6.2c-0.1-4.4-3.7-7.9-8.1-7.9c-4.4,0.1-7.9,3.7-7.9,8.1
		c0,2.1,0.1,4.1,0.1,5.9c0,13.7-1.1,22.4-2.4,26.7c0,0.1-0.1,0.2-0.1,0.4c-0.2-0.2-0.4-0.5-0.7-0.7c0,0-0.1-0.1-0.1-0.1
		c-1.8-2.1-3.7-4.9-5-7.1c-0.7-1.1-1.2-2.1-1.6-2.8c-0.2-0.3-0.3-0.6-0.4-0.8c-0.1-0.2-0.1-0.2-0.1-0.2c-0.5-0.9-1.1-1.7-1.8-2.3
		c-1.2-2.7-3.9-4.7-7.1-4.7h-33.6L86.2,4C84,0.2,79.1-1.1,75.3,1.1c-3.8,2.2-5.1,7.1-2.9,10.9l28.1,48.9c8.5,4.1,14.2,13,13.7,23
		c0,0.3,0,0.5-0.1,0.8l0.7,1.2V148l-10.4,80.3c7.7-1.8,15.2-3,22.7-3.6L131.1,214.6z"/>
	<path d="M118.6,254.9c-4.5,0.8-9.1,1.8-13.7,3.1c1.9,2.1,4.5,3.5,7.5,3.9c3.2,0.4,6.3-0.5,8.8-2.2c-0.9-1.1-1.6-2.3-2.2-3.6
		C118.9,255.7,118.8,255.3,118.6,254.9z"/>
	<circle cx="141.8" cy="47.9" r="22.5"/>
	<ellipse cx="262" cy="167.8" rx="22.5" ry="22.5"/>
	<path d="M120.6,254.6c1.2,3.3,3.7,6,7.1,7.4c1.5,0.6,3.1,0.9,4.6,0.9c5,0,9.7-3,11.6-7.9l0.7-1.8c-1.7-0.1-3.5-0.1-5.4-0.1
		C133.2,253.1,127,253.6,120.6,254.6z"/>
	<path d="M237.1,178.5c-1.7-1.6-4.8-2.4-7.8-2.4c-1-0.2-2.1-0.3-3.2-0.1c0,0-0.1,0-0.3,0.1c-1.9,0.3-11.1,1.6-23.9,1.6
		c-13.8,0-31.8-1.6-49.1-7.5c-4.2-1.4-8.7,0.8-10.2,5c-1.4,4.2,0.8,8.7,5,10.2c19.6,6.7,39.2,8.4,54.2,8.4c5.1,0,9.7-0.2,13.6-0.5
		c-5.7,9.2-13.1,15.9-27.7,20.7l-27.4-23.1c-3.1-2.6-7.2-3.6-11.1-2.6c-3.9,1-7.1,3.8-8.6,7.5l-11.5,28.7c3.4-0.2,6.7-0.4,10-0.4
		c6,0,11.6,0.4,16.7,1l1.6-4l6.2,5.2c5.2,1,9.8,2.2,13.8,3.5l0.4,2.2c-9.2-3.1-22.3-6-38.7-6c-17.1,0-37.8,3.2-61.2,12.5
		c-6.4,2.5-9.6,9.8-7,16.2c1.9,4.9,6.6,7.9,11.6,7.9c1.5,0,3.1-0.3,4.6-0.9c20.6-8.2,38-10.8,52-10.8c13.8,0,24.4,2.5,31.4,5
		c3.5,1.2,6.1,2.4,7.7,3.2c0.8,0.4,1.4,0.7,1.7,0.9c0.2,0.1,0.3,0.2,0.3,0.2l0,0c3,1.9,6.4,2.4,9.6,1.7c0.9-0.1,1.9-0.3,2.9-0.6
		c24.8-9,49.3-18.8,68.7-36.4c0.2,0.2,0.3,0.4,0.5,0.6c1.9,2.3,3.6,4.8,4.7,7c1.2,2.3,1.7,4.2,1.6,5.4c0,0.9-0.1,1.2-0.5,1.8
		c-0.5,0.8-2.4,2.6-7.5,4.1c-5,1.5-12.9,2.6-24,2.5c-4.4,0-8,3.6-8,8c0,4.4,3.6,8,8,8c16.2,0,27.1-1.8,35.2-5.7c4-2,7.3-4.6,9.6-7.9
		c2.3-3.3,3.3-7.3,3.3-10.8c0-5.1-1.7-9.4-3.7-13.3c-3.1-5.8-7.3-10.7-10.8-14.3c-2.1-2.2-3.9-3.9-5.1-4.9c-0.2-0.3-0.4-0.5-0.6-0.7
		C255.2,196,246.2,187.2,237.1,178.5z"/>
	<path d="M88.7,107.4c-11.2-0.5-20.3-8.4-22.8-18.8c-0.3-0.1-0.7-0.2-1-0.3c-0.9-0.7-4.1-3.4-7.1-7.6c-3.5-4.9-6.8-11.8-6.8-20.5
		c0-6.5,1.8-14.2,7.3-23.5c1.8-3.1,0.8-7.1-2.2-8.9c-3.1-1.8-7.1-0.8-8.9,2.2c-6.5,10.9-9.2,21.1-9.1,30.1c0,12.5,4.9,22.2,9.8,28.7
		c2,2.7,4,4.9,5.7,6.5C31.9,118.2,13.7,145,0,175.3c7.1,1.8,14.2,3.5,21.3,5.3v70.7c0,5.5,4.5,10,10,10c5.5,0,10-4.5,10-10v-65.7
		c1.1,0.3,2.2,0.6,3.3,0.8v64.9c0,5.5,4.5,10,10,10c5.5,0,10-4.5,10-10v-59.9c4.8,1.2,9.6,2.4,14.4,3.6c0-16.1,1.8-32.5,5.5-48.8
		c-0.9-0.7-1.9-1.6-3-2.5c-4.2-3.7-9.1-8.6-15.1-14.9c-1.6-1.7-2.4-3.8-2.3-6.1c0.1-2.3,1-4.4,2.7-5.9c1.6-1.5,3.6-2.3,5.8-2.3
		c2.3,0,4.6,1,6.2,2.7c5.5,5.8,10.1,10.5,13.9,13.7c2.4,2.2,4.2,3.4,5.1,4.1l-0.7,1.9c-1.3-0.8-3.3-2.3-5.8-4.5
		c-3.5-3.1-8.2-7.6-14-13.9c-2.5-2.6-6.6-2.8-9.2-0.3c-2.6,2.5-2.8,6.6-0.3,9.2c6,6.4,10.9,11.2,14.9,14.7c4,3.5,7,5.7,10,7.1
		c0,0,0.1,0,0.1,0.1c1.6,0.7,3.3,1.3,5.6,1.2c1.1-0.1,2.4-0.4,3.6-1c1.2-0.6,2.2-1.6,2.8-2.6c0,0,0,0,0,0c1.4-2.2,1.5-4.1,1.6-5.7
		c0-3.2-0.9-6-1.9-9.1c-3-9.1-8.6-19.5-8.7-19.7c-0.2-0.3-0.4-0.7-0.6-0.9c0,0,0-0.1,0-0.1c0,0-0.8-1.6-2.9-4.1
		c-0.9,0.1-1.9,0.2-2.8,0.2C89.4,107.4,89,107.4,88.7,107.4z"/>
	<ellipse cx="89.7" cy="82.9" rx="22.5" ry="22.5"/>
</g>
</svg>
