<?xml version="1.0" encoding="utf-8"?>
<!-- Generator: Adobe Illustrator 22.1.0, SVG Export Plug-In . SVG Version: 6.00 Build 0)  -->
<svg version="1.1" id="Layer_1" xmlns="http://www.w3.org/2000/svg" xmlns:xlink="http://www.w3.org/1999/xlink" x="0px" y="0px"
	 viewBox="0 0 64.9 97.8" style="enable-background:new 0 0 64.9 97.8;" xml:space="preserve">
<path d="M62.7,2.6C61.1,0.9,59,0,56.7,0H8.3C6,0,3.9,0.9,2.3,2.6S-0.1,6.4,0,8.7l4.1,81.2c0.2,4.4,3.9,7.9,8.3,7.9h39.8
	c4.4,0,8.1-3.4,8.3-7.8l4.4-81.2C65.1,6.5,64.3,4.3,62.7,2.6z M10.7,94c-1.7-0.7-3-2.3-3.1-4.3l-0.1-2.5h5.6L10.7,94z M13.2,73.9
	c-0.5,0-0.9-0.4-0.9-0.9s0.4-0.9,0.9-0.9s0.9,0.4,0.9,0.9C14.2,73.4,13.7,73.9,13.2,73.9z M14.2,94.4l2-5.7l5.7,5.7H14.2z
	 M14.2,35.5c0-0.6,0.5-1.1,1.1-1.1s1.1,0.5,1.1,1.1s-0.5,1.1-1.1,1.1C14.7,36.6,14.2,36.1,14.2,35.5z M22.1,64.2
	c1.8,0,3.3,1.5,3.3,3.3s-1.5,3.3-3.3,3.3s-3.3-1.5-3.3-3.3C18.7,65.7,20.2,64.2,22.1,64.2z M20.6,58c0-0.8,0.7-1.5,1.5-1.5
	s1.5,0.7,1.5,1.5s-0.7,1.5-1.5,1.5S20.6,58.8,20.6,58z M19.5,79.5c0,0.7-0.6,1.3-1.3,1.3s-1.3-0.6-1.3-1.3c0-0.7,0.6-1.3,1.3-1.3
	C19,78.2,19.5,78.8,19.5,79.5z M19.5,87.2h10.1L26,93.7L19.5,87.2z M29.6,94.4l2.9-5.4l3.1,5.4H29.6z M35.4,87.2h9.3l-5.9,5.9
	L35.4,87.2z M40.1,44.5c-1.9,0-3.4-1.5-3.4-3.4s1.5-3.4,3.4-3.4s3.4,1.5,3.4,3.4S42,44.5,40.1,44.5z M43.3,68.5
	c0,0.9-0.7,1.6-1.6,1.6c-0.9,0-1.6-0.7-1.6-1.6s0.7-1.6,1.6-1.6S43.3,67.6,43.3,68.5z M37.1,29.7c-0.8,0-1.5-0.7-1.5-1.5
	s0.7-1.5,1.5-1.5s1.5,0.7,1.5,1.5S37.9,29.7,37.1,29.7z M42.5,94.4l5.7-5.7l2,5.7H42.5z M50.2,53.6c-0.5,0-0.9-0.4-0.9-0.9
	s0.4-0.9,0.9-0.9s0.9,0.4,0.9,0.9S50.7,53.6,50.2,53.6z M57.1,89.7c-0.1,2.1-1.5,3.8-3.4,4.4l-2.4-6.9h6L57.1,89.7z M51.5,35
	c0-0.8,0.6-1.4,1.4-1.4s1.4,0.6,1.4,1.4c0,0.8-0.6,1.4-1.4,1.4C52.2,36.5,51.5,35.8,51.5,35z M60.4,29.1c-8.9-0.5-14-3.4-19.4-6.5
	c-3.5-2-7.2-4.1-11.9-5.4c-9.5-2.6-20.3,1.5-25,3.8L3.4,8.6C3.3,7.3,3.8,6,4.7,5s2.2-1.5,3.5-1.5h48.4C58,3.5,59.2,4,60.1,5
	s1.4,2.3,1.3,3.6L60.4,29.1z"/>
</svg>
