<?xml version="1.0" encoding="UTF-8"?>
<svg viewBox="0 0 333 333" version="1.1" xmlns="http://www.w3.org/2000/svg" xmlns:xlink="http://www.w3.org/1999/xlink">
    <!-- Generator: Sketch 50.2 (55047) - http://www.bohemiancoding.com/sketch -->
    <title>tim tam copy</title>
    <desc>Created with Sketch.</desc>
    <defs></defs>
    <g id="tim-tam-copy" stroke="none" stroke-width="1" fill="none" fill-rule="evenodd">
        <path d="M270.888889,186.846715 L304.888889,186.846715 C313.234525,186.846715 320,193.238913 320,201.124088 L320,217.186131 C320,233.942128 305.623366,247.525547 287.888889,247.525547 L268.01441,247.525547 C262.560944,269.696397 249.652959,289.164906 231.921437,303.445255 L307.407407,303.445255 C307.407407,319.215605 293.876458,332 277.185185,332 L44.2222222,332 C27.5309498,332 14,319.215605 14,303.445255 L88.2267114,303.445255 C64.3813172,284.241007 49.2592593,255.654004 49.2592593,223.729927 L49.2592593,169 L105.925926,169 L105.925926,202.313869 L89.5555556,209.452555 L89.5555556,241.576642 L132.37037,241.576642 L132.37037,209.452555 L114.740741,202.313869 L114.740741,169 L270.888889,169 L270.888889,186.846715 Z M243.497989,13.9486742 C248.454725,16.3290581 250.425563,22.0459557 247.89998,26.7177223 L191.240626,131.524917 C188.821055,129.739481 185.592637,129.421869 182.887416,130.550168 C182.144535,129.552627 181.139305,128.706927 179.906894,128.115084 C176.844259,126.644308 173.260597,127.164792 170.817035,129.167832 C169.800407,128.424812 168.582473,127.897465 167.227486,127.67228 C163.835326,127.108538 160.563106,128.601229 158.850598,131.200173 C157.652944,130.774795 156.33147,130.60872 154.97306,130.765923 C151.728853,131.14136 149.16235,133.257865 148.198185,136 L116.502011,120.778478 C111.545275,118.398094 109.574437,112.681197 112.10002,108.00943 L168.868704,3 C170.362011,4.62888584 172.524365,5.59923165 174.803498,5.66831527 C175.011467,6.85857323 175.519604,8.02024578 176.343256,9.05042869 C178.420543,11.6485981 181.904015,12.6590619 185.042182,11.8498164 C185.61021,12.9238442 186.453383,13.8884474 187.554728,14.6426179 C190.353085,16.5588561 194.007253,16.5612509 196.759269,14.9122291 C197.665251,15.8077976 198.813431,16.5102697 200.149656,16.9194749 C203.398105,17.9142787 206.828352,16.8911847 208.913379,14.5835158 C210.053433,15.184572 211.363007,15.5364073 212.760521,15.5593986 C216.18284,15.615701 219.151137,13.6838031 220.424764,10.8929047 C221.69568,11.1492281 223.049989,11.1231919 224.386572,10.7619671 C226.54654,10.1782141 228.253596,8.82898221 229.271179,7.11650272 L243.497989,13.9486742 Z M270,199 L270,235 L286.25,235 C296.605339,235 305,226.941125 305,217 L305,209.8 C305,203.835325 299.963203,199 293.75,199 L270,199 Z" id="Combined-Shape" fill="#B8B8B8"></path>
    </g>
</svg>