<svg version="1" xmlns="http://www.w3.org/2000/svg" width="933.333" height="933.333" viewBox="0 0 700.000000 700.000000"><path d="M153.4 133.4c-18.9 5-27.1 28.1-15.6 43.6 1.5 1.9 40.8 41.6 87.4 88.2L310 350l-86 86c-66.2 66.2-86.5 87.1-88.5 91-7.5 14.8-.4 33 15.3 39 7.3 2.8 13.6 2.6 20-.6 4.1-2 22.9-20.3 91.6-89l86.4-86.4 86.5 86.4c60.1 60.1 87.8 87.1 90.8 88.6 6.6 3.3 16.1 3.6 22.5.6 14.8-7 20.9-24.9 13.4-39.6-1-1.9-40.6-42.3-88-89.8L387.7 350l87.4-87.4c92.3-92.4 91.3-91.2 92.2-101.1.4-4.9-1.7-12.8-4.8-17.3-7.9-11.6-25.7-15.2-37.7-7.5-2.1 1.3-42.3 40.8-89.3 87.8L350 310l-84.8-84.8c-46.6-46.6-86.3-85.9-88.2-87.4-6.3-4.6-15.9-6.4-23.6-4.4z"/></svg>